<svg width="208" height="90" viewBox="0 0 208 90" fill="none" xmlns="http://www.w3.org/2000/svg">
<g clip-path="url(#clip0_132_1810)">
<path d="M52.1301 60.0449H15.9251C10.7251 60.0449 6.5 64.2697 6.5 69.47V157.545C6.5 162.745 10.7251 166.97 15.9251 166.97H52.1301C57.3301 166.97 61.5548 162.745 61.5548 157.545V69.47C61.5548 64.2697 57.3301 60.0449 52.1301 60.0449Z" fill="#161616"/>
<path d="M192.075 26.5048H155.87C150.67 26.5048 146.445 30.7299 146.445 35.9949V157.545C146.445 162.745 150.67 166.97 155.87 166.97H192.075C197.275 166.97 201.5 162.745 201.5 157.545V35.9949C201.5 30.7299 197.275 26.5048 192.075 26.5048Z" fill="#161616"/>
<path d="M122.07 -6.96997H85.9296C80.7296 -6.96997 76.5049 -2.74523 76.5049 2.4551V157.545C76.5049 162.745 80.7296 166.97 85.9296 166.97H122.07C127.27 166.97 131.495 162.745 131.495 157.545V2.4551C131.495 -2.74523 127.27 -6.96997 122.07 -6.96997Z" fill="#161616"/>
</g>
<defs>
<clipPath id="clip0_132_1810">
<rect width="208" height="90" fill="white"/>
</clipPath>
</defs>
</svg>
