<svg width="39" height="42" viewBox="0 0 39 42" fill="none" xmlns="http://www.w3.org/2000/svg">
<g clip-path="url(#clip0_70_715)">
<path d="M9.41425 27.9386C9.51003 27.7471 9.71114 27.5076 9.87396 27.4119C10.0368 27.3161 10.3432 27.2395 10.5922 27.2395C10.9753 27.2395 11.3871 27.4502 14.5188 29.2411C16.4438 30.3425 18.1486 31.3673 18.3018 31.511C18.4646 31.6642 18.6274 31.9419 18.6657 32.1239C18.7041 32.3059 18.6945 32.6123 18.637 32.7943C18.5891 32.9763 18.4551 33.2253 18.3306 33.3306C18.206 33.4456 17.5452 33.8574 16.8652 34.25C16.1757 34.6523 15.4287 35.0833 15.1892 35.2078C14.9498 35.3419 13.9634 35.9165 12.9865 36.4815C11.4255 37.401 11.1573 37.5255 10.688 37.5542C10.2762 37.5829 10.0942 37.5542 9.84525 37.401C9.68243 37.286 9.47171 37.0466 9.39511 36.8646C9.27061 36.5869 9.25146 35.859 9.25146 32.4112C9.25146 28.6856 9.27061 28.2547 9.41425 27.9386Z" fill="#333333"/>
<path d="M29.4492 36.865C29.3535 37.0565 29.1524 37.296 28.9896 37.3917C28.8267 37.4875 28.5203 37.5641 28.2713 37.5641C27.8882 37.5641 27.4764 37.3534 24.3446 35.5625C22.4197 34.4611 20.7149 33.4363 20.5617 33.2927C20.3989 33.1394 20.2361 32.8617 20.1978 32.6797C20.1595 32.4977 20.1691 32.1913 20.2265 32.0093C20.2744 31.8273 20.4085 31.5783 20.533 31.473C20.6575 31.3581 21.3183 30.9462 21.9983 30.5536C22.6878 30.1513 23.4348 29.7203 23.6743 29.5958C23.9137 29.4618 24.9002 28.8871 25.877 28.3221C27.4381 27.4026 27.7062 27.2781 28.1755 27.2494C28.5873 27.2207 28.7693 27.2494 29.0183 27.4026C29.1811 27.5176 29.3918 27.757 29.4684 27.939C29.5929 28.2167 29.6121 28.9446 29.6121 32.3924C29.6121 36.118 29.5929 36.549 29.4492 36.865Z" fill="#333333"/>
<path d="M18.7362 40.6989C18.6791 40.8127 18.559 40.9548 18.4618 41.0121C18.3646 41.0689 18.1816 41.1142 18.0329 41.1142C17.8042 41.1142 17.5584 40.9893 15.6887 39.9254C14.5394 39.2712 13.5217 38.6625 13.4302 38.5772C13.333 38.4862 13.2358 38.3212 13.2129 38.2131C13.1901 38.105 13.1958 37.923 13.2301 37.8149C13.2587 37.7068 13.3387 37.5589 13.413 37.4963C13.4874 37.4281 13.8819 37.1835 14.2879 36.9503C14.6995 36.7113 15.1455 36.4553 15.2885 36.3814C15.4314 36.3017 16.0203 35.9604 16.6035 35.6248C17.5355 35.0787 17.6956 35.0048 17.9758 34.9877C18.2216 34.9706 18.3303 34.9877 18.4789 35.0787C18.5761 35.147 18.7019 35.2892 18.7477 35.3973C18.822 35.5622 18.8334 35.9946 18.8334 38.0424C18.8334 40.2552 18.822 40.5111 18.7362 40.6989Z" fill="#333333"/>
<path d="M20.042 35.3204C20.0992 35.2066 20.2193 35.0644 20.3165 35.0075C20.4137 34.9506 20.5966 34.9052 20.7453 34.9052C20.974 34.9052 21.2199 35.0303 23.0895 36.094C24.2388 36.7482 25.2565 37.3569 25.348 37.4422C25.4452 37.5333 25.5425 37.6982 25.5653 37.8063C25.5882 37.9144 25.5825 38.0964 25.5481 38.2045C25.5195 38.3126 25.4395 38.4605 25.3652 38.5231C25.2909 38.5913 24.8963 38.836 24.4904 39.0692C24.0787 39.3081 23.6327 39.5641 23.4898 39.638C23.3468 39.7177 22.7579 40.059 22.1747 40.3946C21.2427 40.9408 21.0826 41.0145 20.8025 41.0317C20.5566 41.0489 20.448 41.0317 20.2993 40.9408C20.2021 40.8723 20.0763 40.7302 20.0306 40.622C19.9562 40.457 19.9448 40.0248 19.9448 37.977C19.9448 35.7641 19.9562 35.5081 20.042 35.3204Z" fill="#333333"/>
<path d="M30.5844 29.0858C30.6435 28.9685 30.7677 28.8219 30.8682 28.7632C30.9687 28.7045 31.1579 28.6576 31.3116 28.6576C31.5481 28.6576 31.8023 28.7867 33.7356 29.8836C34.9239 30.5583 35.9763 31.186 36.0709 31.274C36.1714 31.3678 36.2719 31.538 36.2956 31.6494C36.3192 31.7609 36.3133 31.9486 36.2778 32.0601C36.2483 32.1715 36.1655 32.3241 36.0886 32.3886C36.0118 32.459 35.6039 32.7113 35.1841 32.9518C34.7584 33.1982 34.2972 33.4621 34.1494 33.5384C34.0016 33.6205 33.3927 33.9725 32.7897 34.3186C31.826 34.8818 31.6604 34.958 31.3707 34.9756C31.1165 34.9932 31.0042 34.9756 30.8505 34.8818C30.7499 34.8114 30.6199 34.6647 30.5726 34.5533C30.4957 34.3832 30.4839 33.9373 30.4839 31.8254C30.4839 29.5434 30.4957 29.2794 30.5844 29.0858Z" fill="#333333"/>
<path d="M37.322 29.341C37.2629 29.4583 37.1387 29.6049 37.0382 29.6636C36.9377 29.7223 36.7485 29.7692 36.5948 29.7692C36.3583 29.7692 36.1041 29.6401 34.1708 28.5431C32.9825 27.8685 31.9301 27.2408 31.8355 27.1528C31.735 27.0589 31.6345 26.8888 31.6109 26.7774C31.5872 26.6659 31.5931 26.4782 31.6286 26.3667C31.6582 26.2553 31.7409 26.1027 31.8178 26.0382C31.8947 25.9678 32.3026 25.7155 32.7223 25.475C33.148 25.2286 33.6092 24.9647 33.757 24.8884C33.9048 24.8063 34.5138 24.4543 35.1168 24.1082C36.0805 23.545 36.246 23.4687 36.5357 23.4511C36.7899 23.4335 36.9023 23.4511 37.056 23.545C37.1565 23.6154 37.2865 23.7621 37.3338 23.8735C37.4107 24.0436 37.4225 24.4895 37.4225 26.6014C37.4225 28.8834 37.4107 29.1473 37.322 29.341Z" fill="#333333"/>
<path d="M8.2312 34.6301C8.17209 34.7475 8.04791 34.8941 7.9474 34.9528C7.84693 35.0114 7.65772 35.0584 7.50402 35.0584C7.26752 35.0584 7.01332 34.9293 5.08003 33.8323C3.89167 33.1577 2.8393 32.53 2.74471 32.442C2.6442 32.3481 2.5437 32.178 2.52005 32.0665C2.4964 31.9551 2.50231 31.7674 2.53778 31.6559C2.56734 31.5444 2.65012 31.3919 2.72698 31.3274C2.80383 31.257 3.21177 31.0047 3.63154 30.7642C4.05721 30.5178 4.51836 30.2538 4.66617 30.1776C4.81397 30.0954 5.42293 29.7435 6.02597 29.3973C6.98965 28.8342 7.15519 28.7579 7.44488 28.7403C7.69912 28.7227 7.81145 28.7403 7.96514 28.8342C8.06565 28.9046 8.19572 29.0512 8.24301 29.1627C8.3199 29.3328 8.33171 29.7787 8.33171 31.8905C8.33171 34.1726 8.3199 34.4365 8.2312 34.6301Z" fill="#333333"/>
<path d="M1.41789 24.1799C1.47701 24.0626 1.60116 23.916 1.70167 23.8573C1.80218 23.7986 1.99137 23.7517 2.14509 23.7517C2.38157 23.7517 2.6358 23.8808 4.56908 24.9778C5.75741 25.6524 6.80979 26.2801 6.90437 26.3681C7.00489 26.4619 7.1054 26.6321 7.12906 26.7435C7.15269 26.855 7.14676 27.0427 7.11132 27.1542C7.08173 27.2656 6.99896 27.4182 6.92211 27.4827C6.84527 27.5531 6.43733 27.8053 6.01754 28.0459C5.59186 28.2922 5.13075 28.5563 4.98294 28.6325C4.83514 28.7146 4.22617 29.0666 3.62313 29.4127C2.65945 29.9759 2.4939 30.0522 2.20421 30.0697C1.94998 30.0874 1.83765 30.0697 1.68394 29.9759C1.58343 29.9055 1.45336 29.7588 1.40607 29.6474C1.3292 29.4772 1.31738 29.0314 1.31738 26.9195C1.31738 24.6375 1.32921 24.3735 1.41789 24.1799Z" fill="#333333"/>
<path d="M1.41789 11.8383C1.47701 11.7209 1.60116 11.5743 1.70167 11.5156C1.80218 11.457 1.99137 11.41 2.14509 11.41C2.38157 11.41 2.6358 11.5391 4.56908 12.6361C5.75741 13.3107 6.80979 13.9384 6.90437 14.0264C7.00489 14.1203 7.1054 14.2904 7.12906 14.4019C7.15269 14.5134 7.14676 14.7011 7.11132 14.8125C7.08173 14.924 6.99896 15.0765 6.92211 15.1411C6.84527 15.2115 6.43733 15.4637 6.01754 15.7042C5.59186 15.9506 5.13075 16.2146 4.98294 16.2909C4.83514 16.373 4.22617 16.7249 3.62313 17.0711C2.65945 17.6342 2.4939 17.7105 2.20421 17.7281C1.94998 17.7457 1.83765 17.7281 1.68394 17.6342C1.58343 17.5638 1.45336 17.4172 1.40607 17.3057C1.3292 17.1356 1.31738 16.6897 1.31738 14.5779C1.31738 12.2959 1.32921 12.0319 1.41789 11.8383Z" fill="#333333"/>
<path d="M19.8539 0.493185C19.913 0.375856 20.0372 0.229199 20.1377 0.170536C20.2382 0.111873 20.4274 0.0649414 20.5811 0.0649414C20.8176 0.0649414 21.0718 0.194001 23.0051 1.29101C24.1934 1.96563 25.2458 2.59333 25.3404 2.68133C25.4409 2.77519 25.5414 2.94532 25.565 3.05678C25.5887 3.16824 25.5828 3.35596 25.5473 3.46742C25.5178 3.57888 25.435 3.7314 25.3581 3.79594C25.2813 3.86633 24.8734 4.1186 24.4536 4.35911C24.0279 4.60551 23.5668 4.86948 23.419 4.94573C23.2712 5.02786 22.6622 5.37986 22.0592 5.72596C21.0955 6.28911 20.9299 6.3654 20.6402 6.38298C20.386 6.4006 20.2737 6.38298 20.1199 6.28911C20.0194 6.21871 19.8894 6.07207 19.8421 5.96063C19.7652 5.79047 19.7534 5.34466 19.7534 3.23277C19.7534 0.950758 19.7652 0.686774 19.8539 0.493185Z" fill="#333333"/>
<path d="M18.6565 6.0376C18.5974 6.15493 18.4732 6.30158 18.3727 6.36024C18.2722 6.41891 18.083 6.46584 17.9293 6.46584C17.6928 6.46584 17.4386 6.33678 15.5053 5.23979C14.317 4.56515 13.2646 3.93745 13.17 3.84945C13.0695 3.75559 12.969 3.58547 12.9454 3.47401C12.9217 3.36255 12.9276 3.17482 12.9631 3.06336C12.9926 2.9519 13.0754 2.79938 13.1523 2.73485C13.2291 2.66445 13.6371 2.4122 14.0568 2.17168C14.4825 1.92529 14.9437 1.66131 15.0915 1.58504C15.2393 1.50292 15.8482 1.15094 16.4513 0.804821C17.415 0.241654 17.5805 0.16539 17.8702 0.147791C18.1244 0.130192 18.2368 0.147791 18.3904 0.241653C18.491 0.312049 18.621 0.458708 18.6683 0.570167C18.7452 0.740293 18.757 1.18613 18.757 3.29802C18.757 5.58001 18.7452 5.84403 18.6565 6.0376Z" fill="#333333"/>
<path d="M37.3977 17.0376C37.3386 17.1549 37.2144 17.3016 37.1139 17.3602C37.0134 17.4189 36.8242 17.4658 36.6705 17.4658C36.434 17.4658 36.1798 17.3368 34.2465 16.2398C33.0582 15.5651 32.0058 14.9374 31.9112 14.8495C31.8107 14.7556 31.7102 14.5855 31.6866 14.474C31.6629 14.3626 31.6688 14.1748 31.7043 14.0634C31.7339 13.9519 31.8166 13.7994 31.8935 13.7349C31.9704 13.6645 32.3783 13.4122 32.798 13.1717C33.2237 12.9253 33.6849 12.6613 33.8327 12.5851C33.9805 12.5029 34.5894 12.151 35.1925 11.8048C36.1562 11.2417 36.3217 11.1654 36.6114 11.1478C36.8656 11.1302 36.978 11.1478 37.1317 11.2417C37.2322 11.3121 37.3622 11.4587 37.4095 11.5702C37.4864 11.7403 37.4982 12.1861 37.4982 14.298C37.4982 16.58 37.4864 16.844 37.3977 17.0376Z" fill="#333333"/>
<path d="M30.4706 6.62575C30.5297 6.50842 30.6539 6.36177 30.7544 6.30311C30.8549 6.24444 31.0441 6.19751 31.1978 6.19751C31.4343 6.19751 31.6885 6.32657 33.6218 7.42356C34.8101 8.0982 35.8625 8.7259 35.9571 8.81392C36.0576 8.90775 36.1581 9.0779 36.1817 9.18934C36.2054 9.30083 36.1995 9.48852 36.164 9.6C36.1345 9.71145 36.0517 9.86398 35.9748 9.92853C35.898 9.99889 35.4901 10.2512 35.0703 10.4917C34.6446 10.7381 34.1835 11.0021 34.0357 11.0783C33.8879 11.1604 33.2789 11.5124 32.6759 11.8585C31.7122 12.4217 31.5466 12.498 31.2569 12.5155C31.0027 12.5332 30.8904 12.5155 30.7366 12.4217C30.6361 12.3513 30.5061 12.2046 30.4588 12.0932C30.3819 11.9231 30.3701 11.4772 30.3701 9.36534C30.3701 7.08334 30.3819 6.81937 30.4706 6.62575Z" fill="#333333"/>
<path d="M8.00123 12.17C7.94212 12.2874 7.81794 12.434 7.71743 12.4927C7.61692 12.5513 7.42775 12.5983 7.27401 12.5983C7.03755 12.5983 6.7833 12.4692 4.85002 11.3722C3.66169 10.6976 2.60932 10.0699 2.51473 9.9819C2.41422 9.88803 2.31372 9.71792 2.29007 9.60644C2.26642 9.49499 2.27233 9.30726 2.3078 9.19582C2.33736 9.08433 2.42014 8.9318 2.49699 8.86729C2.57385 8.79689 2.98179 8.54465 3.40156 8.30414C3.82723 8.05774 4.28838 7.79377 4.43619 7.71748C4.584 7.63535 5.19296 7.28339 5.796 6.93725C6.75968 6.3741 6.92522 6.29785 7.21491 6.28023C7.46911 6.26265 7.58148 6.28023 7.73517 6.3741C7.83568 6.44449 7.96575 6.59114 8.01304 6.70262C8.08993 6.87273 8.10174 7.31859 8.10174 9.43044C8.10174 11.7125 8.08993 11.9764 8.00123 12.17Z" fill="#333333"/>
<path d="M9.77738 25.2383C9.68091 25.4296 9.47837 25.6687 9.31438 25.7643C9.1504 25.8599 8.8417 25.9364 8.59089 25.9364C8.20506 25.9364 7.79028 25.726 4.63598 23.9376C2.6971 22.8377 0.980079 21.8144 0.825741 21.6709C0.661756 21.5179 0.497771 21.2406 0.459186 21.0589C0.420601 20.8771 0.430247 20.5711 0.488124 20.3894C0.536355 20.2077 0.671402 19.959 0.796802 19.8538C0.922202 19.739 1.58779 19.3278 2.27267 18.9356C2.96719 18.534 3.71959 18.1036 3.96075 17.9793C4.2019 17.8454 5.19545 17.2715 6.17935 16.7073C7.75167 15.7891 8.02178 15.6648 8.49447 15.6361C8.90925 15.6074 9.0925 15.6361 9.3433 15.7891C9.50728 15.9039 9.71952 16.143 9.79668 16.3247C9.92206 16.6021 9.94137 17.3289 9.94137 20.7719C9.94137 24.4923 9.92206 24.9227 9.77738 25.2383Z" fill="#333333"/>
<path d="M9.33879 4.44268C9.43522 4.25139 9.6378 4.01229 9.80179 3.91666C9.96577 3.82102 10.2744 3.74451 10.5252 3.74451C10.9111 3.74451 11.3259 3.95491 14.4802 5.74338C16.4191 6.84321 18.1361 7.86656 18.2904 8.01C18.4544 8.16305 18.6184 8.4404 18.657 8.62208C18.6955 8.80381 18.6859 9.10987 18.628 9.29159C18.5798 9.47328 18.4447 9.72195 18.3194 9.82715C18.1939 9.94192 17.5284 10.3532 16.8435 10.7453C16.149 11.147 15.3966 11.5774 15.1554 11.7017C14.9143 11.8356 13.9207 12.4094 12.9368 12.9737C11.3645 13.8918 11.0944 14.0162 10.6217 14.0448C10.2069 14.0735 10.0236 14.0448 9.77283 13.8918C9.60885 13.7771 9.39665 13.5379 9.31949 13.3562C9.19407 13.0789 9.1748 12.352 9.1748 8.909C9.1748 5.18864 9.19407 4.75827 9.33879 4.44268Z" fill="#333333"/>
<path d="M29.2086 13.3181C29.1121 13.5094 28.9095 13.7485 28.7455 13.8441C28.5815 13.9398 28.2729 14.0163 28.0221 14.0163C27.6362 14.0163 27.2214 13.8059 24.0671 12.0174C22.1282 10.9176 20.4112 9.89423 20.2569 9.75079C20.0929 9.59774 19.9289 9.32038 19.8903 9.1387C19.8518 8.95698 19.8614 8.65091 19.9193 8.46923C19.9675 8.28751 20.1026 8.03883 20.2279 7.93363C20.3534 7.81886 21.0189 7.4076 21.7038 7.01548C22.3983 6.61383 23.1507 6.18343 23.3919 6.05909C23.633 5.92522 24.6266 5.35138 25.6105 4.78711C27.1828 3.86897 27.4529 3.74464 27.9256 3.71595C28.3404 3.68725 28.5237 3.71595 28.7745 3.86897C28.9385 3.98374 29.1507 4.22283 29.2278 4.40456C29.3532 4.68191 29.3725 5.40876 29.3725 8.85178C29.3725 12.5721 29.3532 13.0025 29.2086 13.3181Z" fill="#333333"/>
<path d="M28.9233 15.9793C29.0197 15.788 29.2223 15.5489 29.3863 15.4533C29.5503 15.3577 29.8589 15.2811 30.1098 15.2811C30.4956 15.2811 30.9104 15.4915 34.0647 17.28C36.0036 18.3798 37.7206 19.4032 37.8749 19.5466C38.0389 19.6997 38.2029 19.977 38.2415 20.1587C38.2801 20.3404 38.2704 20.6465 38.2125 20.8282C38.1643 21.0099 38.0293 21.2586 37.9038 21.3638C37.7785 21.4785 37.1129 21.8898 36.428 22.2819C35.7334 22.6836 34.981 23.114 34.7399 23.2383C34.4987 23.3722 33.5052 23.946 32.5213 24.5103C30.949 25.4285 30.6789 25.5528 30.2062 25.5815C29.7914 25.6101 29.6081 25.5815 29.3573 25.4285C29.1934 25.3137 28.9811 25.0746 28.904 24.8929C28.7786 24.6155 28.7593 23.8886 28.7593 20.4456C28.7593 16.7253 28.7786 16.2949 28.9233 15.9793Z" fill="#333333"/>
<mask id="mask0_70_715" style="mask-type:luminance" maskUnits="userSpaceOnUse" x="14" y="15" width="12" height="12">
<path d="M25.2238 15.6024H14.1714V26.9752H25.2238V15.6024Z" fill="white"/>
<path d="M23.2106 26.4946H20.765L19.5344 22.8028H17.8209L17.0108 26.4946H14.7988L17.0887 16.1045H21.5283C23.2106 16.1045 24.7372 17.2261 24.7372 19.0331C24.7372 20.9179 23.4599 22.3355 21.7775 22.647L23.2106 26.4946ZM20.5469 20.8556H20.5781C21.7308 20.8556 22.4162 20.1858 22.4162 19.2511C22.4162 18.5502 21.7931 18.0517 21.1077 18.0517H18.8801L18.257 20.8556H20.5469Z" fill="black"/>
</mask>
<g mask="url(#mask0_70_715)">
<path d="M23.2105 26.4946V26.9751H23.9023L23.6608 26.3268L23.2105 26.4946ZM20.7648 26.4946L20.309 26.6466L20.4185 26.9751H20.7648V26.4946ZM19.5342 22.8027L19.9901 22.6508L19.8806 22.3222H19.5342V22.8027ZM17.8207 22.8027V22.3222H17.4341L17.3513 22.6997L17.8207 22.8027ZM17.0107 26.4946V26.9751H17.3972L17.48 26.5976L17.0107 26.4946ZM14.7987 26.4946L14.3294 26.3912L14.2007 26.9751H14.7987V26.4946ZM17.0886 16.1044V15.6239H16.7024L16.6193 16.001L17.0886 16.1044ZM21.7774 22.647L21.6899 22.1745L21.1274 22.2786L21.3271 22.8147L21.7774 22.647ZM18.88 18.0516V17.5711H18.4945L18.4109 17.9474L18.88 18.0516ZM18.2569 20.8556L17.7878 20.7513L17.6578 21.3361H18.2569V20.8556ZM23.2105 26.0141H20.7648V26.9751H23.2105V26.0141ZM21.2207 26.3426L19.9901 22.6508L19.0783 22.9547L20.309 26.6466L21.2207 26.3426ZM19.5342 22.3222H17.8207V23.2833H19.5342V22.3222ZM17.3513 22.6997L16.5413 26.3916L17.48 26.5976L18.2901 22.9057L17.3513 22.6997ZM17.0107 26.0141H14.7987V26.9751H17.0107V26.0141ZM15.268 26.598L17.5578 16.2079L16.6193 16.001L14.3294 26.3912L15.268 26.598ZM17.0886 16.585H21.5281V15.6239H17.0886V16.585ZM21.5281 16.585C23.0183 16.585 24.2565 17.5591 24.2565 19.033H25.2176C25.2176 16.8929 23.4027 15.6239 21.5281 15.6239V16.585ZM24.2565 19.033C24.2565 20.6812 23.1494 21.9042 21.6899 22.1745L21.8649 23.1195C23.77 22.7667 25.2176 21.1545 25.2176 19.033H24.2565ZM21.3271 22.8147L22.7602 26.6623L23.6608 26.3268L22.2277 22.4792L21.3271 22.8147ZM20.5468 21.3361H20.5779V20.375H20.5468V21.3361ZM20.5779 21.3361C21.2463 21.3361 21.8291 21.1409 22.2509 20.7608C22.6767 20.3771 22.8966 19.8416 22.8966 19.2511H21.9355C21.9355 19.5952 21.8127 19.862 21.6075 20.0469C21.3985 20.2353 21.0622 20.375 20.5779 20.375V21.3361ZM22.8966 19.2511C22.8966 18.2284 21.9983 17.5711 21.1075 17.5711V18.5322C21.5876 18.5322 21.9355 18.8718 21.9355 19.2511H22.8966ZM21.1075 17.5711H18.88V18.5322H21.1075V17.5711ZM18.4109 17.9474L17.7878 20.7513L18.726 20.9598L19.3491 18.1559L18.4109 17.9474ZM18.2569 21.3361H20.5468V20.375H18.2569V21.3361Z" fill="#333333"/>
</g>
</g>
<defs>
<clipPath id="clip0_70_715">
<rect width="38" height="41.3333" fill="white" transform="translate(0.436035)"/>
</clipPath>
</defs>
</svg>
