<svg width="916" height="997" viewBox="0 0 916 997" fill="none" xmlns="http://www.w3.org/2000/svg">
<path d="M216.422 673.759C218.731 669.142 223.579 663.371 227.504 661.063C231.429 658.754 238.816 656.907 244.818 656.907C254.052 656.907 263.979 661.985 339.47 705.157C385.873 731.707 426.966 756.408 430.659 759.872C434.584 763.565 438.508 770.26 439.432 774.647C440.356 779.033 440.125 786.42 438.74 790.807C437.585 795.194 434.353 801.196 431.352 803.736C428.35 806.506 412.422 816.433 396.03 825.898C379.409 835.594 361.401 845.984 355.63 848.985C349.858 852.216 326.08 866.068 302.533 879.689C264.903 901.852 258.439 904.853 247.127 905.546C237.2 906.238 232.814 905.546 226.812 901.852C222.887 899.081 217.808 893.31 215.961 888.924C212.96 882.228 212.498 864.683 212.498 781.573C212.498 691.767 212.96 681.378 216.422 673.759Z" fill="white"/>
<path d="M699.374 888.931C697.066 893.548 692.217 899.32 688.293 901.629C684.368 903.938 676.981 905.785 670.979 905.785C661.744 905.785 651.816 900.705 576.326 857.534C529.923 830.985 488.831 806.282 485.138 802.82C481.213 799.126 477.288 792.431 476.365 788.045C475.441 783.658 475.672 776.27 477.057 771.884C478.212 767.498 481.444 761.496 484.445 758.956C487.446 756.186 503.375 746.258 519.766 736.793C536.388 727.096 554.394 716.708 560.166 713.707C565.937 710.475 589.716 696.623 613.264 683.002C650.894 660.839 657.357 657.838 668.67 657.146C678.597 656.453 682.983 657.146 688.985 660.839C692.91 663.609 697.988 669.381 699.836 673.768C702.837 680.462 703.298 698.008 703.298 781.119C703.298 870.924 702.837 881.313 699.374 888.931Z" fill="#D00457"/>
<path d="M441.131 981.348C439.753 984.09 436.858 987.517 434.515 988.897C432.173 990.268 427.762 991.358 424.178 991.358C418.665 991.358 412.738 988.347 367.67 962.702C339.966 946.932 315.433 932.259 313.228 930.202C310.885 928.009 308.542 924.032 307.991 921.427C307.44 918.822 307.578 914.433 308.404 911.828C309.093 909.223 311.023 905.658 312.814 904.149C314.607 902.503 324.117 896.607 333.902 890.985C343.825 885.226 354.576 879.055 358.022 877.273C361.468 875.353 375.663 867.125 389.722 859.035C412.187 845.872 416.046 844.089 422.801 843.677C428.726 843.266 431.345 843.677 434.928 845.872C437.272 847.516 440.304 850.945 441.407 853.55C443.198 857.527 443.474 867.949 443.474 917.313C443.474 970.653 443.198 976.821 441.131 981.348Z" fill="#FF0068"/>
<path d="M472.612 851.698C473.99 848.956 476.884 845.527 479.228 844.156C481.571 842.785 485.981 841.688 489.564 841.688C495.078 841.688 501.004 844.705 546.073 870.347C573.776 886.116 598.309 900.788 600.515 902.845C602.857 905.039 605.201 909.016 605.752 911.622C606.304 914.227 606.166 918.614 605.338 921.22C604.649 923.826 602.719 927.391 600.928 928.899C599.136 930.544 589.626 936.441 579.841 942.063C569.917 947.822 559.166 953.993 555.721 955.775C552.275 957.695 538.08 965.922 524.021 974.012C501.555 987.179 497.696 988.955 490.943 989.37C485.016 989.785 482.398 989.37 478.814 987.179C476.471 985.528 473.439 982.101 472.336 979.495C470.544 975.518 470.269 965.1 470.269 915.735C470.269 862.394 470.544 856.223 472.612 851.698Z" fill="white"/>
<path d="M726.737 701.414C728.162 698.585 731.155 695.051 733.578 693.636C736 692.222 740.561 691.091 744.266 691.091C749.966 691.091 756.095 694.202 802.697 720.645C831.342 736.908 856.71 752.039 858.99 754.16C861.413 756.422 863.836 760.523 864.406 763.21C864.976 765.897 864.833 770.421 863.978 773.109C863.266 775.795 861.27 779.472 859.418 781.027C857.565 782.724 847.732 788.806 837.613 794.603C827.352 800.542 816.236 806.906 812.673 808.744C809.11 810.723 794.432 819.208 779.895 827.551C756.665 841.126 752.675 842.965 745.691 843.389C739.563 843.814 736.856 843.389 733.15 841.127C730.727 839.43 727.592 835.894 726.452 833.208C724.599 829.107 724.314 818.36 724.314 767.452C724.314 712.444 724.599 706.08 726.737 701.414Z" fill="white"/>
<path d="M889.146 707.562C887.721 710.39 884.728 713.925 882.305 715.339C879.883 716.753 875.322 717.885 871.617 717.885C865.916 717.885 859.789 714.773 813.186 688.329C784.54 672.068 759.174 656.937 756.893 654.815C754.471 652.553 752.048 648.452 751.477 645.766C750.908 643.078 751.05 638.553 751.905 635.867C752.617 633.18 754.613 629.503 756.465 627.947C758.318 626.25 768.152 620.17 778.27 614.373C788.531 608.433 799.647 602.07 803.21 600.231C806.773 598.252 821.452 589.767 835.989 581.424C859.218 567.848 863.209 566.01 870.192 565.586C876.32 565.162 879.028 565.586 882.733 567.848C885.156 569.545 888.291 573.081 889.431 575.768C891.284 579.868 891.569 590.616 891.569 641.523C891.569 696.531 891.284 702.895 889.146 707.562Z" fill="white"/>
<path d="M187.902 835.06C186.477 837.889 183.484 841.424 181.061 842.838C178.639 844.252 174.078 845.383 170.373 845.383C164.672 845.383 158.545 842.272 111.942 815.829C83.2965 799.567 57.9289 784.436 55.6487 782.315C53.2259 780.052 50.8032 775.951 50.2331 773.264C49.6631 770.578 49.8056 766.053 50.6606 763.365C51.3732 760.679 53.3685 757.002 55.2212 755.447C57.0739 753.75 66.9073 747.67 77.0259 741.871C87.2869 735.933 98.403 729.569 101.966 727.731C105.529 725.751 120.208 717.266 134.744 708.923C157.974 695.348 161.965 693.509 168.947 693.085C175.076 692.661 177.784 693.085 181.489 695.348C183.911 697.045 187.047 700.58 188.187 703.266C190.04 707.368 190.325 718.114 190.325 769.022C190.325 824.031 190.04 830.394 187.902 835.06Z" fill="#D00457"/>
<path d="M23.6724 583.154C25.0976 580.326 28.0904 576.791 30.5132 575.377C32.9359 573.963 37.4964 572.831 41.2018 572.831C46.9023 572.831 53.0304 575.942 99.6327 602.386C128.278 618.648 153.646 633.779 155.926 635.9C158.348 638.162 160.771 642.264 161.342 644.95C161.911 647.636 161.769 652.162 160.914 654.849C160.201 657.536 158.206 661.212 156.353 662.767C154.501 664.464 144.667 670.545 134.548 676.343C124.287 682.282 113.172 688.646 109.609 690.484C106.046 692.464 91.3668 700.949 76.8304 709.292C53.6005 722.866 49.6101 724.705 42.6269 725.129C36.4988 725.554 33.791 725.129 30.0856 722.867C27.6629 721.17 24.5276 717.635 23.3875 714.948C21.5347 710.847 21.2498 700.1 21.2498 649.193C21.2498 594.184 21.5348 587.82 23.6724 583.154Z" fill="white"/>
<path d="M23.6724 285.656C25.0976 282.828 28.0904 279.293 30.5132 277.879C32.9359 276.464 37.4964 275.333 41.2018 275.333C46.9023 275.333 53.0304 278.444 99.6327 304.888C128.278 321.15 153.646 336.281 155.926 338.402C158.348 340.665 160.771 344.765 161.342 347.452C161.911 350.139 161.769 354.665 160.914 357.351C160.201 360.037 158.206 363.714 156.353 365.27C154.501 366.967 144.667 373.048 134.548 378.845C124.287 384.785 113.172 391.148 109.609 392.987C106.046 394.965 91.3668 403.45 76.8304 411.793C53.6005 425.369 49.6101 427.207 42.6269 427.632C36.4988 428.056 33.791 427.632 30.0856 425.369C27.6629 423.672 24.5276 420.136 23.3875 417.45C21.5347 413.349 21.2498 402.602 21.2498 351.694C21.2498 296.686 21.5348 290.323 23.6724 285.656Z" fill="white"/>
<path d="M468.07 12.1803C469.496 9.35205 472.488 5.81684 474.911 4.40275C477.334 2.98865 481.894 1.85736 485.6 1.85736C491.301 1.85736 497.428 4.96837 544.031 31.412C572.676 47.6741 598.043 62.8049 600.323 64.9261C602.746 67.1886 605.169 71.2895 605.739 73.9763C606.309 76.6631 606.166 81.1882 605.312 83.875C604.599 86.5617 602.603 90.2384 600.751 91.794C598.899 93.4909 589.065 99.5719 578.946 105.369C568.685 111.309 557.57 117.672 554.007 119.51C550.444 121.49 535.765 129.975 521.228 138.318C497.999 151.893 494.008 153.732 487.024 154.155C480.897 154.58 478.189 154.155 474.483 151.893C472.06 150.196 468.925 146.661 467.785 143.974C465.933 139.873 465.648 129.126 465.648 78.2186C465.648 23.2102 465.933 16.8468 468.07 12.1803Z" fill="#FF0068"/>
<path d="M439.204 145.827C437.779 148.655 434.786 152.19 432.363 153.604C429.94 155.018 425.38 156.149 421.674 156.149C415.974 156.149 409.845 153.038 363.244 126.595C334.598 110.333 309.23 95.2018 306.95 93.0807C304.527 90.8182 302.105 86.7173 301.535 84.0305C300.964 81.3437 301.107 76.8186 301.962 74.1318C302.675 71.445 304.67 67.7683 306.523 66.2129C308.376 64.516 318.209 58.4353 328.327 52.6376C338.589 46.6984 349.705 40.335 353.268 38.4966C356.831 36.5168 371.51 28.0323 386.046 19.6891C409.276 6.11381 413.266 4.27544 420.249 3.85122C426.378 3.42699 429.086 3.85122 432.79 6.11378C435.213 7.81069 438.349 11.3459 439.489 14.0327C441.342 18.1336 441.627 28.8807 441.627 79.7883C441.627 134.796 441.342 141.16 439.204 145.827Z" fill="white"/>
<path d="M890.966 410.987C889.54 413.816 886.548 417.351 884.125 418.765C881.702 420.179 877.142 421.31 873.436 421.31C867.736 421.31 861.608 418.199 815.005 391.756C786.36 375.494 760.992 360.363 758.712 358.242C756.29 355.979 753.867 351.879 753.297 349.191C752.727 346.505 752.87 341.98 753.725 339.293C754.437 336.606 756.432 332.929 758.285 331.374C760.138 329.677 769.972 323.597 780.09 317.798C790.351 311.86 801.467 305.496 805.03 303.658C808.593 301.678 823.271 293.194 837.808 284.85C861.038 271.275 865.029 269.436 872.012 269.012C878.139 268.588 880.848 269.012 884.553 271.275C886.976 272.972 890.111 276.507 891.251 279.194C893.103 283.295 893.389 294.041 893.389 344.949C893.389 399.958 893.103 406.321 890.966 410.987Z" fill="white"/>
<path d="M723.993 160.005C725.419 157.177 728.411 153.642 730.834 152.228C733.257 150.813 737.817 149.682 741.523 149.682C747.224 149.682 753.351 152.793 799.954 179.236C828.599 195.499 853.967 210.63 856.247 212.751C858.669 215.013 861.092 219.115 861.662 221.801C862.232 224.488 862.089 229.013 861.235 231.7C860.522 234.386 858.527 238.063 856.674 239.619C854.822 241.315 844.988 247.397 834.869 253.194C824.608 259.134 813.493 265.497 809.93 267.335C806.367 269.315 791.688 277.799 777.151 286.142C753.922 299.718 749.931 301.556 742.947 301.98C736.82 302.405 734.112 301.98 730.406 299.718C727.983 298.021 724.848 294.485 723.708 291.799C721.856 287.699 721.571 276.951 721.571 226.043C721.571 171.035 721.856 164.672 723.993 160.005Z" fill="#D00457"/>
<path d="M182.359 293.652C180.935 296.48 177.941 300.015 175.518 301.429C173.096 302.843 168.535 303.974 164.83 303.974C159.13 303.974 153.001 300.863 106.399 274.42C77.7538 258.158 52.3862 243.027 50.106 240.906C47.6832 238.643 45.2605 234.543 44.6904 231.855C44.1204 229.169 44.2629 224.644 45.1179 221.957C45.8305 219.27 47.8258 215.593 49.6784 214.038C51.5311 212.341 61.3647 206.261 71.4831 200.463C81.7442 194.524 92.8603 188.161 96.4232 186.322C99.9863 184.342 114.665 175.858 129.202 167.514C152.432 153.939 156.422 152.101 163.405 151.676C169.533 151.253 172.241 151.676 175.946 153.939C178.369 155.636 181.504 159.171 182.644 161.858C184.498 165.959 184.782 176.706 184.782 227.613C184.782 282.622 184.498 288.985 182.359 293.652Z" fill="white"/>
<path d="M225.176 608.665C222.85 613.275 217.968 619.039 214.015 621.344C210.062 623.649 202.621 625.494 196.575 625.494C187.274 625.494 177.276 620.422 101.241 577.311C54.5035 550.798 13.1143 526.13 9.39396 522.673C5.44106 518.984 1.48815 512.299 0.558055 507.918C-0.372033 503.538 -0.139518 496.16 1.25562 491.78C2.41823 487.4 5.67357 481.405 8.69637 478.87C11.7192 476.103 27.7633 466.191 44.2725 456.737C61.0142 447.056 79.1511 436.681 84.9641 433.684C90.7772 430.456 114.727 416.624 138.444 403.022C176.345 380.89 182.856 377.893 194.251 377.201C204.249 376.51 208.666 377.201 214.712 380.89C218.665 383.656 223.781 389.42 225.641 393.8C228.663 400.486 229.129 418.007 229.129 501.002C229.129 590.682 228.663 601.056 225.176 608.665Z" fill="#FF0068"/>
<path d="M214.604 107.382C216.928 102.771 221.811 97.0075 225.764 94.7021C229.717 92.3967 237.158 90.5524 243.203 90.5524C252.505 90.5524 262.503 95.6242 338.538 138.736C385.276 165.247 426.665 189.915 430.385 193.373C434.338 197.062 438.291 203.748 439.221 208.128C440.151 212.508 439.918 219.886 438.523 224.266C437.361 228.646 434.105 234.64 431.083 237.176C428.06 239.943 412.015 249.856 395.507 259.308C378.765 268.991 360.628 279.365 354.815 282.362C349.002 285.589 325.052 299.422 301.334 313.024C263.433 335.156 256.923 338.153 245.529 338.844C235.53 339.537 231.112 338.844 225.066 335.156C221.114 332.39 215.998 326.626 214.138 322.245C211.115 315.56 210.651 298.039 210.651 215.044C210.651 125.363 211.115 114.99 214.604 107.382Z" fill="#D00457"/>
<path d="M693.569 321.329C691.244 325.941 686.36 331.704 682.408 334.009C678.455 336.314 671.014 338.159 664.969 338.159C655.667 338.159 645.669 333.088 569.633 289.976C522.896 263.464 481.507 238.796 477.787 235.338C473.834 231.649 469.881 224.963 468.951 220.584C468.021 216.203 468.254 208.826 469.649 204.446C470.811 200.065 474.067 194.071 477.089 191.535C480.112 188.769 496.156 178.855 512.666 169.403C529.407 159.721 547.544 149.346 553.357 146.349C559.17 143.122 583.121 129.289 606.838 115.687C644.739 93.5556 651.25 90.5584 662.643 89.8668C672.642 89.1752 677.06 89.8668 683.105 93.5555C687.058 96.322 692.173 102.085 694.033 106.466C697.057 113.152 697.522 130.673 697.522 213.667C697.522 303.348 697.057 313.722 693.569 321.329Z" fill="white"/>
<path d="M686.691 385.478C689.017 380.866 693.9 375.103 697.853 372.798C701.806 370.493 709.246 368.648 715.292 368.648C724.592 368.648 734.591 373.719 810.626 416.831C857.363 443.343 898.753 468.011 902.473 471.469C906.426 475.158 910.379 481.844 911.309 486.223C912.239 490.604 912.007 497.981 910.612 502.361C909.449 506.741 906.194 512.736 903.17 515.272C900.148 518.038 884.104 527.952 867.595 537.404C850.853 547.087 832.716 557.461 826.903 560.458C821.09 563.685 797.14 577.518 773.423 591.12C735.521 613.252 729.011 616.249 717.617 616.94C707.619 617.631 703.201 616.94 697.155 613.252C693.202 610.485 688.086 604.721 686.226 600.341C683.204 593.655 682.738 576.134 682.738 493.14C682.738 403.459 683.204 393.085 686.691 385.478Z" fill="#FF0068"/>
<mask id="mask0_218_612" style="mask-type:luminance" maskUnits="userSpaceOnUse" x="331" y="376" width="267" height="275">
<path d="M597.516 376.391H331.095V650.533H597.516V376.391Z" fill="white"/>
<path d="M548.988 638.95H490.035L460.37 549.957H419.066L399.54 638.95H346.219L401.417 388.492H508.434C548.988 388.492 585.787 415.528 585.787 459.086C585.787 504.521 554.996 538.692 514.442 546.202L548.988 638.95ZM484.778 503.019H485.529C513.316 503.019 529.838 486.873 529.838 464.343C529.838 447.446 514.818 435.43 498.296 435.43H444.6L429.58 503.019H484.778Z" fill="black"/>
</mask>
<g mask="url(#mask0_218_612)">
<path d="M548.991 638.951V650.535H565.666L559.846 634.908L548.991 638.951ZM490.038 638.951L479.049 642.615L481.689 650.535H490.038V638.951ZM460.373 549.958L471.362 546.295L468.722 538.375H460.373V549.958ZM419.068 549.958V538.375H409.75L407.754 547.476L419.068 549.958ZM399.542 638.951V650.535H408.86L410.857 641.434L399.542 638.951ZM346.222 638.951L334.909 636.458L331.807 650.535H346.222V638.951ZM401.42 388.494V376.91H392.112L390.108 386.001L401.42 388.494ZM514.445 546.203L512.336 534.814L498.777 537.325L503.59 550.247L514.445 546.203ZM444.602 435.431V423.848H435.31L433.295 432.919L444.602 435.431ZM429.582 503.021L418.275 500.508L415.143 514.605H429.582V503.021ZM548.991 627.368H490.038V650.535H548.991V627.368ZM501.026 635.288L471.362 546.295L449.384 553.622L479.049 642.615L501.026 635.288ZM460.373 538.375H419.068V561.542H460.373V538.375ZM407.754 547.476L388.228 636.469L410.857 641.434L430.383 552.441L407.754 547.476ZM399.542 627.368H346.222V650.535H399.542V627.368ZM357.534 641.445L412.732 390.987L390.108 386.001L334.909 636.458L357.534 641.445ZM401.42 400.077H508.437V376.91H401.42V400.077ZM508.437 400.077C544.358 400.077 574.206 423.56 574.206 459.088H597.373C597.373 407.5 553.623 376.91 508.437 376.91V400.077ZM574.206 459.088C574.206 498.818 547.519 528.298 512.336 534.814L516.554 557.593C562.479 549.089 597.373 510.228 597.373 459.088H574.206ZM503.59 550.247L538.136 642.995L559.846 634.908L525.3 542.16L503.59 550.247ZM484.781 514.605H485.532V491.438H484.781V514.605ZM485.532 514.605C501.643 514.605 515.693 509.9 525.86 500.736C536.123 491.488 541.424 478.58 541.424 464.345H518.257C518.257 472.639 515.296 479.07 510.351 483.527C505.311 488.07 497.207 491.438 485.532 491.438V514.605ZM541.424 464.345C541.424 439.692 519.77 423.848 498.299 423.848V447.015C509.871 447.015 518.257 455.202 518.257 464.345H541.424ZM498.299 423.848H444.602V447.015H498.299V423.848ZM433.295 432.919L418.275 500.508L440.89 505.534L455.91 437.944L433.295 432.919ZM429.582 514.605H484.781V491.438H429.582V514.605Z" fill="white"/>
</g>
</svg>
