<svg width="13" height="13" viewBox="0 0 13 13" fill="none" xmlns="http://www.w3.org/2000/svg">
<g clip-path="url(#clip0_4018_17)">
<path d="M1.36719 8.3524H4.83958V7.96658H2.84681C2.68342 7.96658 2.5451 7.85025 2.5179 7.69033C2.5017 7.5767 2.45424 7.47446 2.37958 7.38939C2.28949 7.28907 2.16545 7.22136 2.03138 7.20014C1.87396 7.17776 1.75301 7.03675 1.75301 6.87277V3.27305C1.75301 3.10889 1.87396 2.96787 2.03447 2.94511C2.16545 2.92446 2.28949 2.85675 2.38113 2.75451C2.45424 2.67117 2.5017 2.56912 2.51694 2.4609C2.5451 2.29557 2.68342 2.17925 2.84681 2.17925H4.83958V1.79343H1.36719V8.3524Z" fill="white"/>
<path d="M6.96143 5.28534V5.8251C7.1906 5.78054 7.34725 5.66344 7.34725 5.55522C7.34725 5.447 7.1906 5.3299 6.96143 5.28534Z" fill="white"/>
<path d="M6.18945 4.59066C6.18945 4.69888 6.3461 4.81598 6.57528 4.86054V4.32097C6.3461 4.36553 6.18945 4.48244 6.18945 4.59066Z" fill="white"/>
<path d="M8.31167 8.93117H5.2251V10.8603H8.31206V8.93117H8.31167Z" fill="white"/>
<path d="M5.2251 1.60048V8.54527H8.31187V1.60048H5.2251ZM6.9613 6.21703V6.23034C6.9613 6.33683 6.87507 6.42325 6.76839 6.42325C6.66171 6.42325 6.57547 6.33683 6.57547 6.23034V6.2151C6.02992 6.1335 5.83084 5.72472 5.82196 5.70543C5.77702 5.60898 5.81868 5.494 5.91514 5.44905C6.0116 5.40391 6.12638 5.44558 6.17152 5.54223C6.17576 5.55072 6.28418 5.75347 6.57547 5.82099V5.25228C6.13004 5.19132 5.80383 4.92241 5.80383 4.59041C5.80383 4.25841 6.13004 3.98949 6.57547 3.92853V3.91522C6.57547 3.80873 6.66171 3.72231 6.76839 3.72231C6.87507 3.72231 6.9613 3.80873 6.9613 3.91522V3.93046C7.50685 4.01206 7.70593 4.42084 7.71481 4.44013C7.75975 4.53658 7.71809 4.65156 7.62163 4.69651C7.52595 4.74126 7.41194 4.70037 7.36622 4.60526C7.35946 4.59195 7.25028 4.39152 6.9613 4.32457V4.89328C7.40673 4.95424 7.73294 5.22315 7.73294 5.55515C7.73294 5.88715 7.40673 6.15607 6.9613 6.21703Z" fill="white"/>
<path d="M3.39191 5.45875C3.55172 5.45875 3.68127 5.28601 3.68127 5.07293C3.68127 4.85984 3.55172 4.6871 3.39191 4.6871C3.23209 4.6871 3.10254 4.85984 3.10254 5.07293C3.10254 5.28601 3.23209 5.45875 3.39191 5.45875Z" fill="white"/>
<path d="M2.66907 3.01073C2.52786 3.16796 2.34132 3.2756 2.13818 3.31804V6.82806C2.34267 6.87146 2.52825 6.97853 2.66753 7.13363C2.78154 7.26365 2.85736 7.41701 2.88976 7.58079H4.83894V2.56511H2.88996C2.85871 2.72638 2.7827 2.8811 2.66907 3.01073ZM3.3921 4.30131C3.76442 4.30131 4.06729 4.64739 4.06729 5.07295C4.06729 5.49851 3.76442 5.8446 3.3921 5.8446C3.01979 5.8446 2.71692 5.49851 2.71692 5.07295C2.71692 4.64739 3.01979 4.30131 3.3921 4.30131Z" fill="white"/>
<path d="M1.36719 10.2815H4.83958V10.6673H1.36719V10.2815Z" fill="white"/>
<path d="M1.36719 9.50984H4.83958V9.89566H1.36719V9.50984Z" fill="white"/>
<path d="M1.36719 8.7382H4.83958V9.12403H1.36719V8.7382Z" fill="white"/>
<path d="M11.398 6.82806V3.31785C11.1935 3.27464 11.0081 3.16738 10.8687 3.01228C10.7547 2.88225 10.6788 2.72908 10.6464 2.56511H8.69727V7.58079H10.6462C10.6775 7.41952 10.7537 7.26481 10.8673 7.13517C11.0085 6.97795 11.1951 6.8705 11.3982 6.82786L11.398 6.82806ZM10.1441 5.8446C9.77178 5.8446 9.46891 5.49851 9.46891 5.07295C9.46891 4.64739 9.77178 4.30131 10.1441 4.30131C10.5164 4.30131 10.8193 4.64739 10.8193 5.07295C10.8193 5.49851 10.5164 5.8446 10.1441 5.8446Z" fill="white"/>
<path d="M8.69727 10.2815H12.1697V10.6673H8.69727V10.2815Z" fill="white"/>
<path d="M10.1439 5.45875C10.3037 5.45875 10.4332 5.28601 10.4332 5.07293C10.4332 4.85984 10.3037 4.6871 10.1439 4.6871C9.98405 4.6871 9.85449 4.85984 9.85449 5.07293C9.85449 5.28601 9.98405 5.45875 10.1439 5.45875Z" fill="white"/>
<path d="M8.69727 9.50984H12.1697V9.89566H8.69727V9.50984Z" fill="white"/>
<path d="M8.69727 8.7382H12.1697V9.12403H8.69727V8.7382Z" fill="white"/>
<path d="M8.69727 8.3524H12.1697V1.79343H8.69727V2.17925H10.69C10.8534 2.17925 10.9917 2.29557 11.0189 2.4555C11.0352 2.56912 11.0826 2.67117 11.1573 2.75605C11.2474 2.85656 11.3714 2.92446 11.5055 2.94549C11.6629 2.96787 11.7838 3.10889 11.7838 3.27305V6.87277C11.7838 7.03694 11.6629 7.17776 11.5024 7.20072C11.3714 7.22136 11.2474 7.28927 11.1557 7.39112C11.0826 7.47446 11.0352 7.5767 11.0199 7.68473C10.9917 7.85006 10.8534 7.96638 10.69 7.96638H8.69727V8.3524Z" fill="white"/>
</g>
<defs>
<clipPath id="clip0_4018_17">
<rect width="11.5747" height="11.5747" fill="white" transform="translate(0.981445 0.443069)"/>
</clipPath>
</defs>
</svg>
