<svg width="18" height="18" viewBox="0 0 18 18" fill="none" xmlns="http://www.w3.org/2000/svg">
<rect x="0.492188" y="0.508789" width="17.193" height="17.193" rx="8.59649" fill="#F7931A"/>
<path fill-rule="evenodd" clip-rule="evenodd" d="M12.5097 8.21314C12.6525 7.25664 11.9243 6.74245 10.9284 6.39943L11.2515 5.10372L10.4626 4.90717L10.1481 6.16872C9.94095 6.11706 9.72799 6.06831 9.51638 6.02002L9.83312 4.75015L9.04487 4.55359L8.72162 5.84884C8.55 5.80976 8.38152 5.77112 8.21798 5.73046L8.21888 5.72642L7.13119 5.45483L6.92138 6.29722C6.92138 6.29722 7.50656 6.43132 7.49421 6.43964C7.81364 6.51938 7.8716 6.73076 7.86171 6.89834L7.49376 8.37443C7.51577 8.38004 7.5443 8.38813 7.57575 8.40071L7.49263 8.38004L6.97664 10.4478C6.93756 10.5449 6.83849 10.6904 6.6152 10.6352C6.62307 10.6466 6.04193 10.4921 6.04193 10.4921L5.65039 11.3951L6.67698 11.651C6.79286 11.68 6.90734 11.7099 7.02056 11.7394C7.09387 11.7585 7.16672 11.7776 7.23902 11.7961L6.91262 13.1068L7.70042 13.3034L8.0239 12.0068C8.23888 12.0652 8.44779 12.1191 8.65221 12.1699L8.33008 13.4604L9.11878 13.657L9.44517 12.3489C10.7901 12.6034 11.8016 12.5008 12.2268 11.2846C12.5699 10.3052 12.21 9.74022 11.5024 9.37159C12.0177 9.25231 12.4061 8.91333 12.5097 8.21314ZM10.708 10.7401C10.4841 11.639 9.07678 11.2671 8.43344 11.0971C8.37582 11.0818 8.32434 11.0682 8.28038 11.0573L8.71348 9.32107C8.76721 9.33448 8.83286 9.34922 8.90722 9.3659C9.57279 9.51526 10.9366 9.82133 10.708 10.7401ZM9.0413 8.5602C9.57811 8.70342 10.7482 9.01558 10.9521 8.19899C11.1605 7.36358 10.0226 7.11179 9.46695 6.98882C9.40448 6.97499 9.34937 6.9628 9.30435 6.95158L8.91168 8.52628C8.94884 8.53554 8.99245 8.54717 9.0413 8.5602Z" fill="white"/>
</svg>
