<svg width="20" height="20" viewBox="0 0 20 20" fill="none" xmlns="http://www.w3.org/2000/svg">
<path fill-rule="evenodd" clip-rule="evenodd" d="M1.66911 8.16675H18.3306C18.3161 6.46018 18.2213 5.51939 17.6009 4.89898C16.8687 4.16675 15.6902 4.16675 13.3332 4.16675H6.6665C4.30948 4.16675 3.13097 4.16675 2.39874 4.89898C1.77833 5.51939 1.68358 6.46018 1.66911 8.16675ZM18.3332 10.1667H1.6665V11.6667C1.6665 14.0238 1.6665 15.2023 2.39874 15.9345C3.13097 16.6667 4.30948 16.6667 6.6665 16.6667H13.3332C15.6902 16.6667 16.8687 16.6667 17.6009 15.9345C18.3332 15.2023 18.3332 14.0238 18.3332 11.6667V10.1667ZM5.83317 12.3334C5.28089 12.3334 4.83317 12.7811 4.83317 13.3334C4.83317 13.8857 5.28089 14.3334 5.83317 14.3334H5.8415C6.39379 14.3334 6.8415 13.8857 6.8415 13.3334C6.8415 12.7811 6.39379 12.3334 5.8415 12.3334H5.83317Z" fill="#193517"/>
</svg>
