<svg width="13" height="12" viewBox="0 0 13 12" fill="none" xmlns="http://www.w3.org/2000/svg">
<path fill-rule="evenodd" clip-rule="evenodd" d="M6.52615 0.938614C3.47624 0.938614 0.999832 3.41502 0.999832 6.46493C0.999832 9.51484 3.47624 11.9912 6.52615 11.9912C9.57606 11.9912 12.0525 9.51484 12.0525 6.46493C12.0525 3.41502 9.57606 0.938614 6.52615 0.938614ZM7.14018 6.21072L8.80237 7.87291C9.04185 8.11239 9.04185 8.50169 8.80237 8.74116C8.5629 8.98063 8.1736 8.98063 7.93413 8.74116L6.09202 6.89905C5.97659 6.78423 5.91211 6.62765 5.91211 6.46493V4.00879C5.91211 3.66984 6.1872 3.39475 6.52615 3.39475C6.86509 3.39475 7.14018 3.66984 7.14018 4.00879V6.21072ZM1.44869 1.97203L2.0222 1.358C2.25369 1.10993 2.24018 0.721245 1.99273 0.489754C1.74466 0.258263 1.35597 0.271771 1.12448 0.519228L0.550972 1.13326C0.319481 1.38133 0.33299 1.77002 0.580446 2.00151C0.828516 2.233 1.2172 2.21949 1.44869 1.97203ZM11.0043 1.37274L11.6183 1.98677C11.8578 2.22625 12.2471 2.22625 12.4866 1.98677C12.7261 1.7473 12.7261 1.358 12.4866 1.11853L11.8726 0.504491C11.6331 0.265017 11.2438 0.265017 11.0043 0.504491C10.7648 0.743964 10.7648 1.13326 11.0043 1.37274Z" fill="#5A5A5A"/>
</svg>
