<svg width="11" height="11" viewBox="0 0 11 11" fill="none" xmlns="http://www.w3.org/2000/svg">
<path fill-rule="evenodd" clip-rule="evenodd" d="M9.86295 8.66407L9.51354 8.31466V10.0642C9.51354 10.2653 9.35051 10.4283 9.14941 10.4283C8.94832 10.4283 8.78529 10.2653 8.78529 10.0642V8.31466L8.43587 8.66407C8.29367 8.80627 8.06315 8.80627 7.92095 8.66407C7.77875 8.52187 7.77875 8.29135 7.92095 8.14915L8.54865 7.52145C8.88045 7.18961 9.41838 7.18961 9.75017 7.52145L10.3779 8.14915C10.5201 8.29135 10.5201 8.52187 10.3779 8.66407C10.2357 8.80627 10.0052 8.80627 9.86295 8.66407Z" fill="white"/>
<path fill-rule="evenodd" clip-rule="evenodd" d="M8.69525 0.839691C9.76776 0.839691 10.6372 1.70915 10.6372 2.78169V6.18019C10.6372 6.44833 10.4199 6.66569 10.1517 6.66569H8.69525C7.62273 6.66569 6.75325 7.53517 6.75325 8.60769V9.09319C6.75325 9.36133 6.53589 9.57869 6.26775 9.57869H2.86925C1.79671 9.57869 0.927246 8.70921 0.927246 7.63669V6.90844H2.86925C3.80772 6.90844 4.5685 6.14766 4.5685 5.20919C4.5685 4.27072 3.80772 3.50994 2.86925 3.50994H0.927246V2.78169C0.927246 1.70915 1.79671 0.839691 2.86925 0.839691H8.69525ZM3.84025 5.20919C3.84025 4.67292 3.40551 4.23819 2.86925 4.23819H0.927246V6.18019H2.86925C3.40551 6.18019 3.84025 5.74547 3.84025 5.20919Z" fill="white"/>
</svg>
