<svg width="13" height="12" viewBox="0 0 13 12" fill="none" xmlns="http://www.w3.org/2000/svg">
<g clip-path="url(#clip0_4018_46)">
<path d="M8.13247 6.72211L6.68563 8.16894L7.83297 9.31628L7.15103 9.99822L6.74013 9.58732L6.04613 10.2813C5.65838 10.6686 5.15006 10.862 4.64126 10.862C4.13246 10.862 3.62414 10.6686 3.23687 10.2813L3.22336 10.2678L1.68731 11.8039L1.00537 11.1214L2.54142 9.58539L2.52792 9.57188C1.75387 8.79783 1.75387 7.53716 2.52792 6.76262L3.22192 6.06862L2.81102 5.65772L3.49296 4.97578L4.6403 6.12312L6.08713 4.67629L6.76907 5.35823L5.32224 6.80506L6.00418 7.487L7.45101 6.04017L8.13295 6.72211H8.13247ZM10.9962 2.49446L12.5352 0.955515L11.8532 0.273575L10.3143 1.81252L10.3008 1.79902C9.52673 1.02496 8.26654 1.02496 7.49152 1.79902L6.79752 2.49302L6.38662 2.08212L5.70468 2.76406L10.0452 7.10455L10.7271 6.42261L10.3162 6.01171L11.0102 5.31771C11.7843 4.54318 11.7843 3.2825 11.0102 2.50845L10.9967 2.49494L10.9962 2.49446Z" fill="white"/>
</g>
<defs>
<clipPath id="clip0_4018_46">
<rect width="11.5747" height="11.5747" fill="white" transform="translate(0.981445 0.253021)"/>
</clipPath>
</defs>
</svg>
