<svg width="13" height="13" viewBox="0 0 13 13" fill="none" xmlns="http://www.w3.org/2000/svg">
<path d="M11.6132 10.5439C11.6132 10.883 11.3383 11.1579 10.9991 11.1579H2.40265C2.06353 11.1579 1.78862 10.883 1.78862 10.5439V1.94736C1.78862 1.60824 2.06353 1.33333 2.40265 1.33333H6.7009C7.04003 1.33333 7.31493 1.05841 7.31493 0.71929C7.31493 0.380171 7.04003 0.105255 6.7009 0.105255H2.40265C1.38528 0.105255 0.560547 0.929996 0.560547 1.94736V10.5439C0.560547 11.5612 1.38529 12.386 2.40265 12.386H10.9991C12.0165 12.386 12.8412 11.5612 12.8412 10.5439V6.24561C12.8412 5.90647 12.5663 5.63157 12.2272 5.63157C11.8881 5.63157 11.6132 5.90647 11.6132 6.24561V10.5439Z" fill="#5A5A5A"/>
<path d="M10.7392 0.2851C10.4994 0.0453069 10.1106 0.0453069 9.87085 0.2851L4.74498 5.41095C4.65103 5.5049 4.59009 5.62678 4.5713 5.75831L4.25093 8.00089C4.2236 8.19222 4.28795 8.38521 4.42461 8.5219C4.56127 8.65858 4.75431 8.72293 4.94564 8.69554L7.1882 8.3752C7.31972 8.35641 7.44161 8.2955 7.53556 8.20155L12.6614 3.07567C12.7766 2.96052 12.8412 2.80434 12.8412 2.64148C12.8412 2.47864 12.7766 2.32245 12.6614 2.2073L10.7392 0.2851Z" fill="#5A5A5A"/>
</svg>
