<svg width="21" height="20" viewBox="0 0 21 20" fill="none" xmlns="http://www.w3.org/2000/svg">
<path d="M5.27796 0.179718H16.2726C17.4369 0.179718 18.5536 0.642259 19.3769 1.46559C20.2003 2.28891 20.6628 3.40559 20.6628 4.56995V15.43C20.6628 16.5944 20.2003 17.7111 19.3769 18.5344C18.5536 19.3577 17.4369 19.8203 16.2725 19.8203H5.27793C4.70139 19.8203 4.1305 19.7067 3.59786 19.4861C3.06521 19.2655 2.58123 18.9421 2.17356 18.5344C1.76589 18.1267 1.44251 17.6428 1.22188 17.1101C1.00125 16.5775 0.887695 16.0066 0.887695 15.43V4.56999C0.887695 3.40562 1.35024 2.28893 2.17358 1.4656C2.99691 0.642263 4.11359 0.179718 5.27796 0.179718Z" fill="white"/>
<path fill-rule="evenodd" clip-rule="evenodd" d="M1.4252 17.528H20.1256C19.7477 18.2202 19.1907 18.7982 18.5129 19.2014C17.8351 19.6047 17.0612 19.8184 16.2725 19.8203H5.27793C4.48925 19.8184 3.71569 19.6047 3.0379 19.2014C2.36011 18.7982 1.80312 18.2202 1.4252 17.528Z" fill="#FF4B55"/>
<path fill-rule="evenodd" clip-rule="evenodd" d="M8.35357 0.179718V9.41134H0.887695V4.56999C0.887695 2.1553 2.86331 0.179718 5.27796 0.179718H8.35357Z" fill="#41479B"/>
<path fill-rule="evenodd" clip-rule="evenodd" d="M20.1254 2.47201H9.53103V0.179718H16.2726C17.0613 0.181554 17.8349 0.395279 18.5127 0.798536C19.1905 1.20179 19.7475 1.77977 20.1254 2.47201Z" fill="#FF4B55"/>
<path fill-rule="evenodd" clip-rule="evenodd" d="M0.887695 14.0584H20.6628V15.43C20.6628 15.7395 20.6299 16.0481 20.5647 16.3506H0.985798C0.920557 16.0481 0.887671 15.7395 0.887695 15.43L0.887695 14.0584Z" fill="#FF4B55"/>
<path d="M0.887695 10.5887H20.6628V12.881H0.887695V10.5887Z" fill="#FF4B55"/>
<path d="M9.53103 7.119H20.6629V9.41137H9.53103V7.119Z" fill="#FF4B55"/>
<path fill-rule="evenodd" clip-rule="evenodd" d="M20.6629 5.94165H9.53103V3.64936H20.5648C20.63 3.95189 20.6628 4.26046 20.6628 4.56995L20.6629 5.94165Z" fill="#FF4B55"/>
<path fill-rule="evenodd" clip-rule="evenodd" d="M7.35468 0.351891L7.48959 0.769794C7.49056 0.773013 7.49256 0.775826 7.49528 0.777805C7.498 0.779785 7.50129 0.780824 7.50465 0.780763L7.9438 0.779875C7.94713 0.779871 7.95038 0.780925 7.95308 0.782886C7.95578 0.784846 7.95778 0.787611 7.95881 0.790784C7.95984 0.793957 7.95983 0.797373 7.95879 0.800542C7.95775 0.803711 7.95574 0.806468 7.95303 0.808418L7.59727 1.06588C7.59453 1.06781 7.59249 1.07058 7.59145 1.07377C7.59042 1.07696 7.59046 1.0804 7.59155 1.08357L7.72809 1.50089C7.72912 1.50406 7.72912 1.50747 7.72809 1.51063C7.72706 1.5138 7.72505 1.51656 7.72236 1.51851C7.71967 1.52047 7.71642 1.52152 7.71309 1.52152C7.70977 1.52152 7.70652 1.52046 7.70383 1.51851L7.349 1.25973C7.34632 1.25772 7.34306 1.25663 7.33971 1.25663C7.33636 1.25663 7.3331 1.25772 7.33042 1.25973L6.97563 1.51851C6.97294 1.52046 6.9697 1.52152 6.96637 1.52152C6.96304 1.52152 6.9598 1.52047 6.9571 1.51851C6.95441 1.51656 6.9524 1.5138 6.95138 1.51063C6.95035 1.50747 6.95035 1.50406 6.95137 1.50089L7.08787 1.08349C7.08896 1.08032 7.089 1.07688 7.08797 1.07369C7.08694 1.0705 7.0849 1.06773 7.08215 1.0658L6.72636 0.80834C6.72365 0.806389 6.72163 0.803628 6.72059 0.800456C6.71955 0.797283 6.71955 0.793863 6.72058 0.790689C6.72161 0.787514 6.72362 0.784749 6.72633 0.782791C6.72903 0.780834 6.73229 0.779786 6.73562 0.779798L7.17477 0.780686C7.17813 0.780738 7.18141 0.779695 7.18412 0.777716C7.18683 0.775737 7.18882 0.772929 7.1898 0.769717L7.32471 0.351891C7.32572 0.348707 7.32771 0.345927 7.33041 0.343954C7.3331 0.341981 7.33635 0.340918 7.33969 0.340918C7.34303 0.340918 7.34628 0.341981 7.34898 0.343954C7.35167 0.345927 7.35367 0.348707 7.35468 0.351891Z" fill="white"/>
<path fill-rule="evenodd" clip-rule="evenodd" d="M6.04051 1.29472L6.17542 1.71267C6.17641 1.71588 6.17841 1.71868 6.18113 1.72065C6.18384 1.72263 6.18713 1.72366 6.19049 1.7236L6.62963 1.72275C6.63297 1.72273 6.63623 1.72377 6.63893 1.72573C6.64163 1.72768 6.64365 1.73045 6.64467 1.73362C6.6457 1.7368 6.64569 1.74022 6.64465 1.74339C6.6436 1.74656 6.64158 1.74931 6.63887 1.75125L6.28314 2.00883C6.28039 2.01075 6.27835 2.01352 6.27731 2.01671C6.27627 2.0199 6.2763 2.02335 6.27739 2.02652L6.41392 2.44392C6.41496 2.44709 6.41497 2.45051 6.41395 2.45368C6.41292 2.45685 6.41092 2.45962 6.40822 2.46158C6.40553 2.46354 6.40228 2.4646 6.39894 2.4646C6.39561 2.4646 6.39236 2.46354 6.38967 2.46157L6.03484 2.2028C6.03216 2.20078 6.0289 2.19969 6.02555 2.19969C6.0222 2.19969 6.01894 2.20078 6.01626 2.2028L5.66147 2.46157C5.65877 2.46354 5.65552 2.4646 5.65219 2.4646C5.64885 2.4646 5.64561 2.46354 5.64291 2.46158C5.64021 2.45962 5.63821 2.45685 5.63718 2.45368C5.63616 2.45051 5.63617 2.44709 5.63721 2.44392L5.7737 2.02652C5.7748 2.02335 5.77484 2.01991 5.7738 2.01672C5.77277 2.01353 5.77073 2.01076 5.76799 2.00883L5.41219 1.75137C5.4095 1.74941 5.4075 1.74665 5.40647 1.74349C5.40544 1.74032 5.40544 1.73691 5.40647 1.73375C5.4075 1.73058 5.4095 1.72783 5.4122 1.72587C5.41489 1.72392 5.41813 1.72286 5.42146 1.72286L5.86061 1.72371C5.86396 1.72377 5.86724 1.72273 5.86995 1.72076C5.87266 1.71879 5.87465 1.71599 5.87563 1.71278L6.01058 1.29484C6.01161 1.29168 6.01361 1.28892 6.01631 1.28696C6.019 1.28501 6.02224 1.28395 6.02557 1.28395C6.02889 1.28395 6.03214 1.28501 6.03483 1.28696C6.03752 1.28892 6.03948 1.29156 6.04051 1.29472Z" fill="white"/>
<path fill-rule="evenodd" clip-rule="evenodd" d="M4.72661 2.23768L4.86152 2.65558C4.8625 2.65879 4.8645 2.6616 4.86722 2.66357C4.86994 2.66554 4.87322 2.66657 4.87658 2.66651L5.31573 2.66566C5.31907 2.66565 5.32232 2.6667 5.32502 2.66866C5.32773 2.67061 5.32974 2.67338 5.33077 2.67655C5.3318 2.67973 5.3318 2.68315 5.33076 2.68632C5.32972 2.68949 5.32771 2.69225 5.325 2.6942L4.9692 2.95167C4.96646 2.95359 4.96441 2.95635 4.96338 2.95953C4.96234 2.96272 4.96236 2.96615 4.96344 2.96932L5.09998 3.38672C5.10102 3.38989 5.10103 3.3933 5.1 3.39648C5.09898 3.39965 5.09698 3.40242 5.09428 3.40438C5.09158 3.40634 5.08833 3.4074 5.085 3.4074C5.08167 3.40739 5.07842 3.40634 5.07572 3.40437L4.72089 3.14559C4.71821 3.14358 4.71495 3.14249 4.7116 3.14249C4.70825 3.14249 4.70499 3.14358 4.70231 3.14559L4.34752 3.40437C4.34483 3.40634 4.34158 3.40739 4.33824 3.4074C4.33491 3.4074 4.33166 3.40634 4.32896 3.40438C4.32627 3.40242 4.32426 3.39965 4.32324 3.39648C4.32221 3.3933 4.32222 3.38989 4.32326 3.38672L4.46011 2.96932C4.46119 2.96615 4.46122 2.96272 4.46019 2.95954C4.45916 2.95636 4.45713 2.95359 4.45439 2.95167L4.09859 2.6942C4.09588 2.69225 4.09387 2.68949 4.09283 2.68632C4.09179 2.68315 4.09179 2.67973 4.09282 2.67655C4.09385 2.67338 4.09586 2.67061 4.09857 2.66866C4.10127 2.6667 4.10452 2.66565 4.10786 2.66566L4.54701 2.66651C4.55036 2.66657 4.55364 2.66553 4.55635 2.66356C4.55906 2.66159 4.56105 2.65879 4.56203 2.65558L4.69698 2.23768C4.69799 2.23449 4.69999 2.23171 4.70268 2.22974C4.70538 2.22777 4.70863 2.2267 4.71197 2.2267C4.71531 2.2267 4.71856 2.22777 4.72126 2.22974C4.72395 2.23171 4.7256 2.23449 4.72661 2.23768Z" fill="white"/>
<path fill-rule="evenodd" clip-rule="evenodd" d="M3.41325 3.18059L3.54816 3.59853C3.54914 3.60173 3.55114 3.60453 3.55385 3.6065C3.55656 3.60848 3.55983 3.60951 3.56319 3.60946L4.00237 3.60861C4.0057 3.60861 4.00894 3.60966 4.01163 3.61162C4.01433 3.61357 4.01633 3.61633 4.01736 3.61949C4.01839 3.62266 4.01839 3.62607 4.01736 3.62923C4.01634 3.6324 4.01433 3.63516 4.01164 3.63711L3.65584 3.89458C3.6531 3.8965 3.65106 3.89927 3.65003 3.90247C3.649 3.90566 3.64903 3.9091 3.65013 3.91227L3.78662 4.32967C3.78766 4.33284 3.78767 4.33625 3.78665 4.33943C3.78562 4.3426 3.78362 4.34537 3.78092 4.34733C3.77823 4.34929 3.77498 4.35035 3.77164 4.35034C3.76831 4.35034 3.76506 4.34928 3.76237 4.34732L3.40753 4.08854C3.40486 4.08654 3.40161 4.08545 3.39826 4.08545C3.39492 4.08545 3.39167 4.08654 3.38899 4.08854L3.03416 4.34732C3.03147 4.34928 3.02822 4.35034 3.02489 4.35034C3.02155 4.35035 3.0183 4.34929 3.01561 4.34733C3.01291 4.34537 3.01091 4.3426 3.00988 4.33943C3.00886 4.33625 3.00887 4.33284 3.00991 4.32967L3.1464 3.91227C3.1475 3.9091 3.14753 3.90566 3.1465 3.90247C3.14547 3.89927 3.14343 3.8965 3.14069 3.89458L2.78489 3.63711C2.7822 3.63516 2.78019 3.6324 2.77917 3.62923C2.77814 3.62607 2.77814 3.62266 2.77917 3.61949C2.7802 3.61633 2.7822 3.61357 2.7849 3.61162C2.78759 3.60966 2.79083 3.60861 2.79416 3.60861L3.2333 3.60946C3.23666 3.60952 3.23995 3.60849 3.24267 3.60652C3.24538 3.60454 3.24739 3.60174 3.24837 3.59853L3.38324 3.18059C3.38428 3.17743 3.38629 3.17468 3.38898 3.17273C3.39168 3.17078 3.39492 3.16973 3.39825 3.16973C3.40157 3.16973 3.40481 3.17078 3.40751 3.17273C3.4102 3.17468 3.41221 3.17743 3.41325 3.18059Z" fill="white"/>
<path fill-rule="evenodd" clip-rule="evenodd" d="M2.09965 4.12353L2.23456 4.54143C2.23554 4.54464 2.23754 4.54744 2.24025 4.54941C2.24296 4.55138 2.24624 4.55242 2.24959 4.55236L2.68873 4.55151C2.69208 4.55149 2.69534 4.55254 2.69805 4.55449C2.70076 4.55645 2.70278 4.55921 2.70381 4.56239C2.70485 4.56556 2.70485 4.56899 2.70381 4.57216C2.70277 4.57534 2.70075 4.5781 2.69804 4.58006L2.34225 4.83752C2.33951 4.83945 2.33747 4.84221 2.33644 4.84539C2.33541 4.84858 2.33544 4.85201 2.33653 4.85517L2.47302 5.2725C2.47405 5.27566 2.47405 5.27907 2.47302 5.28224C2.47199 5.2854 2.46999 5.28816 2.46729 5.29011C2.4646 5.29207 2.46136 5.29312 2.45803 5.29312C2.4547 5.29312 2.45146 5.29207 2.44877 5.29011L2.09394 5.03133C2.09126 5.02932 2.088 5.02823 2.08465 5.02823C2.0813 5.02823 2.07804 5.02932 2.07536 5.03133L1.72057 5.29011C1.71787 5.29207 1.71463 5.29312 1.7113 5.29312C1.70797 5.29312 1.70473 5.29207 1.70204 5.29011C1.69935 5.28816 1.69734 5.2854 1.69631 5.28224C1.69528 5.27907 1.69528 5.27566 1.69631 5.2725L1.8328 4.85536C1.83389 4.8522 1.83392 4.84877 1.83289 4.84558C1.83186 4.8424 1.82982 4.83964 1.82709 4.83771L1.47129 4.58025C1.46858 4.5783 1.46656 4.57554 1.46553 4.57237C1.46449 4.56919 1.46449 4.56577 1.46552 4.5626C1.46655 4.55942 1.46856 4.55666 1.47126 4.5547C1.47397 4.55274 1.47722 4.5517 1.48056 4.55171L1.91971 4.55256C1.92306 4.55262 1.92635 4.55159 1.92907 4.54961C1.93179 4.54764 1.93379 4.54484 1.93477 4.54163L2.06968 4.12372C2.07069 4.12054 2.07269 4.11776 2.07538 4.11579C2.07807 4.11381 2.08133 4.11275 2.08467 4.11275C2.08801 4.11275 2.09126 4.11381 2.09395 4.11579C2.09665 4.11776 2.09864 4.12035 2.09965 4.12353Z" fill="white"/>
<path fill-rule="evenodd" clip-rule="evenodd" d="M0.887695 5.38207L0.920718 5.48439C0.921698 5.48759 0.923694 5.49039 0.926404 5.49236C0.929114 5.49434 0.932392 5.49537 0.935743 5.49532L1.37489 5.49443C1.37823 5.49441 1.38149 5.49545 1.3842 5.49741C1.38691 5.49936 1.38893 5.50212 1.38997 5.5053C1.391 5.50848 1.391 5.5119 1.38996 5.51508C1.38893 5.51825 1.38691 5.52102 1.3842 5.52297L1.0284 5.78044C1.02566 5.78236 1.02361 5.78513 1.02258 5.78832C1.02155 5.79151 1.02159 5.79495 1.02268 5.79812L1.15918 6.21553C1.16022 6.21869 1.16023 6.22211 1.1592 6.22528C1.15818 6.22846 1.15618 6.23122 1.15348 6.23319C1.15078 6.23515 1.14753 6.2362 1.1442 6.2362C1.14087 6.2362 1.13762 6.23514 1.13492 6.23318L0.887695 6.05269V5.38207Z" fill="white"/>
<path fill-rule="evenodd" clip-rule="evenodd" d="M4.84925 0.366716L4.98416 0.784659C4.98514 0.787864 4.98714 0.790663 4.98985 0.792635C4.99256 0.794607 4.99584 0.795643 4.99919 0.795589L5.43833 0.794739C5.44166 0.794739 5.4449 0.795792 5.4476 0.797747C5.45029 0.799702 5.45229 0.80246 5.45332 0.805624C5.45435 0.808789 5.45435 0.812198 5.45332 0.815363C5.4523 0.818528 5.45029 0.821286 5.4476 0.823243L5.09181 1.08071C5.08906 1.08263 5.08702 1.0854 5.08599 1.08859C5.08496 1.09179 5.08499 1.09523 5.08609 1.0984L5.22258 1.5158C5.22362 1.51897 5.22363 1.52238 5.22261 1.52555C5.22158 1.52873 5.21958 1.53149 5.21688 1.53346C5.21419 1.53542 5.21094 1.53648 5.2076 1.53647C5.20427 1.53647 5.20102 1.53541 5.19833 1.53345L4.84353 1.27467C4.84086 1.27266 4.8376 1.27157 4.83425 1.27157C4.83089 1.27157 4.82763 1.27266 4.82496 1.27467L4.47012 1.53345C4.46743 1.53541 4.46418 1.53647 4.46085 1.53647C4.45751 1.53648 4.45426 1.53542 4.45157 1.53346C4.44887 1.53149 4.44687 1.52873 4.44584 1.52555C4.44482 1.52238 4.44483 1.51897 4.44587 1.5158L4.5824 1.0984C4.5835 1.09522 4.58352 1.09178 4.58249 1.08859C4.58145 1.0854 4.5794 1.08263 4.57665 1.08071L4.22093 0.823089C4.21821 0.821145 4.21618 0.818387 4.21514 0.815214C4.2141 0.812042 4.21409 0.808619 4.21513 0.805443C4.21616 0.802266 4.21818 0.799502 4.22089 0.797549C4.2236 0.795597 4.22686 0.794559 4.2302 0.794585L4.66934 0.795435C4.6727 0.795489 4.67597 0.794452 4.67868 0.79248C4.68139 0.790509 4.68339 0.787709 4.68437 0.784504L4.81928 0.366562C4.8203 0.363383 4.8223 0.360611 4.825 0.358644C4.82769 0.356677 4.83095 0.355617 4.83428 0.355617C4.83762 0.355617 4.84087 0.356677 4.84357 0.358644C4.84627 0.360611 4.84823 0.363538 4.84925 0.366716Z" fill="white"/>
<path fill-rule="evenodd" clip-rule="evenodd" d="M3.36819 1.24768L3.5031 1.66563C3.50408 1.66883 3.50608 1.67163 3.50879 1.6736C3.5115 1.67557 3.51477 1.67661 3.51813 1.67656L3.95731 1.67571C3.96064 1.67571 3.96388 1.67676 3.96657 1.67871C3.96927 1.68067 3.97127 1.68343 3.9723 1.68659C3.97333 1.68976 3.97333 1.69317 3.9723 1.69633C3.97127 1.6995 3.96927 1.70225 3.96658 1.70421L3.61063 1.96167C3.60788 1.9636 3.60584 1.96637 3.60481 1.96956C3.60378 1.97275 3.60382 1.97619 3.60491 1.97936L3.74156 2.39676C3.7426 2.39993 3.74261 2.40335 3.74159 2.40652C3.74056 2.4097 3.73856 2.41246 3.73586 2.41442C3.73317 2.41639 3.72992 2.41744 3.72658 2.41744C3.72325 2.41744 3.72 2.41638 3.71731 2.41442L3.36247 2.15564C3.3598 2.15363 3.35654 2.15254 3.35318 2.15254C3.34983 2.15254 3.34657 2.15363 3.3439 2.15564L2.9891 2.41442C2.98641 2.41638 2.98316 2.41744 2.97983 2.41744C2.97649 2.41744 2.97324 2.41639 2.97055 2.41442C2.96785 2.41246 2.96585 2.4097 2.96482 2.40652C2.9638 2.40335 2.96381 2.39993 2.96485 2.39676L3.10134 1.97936C3.10244 1.97619 3.10247 1.97275 3.10144 1.96956C3.10041 1.96637 3.09837 1.9636 3.09563 1.96167L2.73983 1.70421C2.73714 1.70225 2.73513 1.6995 2.73411 1.69633C2.73308 1.69317 2.73308 1.68976 2.73411 1.68659C2.73514 1.68343 2.73714 1.68067 2.73983 1.67871C2.74253 1.67676 2.74577 1.67571 2.7491 1.67571L3.18824 1.67656C3.19159 1.67659 3.19487 1.67554 3.19758 1.67358C3.20029 1.67161 3.2023 1.66882 3.20331 1.66563L3.33818 1.24768C3.3392 1.24451 3.3412 1.24173 3.3439 1.23977C3.34659 1.2378 3.34985 1.23674 3.35318 1.23674C3.35652 1.23674 3.35977 1.2378 3.36247 1.23977C3.36517 1.24173 3.36717 1.24451 3.36819 1.24768Z" fill="white"/>
<path fill-rule="evenodd" clip-rule="evenodd" d="M1.88723 2.12856L2.02214 2.5465C2.02312 2.54971 2.02511 2.55251 2.02782 2.55448C2.03053 2.55645 2.03381 2.55749 2.03716 2.55743L2.47631 2.55655C2.47965 2.55653 2.4829 2.55758 2.4856 2.55954C2.48831 2.5615 2.49032 2.56426 2.49135 2.56744C2.49238 2.57061 2.49238 2.57403 2.49134 2.5772C2.4903 2.58038 2.48828 2.58314 2.48558 2.58509L2.12978 2.84255C2.12704 2.84448 2.12499 2.84725 2.12396 2.85044C2.12293 2.85363 2.12297 2.85707 2.12406 2.86024L2.2606 3.27764C2.26162 3.28081 2.26162 3.28422 2.26058 3.28739C2.25955 3.29056 2.25754 3.29332 2.25485 3.29528C2.25215 3.29723 2.24891 3.29829 2.24558 3.29829C2.24225 3.2983 2.239 3.29725 2.2363 3.29529L1.88151 3.03652C1.87883 3.0345 1.87557 3.03341 1.87222 3.03341C1.86887 3.03341 1.86561 3.0345 1.86293 3.03652L1.5081 3.29529C1.5054 3.29726 1.50216 3.29832 1.49882 3.29832C1.49549 3.29832 1.49224 3.29726 1.48954 3.2953C1.48685 3.29334 1.48484 3.29057 1.48382 3.2874C1.48279 3.28423 1.4828 3.28081 1.48384 3.27764L1.62038 2.86032C1.62147 2.85715 1.6215 2.8537 1.62046 2.85051C1.61942 2.84732 1.61737 2.84455 1.61462 2.84263L1.33692 2.64179C1.35093 2.61346 1.36523 2.58514 1.37983 2.55682L1.70728 2.55747C1.71063 2.55753 1.71391 2.55649 1.71662 2.55452C1.71933 2.55255 1.72132 2.54975 1.7223 2.54654L1.85714 2.12856C1.85816 2.12538 1.86016 2.12261 1.86286 2.12064C1.86555 2.11868 1.86881 2.11762 1.87214 2.11762C1.87548 2.11762 1.87873 2.11868 1.88143 2.12064C1.88413 2.12261 1.88621 2.12538 1.88723 2.12856Z" fill="white"/>
<path fill-rule="evenodd" clip-rule="evenodd" d="M2.22919 1.41886L2.2952 1.62067C2.29623 1.62384 2.29624 1.62726 2.29521 1.63043C2.29418 1.63361 2.29217 1.63637 2.28947 1.63833C2.28677 1.64029 2.28351 1.64134 2.28018 1.64133C2.27684 1.64132 2.27359 1.64026 2.2709 1.63828L2.11996 1.52824C2.15575 1.49114 2.19216 1.45468 2.22919 1.41886Z" fill="white"/>
<path fill-rule="evenodd" clip-rule="evenodd" d="M7.65093 1.91378L7.78584 2.33172C7.78682 2.33492 7.78882 2.33772 7.79153 2.3397C7.79424 2.34167 7.79751 2.3427 7.80087 2.34265L8.24001 2.3418C8.24335 2.34177 8.24661 2.34281 8.24932 2.34476C8.25203 2.34672 8.25405 2.34948 8.25508 2.35266C8.25612 2.35583 8.25611 2.35926 8.25507 2.36243C8.25402 2.3656 8.252 2.36836 8.24928 2.3703L7.89348 2.62777C7.89074 2.6297 7.8887 2.63246 7.88767 2.63566C7.88664 2.63885 7.88667 2.64229 7.88777 2.64546L8.0243 3.06286C8.02532 3.06603 8.02532 3.06944 8.02429 3.07261C8.02326 3.07577 8.02125 3.07853 8.01855 3.08049C8.01586 3.08245 8.01261 3.08351 8.00928 3.08351C8.00595 3.08351 8.00271 3.08246 8.00001 3.08051L7.64521 2.82173C7.64254 2.81972 7.63928 2.81863 7.63592 2.81863C7.63257 2.81863 7.62931 2.81972 7.62664 2.82173L7.27184 3.08051C7.26914 3.08246 7.2659 3.08351 7.26257 3.08351C7.25924 3.08351 7.25599 3.08245 7.2533 3.08049C7.2506 3.07853 7.24859 3.07577 7.24756 3.07261C7.24653 3.06944 7.24653 3.06603 7.24755 3.06286L7.38393 2.64546C7.38502 2.64228 7.38505 2.63884 7.38401 2.63565C7.38297 2.63246 7.38092 2.62969 7.37817 2.62777L7.02241 2.3703C7.01972 2.36835 7.01772 2.36559 7.01669 2.36242C7.01566 2.35926 7.01567 2.35585 7.01669 2.35269C7.01772 2.34952 7.01973 2.34676 7.02242 2.34481C7.02511 2.34285 7.02836 2.3418 7.03168 2.3418L7.47083 2.34265C7.47418 2.3427 7.47746 2.34167 7.48017 2.3397C7.48288 2.33772 7.48487 2.33492 7.48585 2.33172L7.62077 1.91378C7.6218 1.91062 7.62382 1.90787 7.62651 1.90592C7.6292 1.90397 7.63244 1.90292 7.63577 1.90292C7.6391 1.90292 7.64234 1.90397 7.64503 1.90592C7.64773 1.90787 7.64989 1.91062 7.65093 1.91378Z" fill="white"/>
<path fill-rule="evenodd" clip-rule="evenodd" d="M6.45021 3.0004L6.58512 3.41831C6.5861 3.42152 6.58811 3.42432 6.59082 3.42629C6.59354 3.42827 6.59683 3.4293 6.60018 3.42924L7.03933 3.42839C7.04267 3.42837 7.04593 3.42942 7.04863 3.43138C7.05133 3.43334 7.05335 3.4361 7.05438 3.43928C7.05541 3.44245 7.0554 3.44587 7.05437 3.44904C7.05333 3.45222 7.05131 3.45498 7.0486 3.45693L6.69288 3.71439C6.69014 3.71631 6.68809 3.71907 6.68706 3.72226C6.68602 3.72544 6.68604 3.72887 6.68713 3.73204L6.82366 4.14944C6.8247 4.15261 6.82471 4.15603 6.82369 4.1592C6.82266 4.16237 6.82066 4.16514 6.81796 4.1671C6.81526 4.16906 6.81202 4.17012 6.80868 4.17012C6.80535 4.17012 6.8021 4.16906 6.7994 4.16709L6.44457 3.90832C6.44189 3.9063 6.43863 3.90521 6.43528 3.90521C6.43193 3.90521 6.42867 3.9063 6.42599 3.90832L6.0712 4.16709C6.06851 4.16906 6.06526 4.17012 6.06192 4.17012C6.05859 4.17012 6.05534 4.16906 6.05264 4.1671C6.04995 4.16514 6.04794 4.16237 6.04692 4.1592C6.0459 4.15603 6.04591 4.15261 6.04695 4.14944L6.18344 3.73204C6.18453 3.72888 6.18456 3.72545 6.18353 3.72226C6.1825 3.71908 6.18046 3.71632 6.17772 3.71439L5.82193 3.45693C5.81922 3.45498 5.8172 3.45222 5.81616 3.44904C5.81512 3.44587 5.81512 3.44245 5.81615 3.43928C5.81718 3.4361 5.8192 3.43334 5.8219 3.43138C5.8246 3.42942 5.82786 3.42837 5.8312 3.42839L6.27034 3.42924C6.27369 3.42929 6.27697 3.42825 6.27968 3.42628C6.28239 3.42431 6.28439 3.42151 6.28537 3.41831L6.42032 3.0004C6.42133 2.99722 6.42332 2.99444 6.42602 2.99246C6.42871 2.99049 6.43196 2.98943 6.4353 2.98943C6.43864 2.98943 6.4419 2.99049 6.44459 2.99246C6.44728 2.99444 6.4492 2.99722 6.45021 3.0004Z" fill="white"/>
<path fill-rule="evenodd" clip-rule="evenodd" d="M5.14721 3.77326L5.28212 4.19116C5.2831 4.19437 5.28509 4.19718 5.2878 4.19916C5.29051 4.20114 5.29379 4.20218 5.29715 4.20213L5.73633 4.20124C5.73967 4.20123 5.74293 4.20228 5.74563 4.20423C5.74833 4.20619 5.75035 4.20896 5.75138 4.21213C5.75241 4.21531 5.75241 4.21873 5.75137 4.2219C5.75033 4.22507 5.74831 4.22783 5.7456 4.22978L5.38981 4.48725C5.38706 4.48917 5.38501 4.49194 5.38397 4.49513C5.38293 4.49832 5.38296 4.50176 5.38405 4.50494L5.52058 4.92234C5.52161 4.9255 5.52161 4.92891 5.52058 4.93208C5.51955 4.93524 5.51755 4.938 5.51486 4.93996C5.51216 4.94191 5.50892 4.94296 5.50559 4.94296C5.50226 4.94296 5.49902 4.94191 5.49633 4.93995L5.1415 4.68117C5.13882 4.67916 5.13556 4.67807 5.13221 4.67807C5.12886 4.67807 5.1256 4.67916 5.12292 4.68117L4.76813 4.93995C4.76543 4.94192 4.76219 4.94299 4.75885 4.943C4.75551 4.94301 4.75226 4.94196 4.74956 4.94C4.74686 4.93804 4.74485 4.93528 4.74382 4.9321C4.74279 4.92893 4.74279 4.92551 4.74383 4.92234L4.88036 4.50494C4.88146 4.50177 4.8815 4.49833 4.88046 4.49513C4.87943 4.49194 4.87739 4.48917 4.87465 4.48725L4.51885 4.22967C4.51614 4.22772 4.51412 4.22495 4.51309 4.22178C4.51205 4.21861 4.51205 4.21519 4.51308 4.21202C4.51411 4.20884 4.51612 4.20608 4.51882 4.20412C4.52153 4.20216 4.52478 4.20111 4.52812 4.20112L4.96727 4.20201C4.97062 4.20206 4.9739 4.20102 4.97662 4.19904C4.97933 4.19706 4.98132 4.19426 4.98229 4.19104L5.1172 3.77314C5.11822 3.76996 5.12022 3.76719 5.12292 3.76522C5.12562 3.76326 5.12887 3.7622 5.13221 3.7622C5.13555 3.7622 5.1388 3.76326 5.14149 3.76522C5.14419 3.76719 5.14619 3.77008 5.14721 3.77326Z" fill="white"/>
<path fill-rule="evenodd" clip-rule="evenodd" d="M3.95541 4.88847L4.09032 5.30637C4.09129 5.30959 4.09329 5.31239 4.096 5.31437C4.09871 5.31635 4.10199 5.31739 4.10534 5.31734L4.54449 5.31645C4.54783 5.31644 4.55108 5.31749 4.55379 5.31945C4.55649 5.3214 4.5585 5.32417 4.55954 5.32734C4.56057 5.33052 4.56056 5.33394 4.55952 5.33711C4.55849 5.34028 4.55647 5.34304 4.55376 5.345L4.198 5.60246C4.19525 5.60438 4.1932 5.60715 4.19216 5.61034C4.19113 5.61353 4.19115 5.61697 4.19225 5.62015L4.32878 6.03755C4.32981 6.04072 4.32981 6.04413 4.32878 6.04729C4.32775 6.05046 4.32574 6.05321 4.32305 6.05517C4.32036 6.05712 4.31712 6.05818 4.31379 6.05818C4.31046 6.05817 4.30722 6.05712 4.30452 6.05516L3.94969 5.79639C3.94702 5.79437 3.94375 5.79328 3.9404 5.79328C3.93705 5.79328 3.93379 5.79437 3.93111 5.79639L3.57632 6.05516C3.57363 6.05714 3.57038 6.0582 3.56705 6.05821C3.56371 6.05822 3.56046 6.05717 3.55775 6.05521C3.55505 6.05325 3.55304 6.05049 3.55201 6.04731C3.55098 6.04414 3.55099 6.04072 3.55203 6.03755L3.68856 5.62011C3.68966 5.61694 3.68969 5.6135 3.68866 5.61031C3.68763 5.60712 3.68559 5.60435 3.68284 5.60242L3.32705 5.34496C3.32434 5.34301 3.32232 5.34024 3.32128 5.33707C3.32025 5.3339 3.32024 5.33048 3.32127 5.32731C3.3223 5.32413 3.32432 5.32137 3.32702 5.31941C3.32972 5.31745 3.33298 5.3164 3.33632 5.31641L3.77546 5.3173C3.77882 5.31735 3.7821 5.31631 3.78481 5.31433C3.78752 5.31235 3.78951 5.30955 3.79049 5.30633L3.9254 4.88843C3.92642 4.88525 3.92842 4.88248 3.93112 4.88051C3.93381 4.87855 3.93707 4.87749 3.9404 4.87749C3.94374 4.87749 3.94699 4.87855 3.94969 4.88051C3.95239 4.88248 3.95439 4.88529 3.95541 4.88847Z" fill="white"/>
<path fill-rule="evenodd" clip-rule="evenodd" d="M2.76033 5.95737L2.89524 6.37531C2.89622 6.37851 2.89822 6.38131 2.90093 6.38329C2.90364 6.38526 2.90692 6.38629 2.91027 6.38624L3.34941 6.38539C3.35275 6.38538 3.35599 6.38643 3.35869 6.38838C3.36139 6.39033 3.3634 6.39309 3.36444 6.39626C3.36547 6.39942 3.36547 6.40284 3.36445 6.406C3.36342 6.40917 3.36142 6.41193 3.35872 6.41389L3.00293 6.6714C3.00019 6.67332 2.99815 6.67608 2.99712 6.67927C2.99609 6.68245 2.99612 6.68588 2.99721 6.68905L3.1337 7.10645C3.13474 7.10962 3.13475 7.11303 3.13373 7.11621C3.13271 7.11938 3.1307 7.12215 3.12801 7.12411C3.12531 7.12607 3.12206 7.12713 3.11873 7.12712C3.11539 7.12712 3.11214 7.12606 3.10945 7.1241L2.75462 6.86532C2.75194 6.86331 2.74868 6.86222 2.74533 6.86222C2.74198 6.86222 2.73872 6.86331 2.73604 6.86532L2.38125 7.1241C2.37855 7.12606 2.3753 7.12712 2.37197 7.12712C2.36863 7.12713 2.36539 7.12607 2.36269 7.12411C2.35999 7.12215 2.35799 7.11938 2.35696 7.11621C2.35594 7.11303 2.35595 7.10962 2.35699 7.10645L2.49348 6.68905C2.49457 6.68588 2.4946 6.68245 2.49357 6.67927C2.49254 6.67608 2.4905 6.67332 2.48777 6.6714L2.13197 6.41389C2.12928 6.41194 2.12728 6.40918 2.12625 6.40601C2.12522 6.40285 2.12522 6.39944 2.12625 6.39627C2.12728 6.39311 2.12929 6.39035 2.13198 6.3884C2.13467 6.38644 2.13791 6.38539 2.14124 6.38539L2.58039 6.38624C2.58374 6.3863 2.58703 6.38527 2.58975 6.3833C2.59247 6.38132 2.59447 6.37852 2.59545 6.37531L2.73021 5.95737C2.73125 5.95421 2.73326 5.95146 2.73595 5.94951C2.73865 5.94756 2.74189 5.94651 2.74521 5.94651C2.74854 5.94651 2.75178 5.94756 2.75447 5.94951C2.75717 5.95146 2.75929 5.95421 2.76033 5.95737Z" fill="white"/>
<path fill-rule="evenodd" clip-rule="evenodd" d="M1.23855 7.05072L1.37342 7.46866C1.3744 7.47187 1.3764 7.47467 1.37912 7.47665C1.38184 7.47862 1.38513 7.47965 1.38848 7.47959L1.82763 7.47874C1.83097 7.47873 1.83422 7.47978 1.83693 7.48173C1.83963 7.48369 1.84164 7.48646 1.84268 7.48963C1.84371 7.4928 1.8437 7.49622 1.84266 7.4994C1.84163 7.50257 1.83961 7.50533 1.8369 7.50728L1.4811 7.76471C1.47836 7.76663 1.47632 7.7694 1.47529 7.77259C1.47426 7.77579 1.47429 7.77923 1.47539 7.7824L1.61188 8.1998C1.61292 8.20297 1.61293 8.20638 1.61191 8.20955C1.61088 8.21273 1.60888 8.21549 1.60618 8.21746C1.60349 8.21942 1.60024 8.22048 1.5969 8.22047C1.59357 8.22047 1.59032 8.21941 1.58763 8.21745L1.23283 7.95867C1.23016 7.95666 1.2269 7.95557 1.22354 7.95557C1.22019 7.95557 1.21693 7.95666 1.21426 7.95867L0.887695 8.19682V8.0392L0.971662 7.7824C0.972759 7.77923 0.972794 7.77579 0.971763 7.77259C0.970731 7.7694 0.96869 7.76663 0.965946 7.76471L0.887695 7.70808V7.47924L1.0586 7.47959C1.06195 7.47964 1.06523 7.47861 1.06794 7.47663C1.07065 7.47466 1.07265 7.47186 1.07363 7.46866L1.20854 7.05072C1.20958 7.04756 1.21159 7.04481 1.21428 7.04286C1.21698 7.04091 1.22022 7.03986 1.22354 7.03986C1.22687 7.03986 1.23011 7.04091 1.2328 7.04286C1.2355 7.04481 1.23751 7.04756 1.23855 7.05072Z" fill="white"/>
<path fill-rule="evenodd" clip-rule="evenodd" d="M7.42501 4.20317L7.55992 4.62111C7.56091 4.62432 7.56291 4.62712 7.56562 4.6291C7.56834 4.63107 7.57163 4.6321 7.57499 4.63204L8.01413 4.63119C8.01746 4.63119 8.0207 4.63224 8.0234 4.6342C8.02609 4.63615 8.02809 4.63891 8.02912 4.64208C8.03015 4.64524 8.03015 4.64865 8.02913 4.65181C8.0281 4.65498 8.02609 4.65774 8.0234 4.65969L7.66761 4.91716C7.66486 4.91909 7.66282 4.92185 7.66179 4.92505C7.66076 4.92824 7.66079 4.93168 7.66189 4.93485L7.79838 5.35225C7.79942 5.35542 7.79943 5.35883 7.79841 5.36201C7.79739 5.36518 7.79538 5.36795 7.79269 5.36991C7.78999 5.37187 7.78674 5.37293 7.78341 5.37292C7.78007 5.37292 7.77682 5.37186 7.77413 5.3699L7.41934 5.11112C7.41666 5.10911 7.4134 5.10802 7.41005 5.10802C7.4067 5.10802 7.40344 5.10911 7.40076 5.11112L7.04593 5.3699C7.04323 5.37186 7.03998 5.37292 7.03665 5.37292C7.03331 5.37293 7.03007 5.37187 7.02737 5.36991C7.02467 5.36795 7.02267 5.36518 7.02164 5.36201C7.02062 5.35883 7.02063 5.35542 7.02167 5.35225L7.15816 4.93485C7.15926 4.93168 7.1593 4.92824 7.15827 4.92505C7.15723 4.92185 7.15519 4.91909 7.15245 4.91716L6.79665 4.65969C6.79396 4.65774 6.79196 4.65498 6.79093 4.65181C6.7899 4.64865 6.7899 4.64524 6.79093 4.64208C6.79196 4.63891 6.79397 4.63615 6.79666 4.6342C6.79935 4.63224 6.80259 4.63119 6.80592 4.63119L7.24511 4.63204C7.24846 4.63209 7.25173 4.63106 7.25444 4.62909C7.25715 4.62711 7.25915 4.62431 7.26013 4.62111L7.39504 4.20317C7.39607 4.2 7.39807 4.19725 7.40077 4.19529C7.40346 4.19334 7.4067 4.19228 7.41003 4.19228C7.41335 4.19228 7.4166 4.19334 7.41929 4.19529C7.42198 4.19725 7.42398 4.2 7.42501 4.20317Z" fill="white"/>
<path fill-rule="evenodd" clip-rule="evenodd" d="M6.16286 5.16856L6.29777 5.58651C6.29875 5.58971 6.30075 5.59251 6.30346 5.59448C6.30617 5.59645 6.30944 5.59749 6.3128 5.59744L6.75198 5.59659C6.75532 5.59657 6.75857 5.59761 6.76128 5.59957C6.76398 5.60152 6.76599 5.60429 6.76702 5.60746C6.76805 5.61064 6.76804 5.61406 6.76699 5.61723C6.76595 5.6204 6.76393 5.62315 6.76121 5.62509L6.40545 5.88255C6.4027 5.88448 6.40065 5.88724 6.39961 5.89044C6.39858 5.89363 6.39861 5.89707 6.3997 5.90024L6.53623 6.31765C6.53726 6.32081 6.53726 6.32422 6.53623 6.32739C6.5352 6.33055 6.5332 6.33331 6.5305 6.33526C6.52781 6.33722 6.52457 6.33827 6.52124 6.33827C6.51791 6.33827 6.51467 6.33721 6.51198 6.33526L6.15714 6.07648C6.15447 6.07447 6.15121 6.07338 6.14785 6.07338C6.1445 6.07338 6.14124 6.07447 6.13857 6.07648L5.78377 6.33526C5.78108 6.33721 5.77784 6.33827 5.77451 6.33827C5.77118 6.33827 5.76794 6.33722 5.76525 6.33526C5.76255 6.33331 5.76055 6.33055 5.75952 6.32739C5.75849 6.32422 5.75849 6.32081 5.75952 6.31765L5.89601 5.90024C5.89711 5.89707 5.89714 5.89363 5.89611 5.89044C5.89508 5.88725 5.89304 5.88448 5.8903 5.88255L5.5345 5.62509C5.53181 5.62313 5.5298 5.62038 5.52878 5.61721C5.52775 5.61405 5.52775 5.61064 5.52878 5.60747C5.52981 5.60431 5.53181 5.60155 5.5345 5.59959C5.5372 5.59764 5.54044 5.59659 5.54377 5.59659L5.98291 5.59744C5.98626 5.59747 5.98954 5.59642 5.99225 5.59446C5.99496 5.59249 5.99697 5.5897 5.99798 5.58651L6.13285 5.16856C6.13387 5.16539 6.13587 5.16261 6.13857 5.16065C6.14126 5.15868 6.14452 5.15762 6.14785 5.15762C6.15119 5.15762 6.15444 5.15868 6.15714 5.16065C6.15984 5.16261 6.16184 5.16539 6.16286 5.16856Z" fill="white"/>
<path fill-rule="evenodd" clip-rule="evenodd" d="M4.90091 6.13379L5.03582 6.55173C5.03681 6.55493 5.03881 6.55772 5.04152 6.55969C5.04423 6.56165 5.0475 6.56268 5.05085 6.56262L5.49 6.56177C5.49333 6.56176 5.49659 6.56281 5.49929 6.56477C5.502 6.56673 5.50401 6.56949 5.50504 6.57267C5.50607 6.57584 5.50607 6.57926 5.50503 6.58243C5.50399 6.58561 5.50197 6.58837 5.49927 6.59032L5.14347 6.84778C5.14073 6.84971 5.1387 6.85247 5.13767 6.85565C5.13663 6.85884 5.13666 6.86227 5.13775 6.86543L5.27429 7.28287C5.27532 7.28604 5.27533 7.28946 5.2743 7.29264C5.27327 7.29581 5.27126 7.29858 5.26856 7.30053C5.26586 7.30249 5.2626 7.30354 5.25927 7.30353C5.25593 7.30352 5.25268 7.30246 5.24999 7.30048L4.8952 7.04171C4.89252 7.03969 4.88926 7.0386 4.88591 7.0386C4.88256 7.0386 4.8793 7.03969 4.87662 7.04171L4.52179 7.30048C4.5191 7.30244 4.51585 7.3035 4.51253 7.3035C4.5092 7.3035 4.50595 7.30245 4.50326 7.30049C4.50057 7.29853 4.49856 7.29578 4.49753 7.29261C4.49651 7.28945 4.4965 7.28604 4.49753 7.28287L4.63391 6.86559C4.635 6.86242 4.63503 6.85899 4.634 6.85581C4.63297 6.85262 4.63093 6.84986 4.62819 6.84793L4.2724 6.59047C4.26969 6.58852 4.26767 6.58576 4.26663 6.58259C4.2656 6.57941 4.26559 6.57599 4.26662 6.57282C4.26765 6.56964 4.26967 6.56688 4.27237 6.56492C4.27507 6.56297 4.27833 6.56192 4.28167 6.56193L4.72081 6.56278C4.72416 6.56284 4.72743 6.5618 4.73014 6.55984C4.73285 6.55788 4.73485 6.55509 4.73584 6.55189L4.87075 6.13394C4.87177 6.13077 4.87377 6.12799 4.87647 6.12603C4.87916 6.12406 4.88242 6.123 4.88575 6.123C4.88909 6.123 4.89234 6.12406 4.89504 6.12603C4.89774 6.12799 4.89989 6.13061 4.90091 6.13379Z" fill="white"/>
<path fill-rule="evenodd" clip-rule="evenodd" d="M3.63953 7.09938L3.77444 7.51732C3.77542 7.52053 3.77741 7.52333 3.78012 7.5253C3.78283 7.52727 3.78611 7.52831 3.78946 7.52826L4.22861 7.52741C4.23195 7.52739 4.2352 7.52844 4.2379 7.5304C4.24061 7.53236 4.24262 7.53512 4.24365 7.5383C4.24468 7.54147 4.24468 7.54489 4.24364 7.54806C4.2426 7.55124 4.24059 7.554 4.23788 7.55595L3.88208 7.81337C3.87934 7.8153 3.87729 7.81807 3.87626 7.82126C3.87523 7.82445 3.87527 7.82789 3.87636 7.83106L4.01286 8.24846C4.0139 8.25163 4.01391 8.25505 4.01288 8.25822C4.01186 8.26139 4.00986 8.26416 4.00716 8.26612C4.00446 8.26809 4.00121 8.26914 3.99788 8.26914C3.99454 8.26914 3.9913 8.26808 3.9886 8.26611L3.63381 8.00734C3.63113 8.00532 3.62787 8.00423 3.62452 8.00423C3.62117 8.00423 3.61791 8.00532 3.61523 8.00734L3.2604 8.26611C3.25771 8.26808 3.25446 8.26914 3.25112 8.26914C3.24779 8.26914 3.24454 8.26809 3.24184 8.26612C3.23915 8.26416 3.23714 8.26139 3.23612 8.25822C3.23509 8.25505 3.2351 8.25163 3.23614 8.24846L3.37268 7.83106C3.37377 7.82789 3.3738 7.82445 3.37276 7.82125C3.37172 7.81806 3.36967 7.8153 3.36692 7.81337L3.01116 7.55595C3.00846 7.554 3.00644 7.55124 3.0054 7.54807C3.00436 7.5449 3.00436 7.54149 3.00538 7.53831C3.00641 7.53514 3.00842 7.53238 3.01111 7.53042C3.01381 7.52846 3.01706 7.5274 3.02039 7.52741L3.45958 7.5281C3.46293 7.52816 3.46621 7.52712 3.46892 7.52515C3.47163 7.52318 3.47362 7.52038 3.4746 7.51717L3.60952 7.09938C3.61055 7.09622 3.61257 7.09347 3.61526 7.09152C3.61795 7.08957 3.62119 7.08852 3.62452 7.08852C3.62785 7.08852 3.63109 7.08957 3.63378 7.09152C3.63648 7.09347 3.63849 7.09622 3.63953 7.09938Z" fill="white"/>
<path fill-rule="evenodd" clip-rule="evenodd" d="M2.37736 8.06469L2.51227 8.48263C2.51325 8.48584 2.51524 8.48864 2.51795 8.49061C2.52066 8.49258 2.52394 8.49362 2.52729 8.49356L2.96648 8.49271C2.96981 8.49271 2.97305 8.49377 2.97574 8.49572C2.97843 8.49768 2.98044 8.50043 2.98147 8.5036C2.9825 8.50676 2.9825 8.51017 2.98147 8.51334C2.98044 8.5165 2.97844 8.51926 2.97575 8.52122L2.61995 8.77868C2.61721 8.78061 2.61516 8.78338 2.61413 8.78657C2.6131 8.78976 2.61314 8.7932 2.61423 8.79637L2.75073 9.21377C2.75177 9.21694 2.75178 9.22036 2.75075 9.22353C2.74973 9.2267 2.74773 9.22947 2.74503 9.23143C2.74233 9.23339 2.73908 9.23445 2.73575 9.23445C2.73242 9.23445 2.72917 9.23339 2.72647 9.23142L2.37168 8.97265C2.369 8.97062 2.36573 8.96953 2.36237 8.96953C2.35901 8.96953 2.35574 8.97062 2.35306 8.97265L1.99827 9.23142C1.99558 9.23339 1.99233 9.23445 1.98899 9.23445C1.98566 9.23445 1.98241 9.23339 1.97971 9.23143C1.97702 9.22947 1.97501 9.2267 1.97399 9.22353C1.97297 9.22036 1.97297 9.21694 1.97401 9.21377L2.11051 8.79637C2.11161 8.7932 2.11164 8.78976 2.11061 8.78657C2.10958 8.78338 2.10754 8.78061 2.10479 8.77868L1.74896 8.52122C1.74627 8.51926 1.74426 8.5165 1.74323 8.51334C1.74221 8.51017 1.74221 8.50676 1.74324 8.5036C1.74427 8.50043 1.74627 8.49768 1.74896 8.49572C1.75166 8.49377 1.7549 8.49271 1.75823 8.49271L2.19737 8.49356C2.20073 8.49363 2.20402 8.49259 2.20674 8.49062C2.20945 8.48865 2.21145 8.48585 2.21244 8.48263L2.34731 8.06469C2.34833 8.06151 2.35033 8.05874 2.35303 8.05677C2.35572 8.05481 2.35898 8.05375 2.36231 8.05375C2.36565 8.05375 2.3689 8.05481 2.3716 8.05677C2.3743 8.05874 2.37634 8.06151 2.37736 8.06469Z" fill="white"/>
<path fill-rule="evenodd" clip-rule="evenodd" d="M7.40482 6.38446L7.53969 6.80241C7.5407 6.8056 7.54271 6.80839 7.54542 6.81036C7.54813 6.81232 7.55141 6.81337 7.55476 6.81334L7.9939 6.81249C7.99724 6.81246 8.0005 6.8135 8.00321 6.81545C8.00592 6.8174 8.00794 6.82017 8.00898 6.82334C8.01001 6.82652 8.01 6.82994 8.00896 6.83312C8.00792 6.83629 8.00589 6.83905 8.00317 6.84099L7.64737 7.09845C7.64463 7.10038 7.64259 7.10315 7.64156 7.10634C7.64053 7.10953 7.64056 7.11297 7.64166 7.11614L7.77815 7.53355C7.77918 7.53671 7.77918 7.54012 7.77815 7.54329C7.77712 7.54645 7.77512 7.54921 7.77242 7.55116C7.76973 7.55312 7.76649 7.55417 7.76316 7.55417C7.75983 7.55417 7.75659 7.55311 7.7539 7.55116L7.3991 7.29238C7.39643 7.29037 7.39317 7.28928 7.38982 7.28928C7.38646 7.28928 7.3832 7.29037 7.38053 7.29238L7.02569 7.55116C7.023 7.55311 7.01976 7.55417 7.01643 7.55417C7.0131 7.55417 7.00986 7.55312 7.00717 7.55116C7.00448 7.54921 7.00247 7.54645 7.00144 7.54329C7.00041 7.54012 7.00041 7.53671 7.00144 7.53355L7.13793 7.11614C7.13903 7.11297 7.13906 7.10953 7.13803 7.10634C7.137 7.10315 7.13496 7.10038 7.13222 7.09845L6.77642 6.84099C6.77373 6.83903 6.77172 6.83627 6.77069 6.8331C6.76967 6.82993 6.76967 6.82652 6.77071 6.82335C6.77174 6.82019 6.77375 6.81743 6.77645 6.81548C6.77915 6.81353 6.7824 6.81248 6.78573 6.81249L7.22487 6.81334C7.22823 6.81339 7.2315 6.81235 7.23421 6.81038C7.23692 6.80841 7.23892 6.80561 7.2399 6.80241L7.37481 6.38446C7.37583 6.38129 7.37783 6.37851 7.38053 6.37655C7.38323 6.37458 7.38648 6.37352 7.38982 6.37352C7.39315 6.37352 7.3964 6.37458 7.3991 6.37655C7.4018 6.37851 7.4038 6.38129 7.40482 6.38446Z" fill="white"/>
<path fill-rule="evenodd" clip-rule="evenodd" d="M6.24062 7.34165L6.37553 7.75956C6.37651 7.76277 6.37851 7.76557 6.38123 7.76755C6.38395 7.76952 6.38724 7.77055 6.39059 7.77049L6.82974 7.76964C6.83307 7.76964 6.83632 7.77069 6.83902 7.77265C6.84172 7.77461 6.84373 7.77738 6.84475 7.78055C6.84578 7.78372 6.84577 7.78714 6.84473 7.79031C6.84369 7.79347 6.84168 7.79623 6.83897 7.79818L6.48321 8.05564C6.48047 8.05757 6.47843 8.06033 6.47739 8.06351C6.47635 8.06669 6.47637 8.07013 6.47746 8.0733L6.61399 8.49074C6.61502 8.4939 6.61502 8.49731 6.61399 8.50048C6.61296 8.50364 6.61096 8.5064 6.60826 8.50835C6.60557 8.51031 6.60233 8.51136 6.599 8.51136C6.59567 8.51136 6.59243 8.51031 6.58974 8.50835L6.2349 8.24957C6.23223 8.24756 6.22897 8.24647 6.22561 8.24647C6.22226 8.24647 6.219 8.24756 6.21633 8.24957L5.86153 8.50835C5.85884 8.51032 5.85559 8.51139 5.85226 8.5114C5.84892 8.51141 5.84567 8.51036 5.84296 8.5084C5.84026 8.50644 5.83825 8.50367 5.83722 8.5005C5.83619 8.49733 5.8362 8.49391 5.83724 8.49074L5.97377 8.0733C5.97486 8.07013 5.97489 8.0667 5.97386 8.06352C5.97283 8.06033 5.97079 8.05757 5.96805 8.05564L5.61226 7.79818C5.60955 7.79623 5.60753 7.79347 5.60649 7.7903C5.60546 7.78712 5.60545 7.7837 5.60648 7.78053C5.60751 7.77736 5.60953 7.77459 5.61223 7.77263C5.61493 7.77068 5.61819 7.76963 5.62153 7.76964L6.06067 7.77049C6.06402 7.77054 6.0673 7.76951 6.07001 7.76753C6.07272 7.76556 6.07472 7.76276 6.0757 7.75956L6.21061 7.34165C6.21163 7.33848 6.21363 7.3357 6.21633 7.33374C6.21902 7.33177 6.22228 7.33071 6.22561 7.33071C6.22895 7.33071 6.2322 7.33177 6.2349 7.33374C6.2376 7.3357 6.2396 7.33848 6.24062 7.34165Z" fill="white"/>
<path fill-rule="evenodd" clip-rule="evenodd" d="M4.84374 8.01424L4.97866 8.43219C4.97964 8.43539 4.98165 8.43818 4.98437 8.44015C4.98708 8.44211 4.99037 8.44314 4.99372 8.44308L5.43287 8.44223C5.4362 8.44221 5.43946 8.44326 5.44216 8.44522C5.44487 8.44718 5.44688 8.44994 5.44791 8.45312C5.44894 8.45629 5.44894 8.45971 5.4479 8.46288C5.44686 8.46606 5.44484 8.46882 5.44213 8.47077L5.08634 8.72823C5.08359 8.73016 5.08155 8.73293 5.08052 8.73612C5.07949 8.73931 5.07952 8.74275 5.08062 8.74592L5.21712 9.16332C5.21816 9.16649 5.21816 9.16991 5.21714 9.17308C5.21612 9.17625 5.21411 9.17902 5.21142 9.18098C5.20872 9.18295 5.20547 9.184 5.20214 9.184C5.1988 9.184 5.19555 9.18294 5.19286 9.18097L4.83807 8.9222C4.83539 8.92018 4.83213 8.91909 4.82878 8.91909C4.82543 8.91909 4.82217 8.92018 4.81949 8.9222L4.46466 9.18097C4.46196 9.18294 4.45871 9.184 4.45538 9.184C4.45205 9.184 4.4488 9.18295 4.4461 9.18098C4.4434 9.17902 4.4414 9.17625 4.44038 9.17308C4.43935 9.16991 4.43936 9.16649 4.4404 9.16332L4.5769 8.74592C4.57799 8.74275 4.57803 8.73931 4.577 8.73612C4.57596 8.73293 4.57392 8.73016 4.57118 8.72823L4.21538 8.47077C4.21267 8.46882 4.21066 8.46606 4.20962 8.46288C4.20858 8.45971 4.20858 8.45629 4.20961 8.45312C4.21064 8.44994 4.21265 8.44718 4.21535 8.44522C4.21806 8.44326 4.22131 8.44221 4.22465 8.44223L4.6638 8.44308C4.66715 8.44314 4.67043 8.44211 4.67315 8.44015C4.67587 8.43818 4.67787 8.43539 4.67886 8.43219L4.81377 8.01424C4.81478 8.01106 4.81678 8.00828 4.81947 8.00631C4.82217 8.00433 4.82542 8.00327 4.82876 8.00327C4.8321 8.00327 4.83535 8.00433 4.83805 8.00631C4.84074 8.00828 4.84274 8.01106 4.84374 8.01424Z" fill="white"/>
<path fill-rule="evenodd" clip-rule="evenodd" d="M7.47553 7.98539L7.61044 8.40333C7.61142 8.40654 7.61342 8.40935 7.61614 8.41132C7.61886 8.41329 7.62215 8.41432 7.6255 8.41426L8.06465 8.41337C8.06798 8.41337 8.07123 8.41442 8.07393 8.41638C8.07663 8.41834 8.07863 8.42111 8.07966 8.42428C8.08069 8.42745 8.08068 8.43087 8.07964 8.43404C8.0786 8.43721 8.07659 8.43997 8.07388 8.44191L7.71812 8.69938C7.71537 8.7013 7.71332 8.70407 7.71228 8.70726C7.71125 8.71045 7.71127 8.71389 7.71237 8.71707L7.8489 9.13447C7.84994 9.13764 7.84995 9.14105 7.84893 9.14423C7.8479 9.1474 7.8459 9.15017 7.8432 9.15213C7.8405 9.15409 7.83726 9.15515 7.83392 9.15514C7.83059 9.15514 7.82734 9.15408 7.82464 9.15212L7.46981 8.89334C7.46713 8.89133 7.46387 8.89024 7.46052 8.89024C7.45717 8.89024 7.45391 8.89133 7.45123 8.89334L7.09644 9.15212C7.09375 9.15408 7.0905 9.15514 7.08716 9.15514C7.08383 9.15515 7.08058 9.15409 7.07788 9.15213C7.07519 9.15017 7.07318 9.1474 7.07216 9.14423C7.07114 9.14105 7.07115 9.13764 7.07219 9.13447L7.20868 8.71707C7.20978 8.7139 7.20981 8.71046 7.20878 8.70727C7.20775 8.70407 7.20571 8.70131 7.20296 8.69938L6.84728 8.44191C6.84457 8.43996 6.84256 8.4372 6.84152 8.43403C6.84048 8.43086 6.84048 8.42744 6.84151 8.42426C6.84254 8.42109 6.84455 8.41832 6.84725 8.41637C6.84996 8.41441 6.85321 8.41336 6.85655 8.41337L7.2957 8.41426C7.29906 8.41432 7.30234 8.41329 7.30506 8.41132C7.30778 8.40935 7.30978 8.40654 7.31076 8.40333L7.44567 7.98539C7.4467 7.98222 7.44871 7.97947 7.4514 7.97751C7.45409 7.97556 7.45733 7.9745 7.46066 7.9745C7.46399 7.9745 7.46723 7.97556 7.46992 7.97751C7.47261 7.97947 7.4745 7.98222 7.47553 7.98539Z" fill="white"/>
</svg>
