<svg width="26" height="26" viewBox="0 0 26 26" fill="none" xmlns="http://www.w3.org/2000/svg">
<path d="M24.4701 11.668C23.2524 7.12098 20.1135 4.14076 17.3269 4.88978C16.7548 5.04617 16.2322 5.34626 15.8087 5.76153C15.227 6.36892 14.4345 6.73014 13.5945 6.7708H12.4053C11.5657 6.73002 10.7735 6.36924 10.1916 5.76259C9.76825 5.3464 9.24515 5.04587 8.67239 4.88978C5.89107 4.14499 2.74738 7.12098 1.52916 11.668C0.310937 16.2151 1.53974 20.3622 4.32689 21.1102C4.61223 21.1866 4.90641 21.225 5.20181 21.2244C6.74587 21.2244 8.36081 20.1887 9.6621 18.3182C9.93067 17.9316 10.2886 17.6155 10.7055 17.3969C11.1224 17.1783 11.586 17.0635 12.0567 17.0625H13.9431C14.4139 17.0633 14.8775 17.1779 15.2944 17.3966C15.7114 17.6152 16.0693 17.9314 16.3377 18.3182C17.8887 20.5463 19.8871 21.5926 21.6729 21.1102C24.4606 20.3622 25.6889 16.2151 24.4701 11.668ZM9.20823 13.2708H8.39573V14.0833C8.39573 14.2988 8.31013 14.5055 8.15776 14.6578C8.00539 14.8102 7.79872 14.8958 7.58323 14.8958C7.36775 14.8958 7.16108 14.8102 7.00871 14.6578C6.85634 14.5055 6.77073 14.2988 6.77073 14.0833V13.2708H5.95823C5.74275 13.2708 5.53608 13.1852 5.38371 13.0328C5.23134 12.8805 5.14573 12.6738 5.14573 12.4583C5.14573 12.2428 5.23134 12.0362 5.38371 11.8838C5.53608 11.7314 5.74275 11.6458 5.95823 11.6458H6.77073V10.8333C6.77073 10.6178 6.85634 10.4112 7.00871 10.2588C7.16108 10.1064 7.36775 10.0208 7.58323 10.0208C7.79872 10.0208 8.00539 10.1064 8.15776 10.2588C8.31013 10.4112 8.39573 10.6178 8.39573 10.8333V11.6458H9.20823C9.42372 11.6458 9.63039 11.7314 9.78276 11.8838C9.93513 12.0362 10.0207 12.2428 10.0207 12.4583C10.0207 12.6738 9.93513 12.8805 9.78276 13.0328C9.63039 13.1852 9.42372 13.2708 9.20823 13.2708ZM17.0624 12.4583C16.7946 12.4583 16.5328 12.3789 16.3101 12.2301C16.0874 12.0813 15.9138 11.8698 15.8113 11.6224C15.7088 11.3749 15.682 11.1026 15.7343 10.84C15.7865 10.5773 15.9155 10.336 16.1049 10.1466C16.2942 9.95721 16.5355 9.82824 16.7982 9.77599C17.0609 9.72374 17.3332 9.75056 17.5806 9.85305C17.8281 9.95554 18.0396 10.1291 18.1884 10.3518C18.3371 10.5745 18.4166 10.8363 18.4166 11.1041C18.4166 11.282 18.3816 11.4581 18.3135 11.6224C18.2455 11.7867 18.1457 11.9359 18.02 12.0617C17.8942 12.1874 17.7449 12.2872 17.5806 12.3552C17.4163 12.4233 17.2402 12.4583 17.0624 12.4583ZM19.7707 15.1666C19.5029 15.1666 19.2411 15.0872 19.0184 14.9384C18.7957 14.7896 18.6221 14.5781 18.5196 14.3307C18.4172 14.0832 18.3903 13.811 18.4426 13.5483C18.4948 13.2856 18.6238 13.0443 18.8132 12.8549C19.0026 12.6655 19.2439 12.5366 19.5065 12.4843C19.7692 12.4321 20.0415 12.4589 20.2889 12.5614C20.5364 12.6639 20.7479 12.8374 20.8967 13.0601C21.0455 13.2828 21.1249 13.5446 21.1249 13.8125C21.1249 13.9903 21.0899 14.1664 21.0218 14.3307C20.9538 14.495 20.854 14.6443 20.7283 14.77C20.6025 14.8958 20.4533 14.9955 20.289 15.0636C20.1247 15.1316 19.9486 15.1666 19.7707 15.1666Z" fill="#464646"/>
</svg>
