<svg width="13" height="12" viewBox="0 0 13 12" fill="none" xmlns="http://www.w3.org/2000/svg">
<g clip-path="url(#clip0_4018_36)">
<path d="M7.11599 1.26991C4.84446 1.26991 2.93464 2.82707 2.38376 4.92859H2.06582C1.84554 4.92859 1.64877 5.05989 1.56449 5.26353C1.48022 5.46717 1.52651 5.69903 1.68205 5.85492L2.37761 6.55085C2.47853 6.65177 2.62177 6.71 2.76428 6.70928C2.90498 6.70856 3.04533 6.65032 3.1448 6.55085L3.84036 5.85492C3.99626 5.69903 4.04219 5.46717 3.95792 5.26353C3.88087 5.07761 3.70834 4.9568 3.51121 4.93691C4.02447 3.43763 5.44453 2.35504 7.11526 2.35504C9.21715 2.35504 10.9273 4.06519 10.9273 6.16708C10.9273 8.26896 9.21715 9.97876 7.11526 9.97876C5.6225 9.97876 4.25922 9.09981 3.64178 7.73978C3.58138 7.6074 3.47323 7.50612 3.33686 7.45548C3.20086 7.40484 3.05401 7.40991 2.92379 7.47031C2.79177 7.52999 2.69085 7.63742 2.63985 7.77342C2.58885 7.90906 2.59391 8.05628 2.6536 8.1883C3.4461 9.93499 5.19749 11.0639 7.1149 11.0639C9.81505 11.0639 12.0121 8.86723 12.0121 6.16708C12.0121 3.46693 9.81614 1.26991 7.11599 1.26991Z" fill="white"/>
<path d="M7.11629 3.07848C6.81716 3.07848 6.57373 3.32191 6.57373 3.62104V6.1671C6.57373 6.27525 6.60556 6.37979 6.6656 6.46913L7.51236 7.73185C7.61328 7.88232 7.78184 7.97239 7.96341 7.97239C8.07084 7.97239 8.17501 7.94056 8.26544 7.88051C8.38589 7.79985 8.46727 7.67723 8.49549 7.53472C8.5237 7.39221 8.4944 7.24788 8.41374 7.1278L7.65885 6.0018V3.62104C7.65885 3.32191 7.41543 3.07848 7.11629 3.07848Z" fill="white"/>
</g>
<defs>
<clipPath id="clip0_4018_36">
<rect width="11.5747" height="11.5747" fill="white" transform="translate(0.981445 0.37973)"/>
</clipPath>
</defs>
</svg>
