<svg width="23" height="23" viewBox="0 0 23 23" fill="none" xmlns="http://www.w3.org/2000/svg">
<path d="M7.58731 17.849L5.22042 21.1068C6.8033 22.1227 8.65666 22.7536 10.6484 22.8687V18.8454C9.53768 18.7448 8.49831 18.3938 7.58731 17.849Z" fill="#2B2B2B"/>
<path d="M17.9959 14.4681C17.5638 15.4718 16.9121 16.3594 16.1016 17.0703L18.4686 20.3282C19.9496 19.1121 21.1154 17.5266 21.8254 15.7124L17.9959 14.4681Z" fill="#2B2B2B"/>
<path d="M5.22042 2.09362L7.58727 5.35136C8.49831 4.80656 9.53768 4.45548 10.6484 4.3549V0.331665C8.65666 0.446797 6.8033 1.07762 5.22042 2.09362Z" fill="#2B2B2B"/>
<path d="M11.3098 5.64735C8.02743 5.64735 5.35699 8.31779 5.35699 11.6002C5.35699 14.8826 8.02743 17.553 11.3098 17.553C14.5922 17.553 17.2627 14.8826 17.2627 11.6002C17.2627 8.31779 14.5922 5.64735 11.3098 5.64735ZM13.2941 11.6002C13.2941 11.9062 13.2244 12.1961 13.1002 12.4552L15.0514 14.4064L14.116 15.3418L12.1647 13.3906C11.9057 13.5147 11.6158 13.5845 11.3098 13.5845C11.0038 13.5845 10.7139 13.5147 10.4549 13.3905L8.50365 15.3417L7.56826 14.4063L9.51947 12.4551C9.39526 12.1961 9.32554 11.9062 9.32554 11.6002C9.32554 11.2942 9.39526 11.0043 9.51947 10.7452L7.56826 8.79401L8.50365 7.85863L10.4549 9.80983C10.7139 9.68562 11.0038 9.6159 11.3098 9.6159C11.6158 9.6159 11.9057 9.68562 12.1648 9.80983L14.116 7.85863L15.0514 8.79401L13.1002 10.7452C13.2244 11.0042 13.2941 11.2942 13.2941 11.6002Z" fill="#2B2B2B"/>
<path d="M11.3098 10.9388C10.9451 10.9388 10.6484 11.2355 10.6484 11.6002C10.6484 11.9649 10.9451 12.2616 11.3098 12.2616C11.6745 12.2616 11.9712 11.9649 11.9712 11.6002C11.9712 11.2355 11.6745 10.9388 11.3098 10.9388Z" fill="#2B2B2B"/>
<path d="M15.0323 17.849C14.1213 18.3938 13.082 18.7448 11.9712 18.8454V22.8687C13.963 22.7535 15.8163 22.1227 17.3992 21.1067L15.0323 17.849Z" fill="#2B2B2B"/>
<path d="M18.4687 2.87217L16.1016 6.13014C16.9121 6.84099 17.5638 7.72863 17.996 8.73227L21.8254 7.488C21.1154 5.6738 19.9496 4.08827 18.4687 2.87217Z" fill="#2B2B2B"/>
<path d="M11.9712 0.331665V4.3549C13.082 4.45548 14.1213 4.80656 15.0324 5.35131L17.3992 2.09362C15.8163 1.07762 13.963 0.446753 11.9712 0.331665Z" fill="#2B2B2B"/>
<path d="M22.2339 8.7462L18.4056 9.99007C18.5231 10.5082 18.5855 11.047 18.5855 11.6002C18.5855 12.1534 18.5231 12.6922 18.4056 13.2103L22.2339 14.4542C22.4713 13.5425 22.5981 12.5862 22.5981 11.6002C22.5981 10.6142 22.4713 9.65786 22.2339 8.7462Z" fill="#2B2B2B"/>
<path d="M4.151 2.87217C2.67007 4.08827 1.50424 5.6738 0.794262 7.488L4.62374 8.73227C5.05587 7.72863 5.70755 6.84104 6.51802 6.13014L4.151 2.87217Z" fill="#2B2B2B"/>
<path d="M4.62368 14.4681L0.794203 15.7124C1.50422 17.5266 2.67005 19.1121 4.15094 20.3282L6.51801 17.0703C5.70754 16.3594 5.05586 15.4718 4.62368 14.4681Z" fill="#2B2B2B"/>
<path d="M4.214 9.99007L0.385754 8.7462C0.148258 9.65786 0.0214844 10.6142 0.0214844 11.6002C0.0214844 12.5862 0.148258 13.5425 0.385754 14.4542L4.214 13.2103C4.09648 12.6922 4.03413 12.1534 4.03413 11.6002C4.03413 11.047 4.09648 10.5082 4.214 9.99007Z" fill="#2B2B2B"/>
</svg>
