<svg width="22" height="22" viewBox="0 0 22 22" fill="none" xmlns="http://www.w3.org/2000/svg">
<path d="M19.3696 4.30435H16.8291C17.0745 3.88171 17.2174 3.39251 17.2174 2.86958C17.2174 1.28717 15.9302 0 14.3478 0C12.8517 0 11.5325 0.768367 10.7609 1.93033C9.98925 0.768367 8.67011 0 7.17393 0C5.59157 0 4.30435 1.28717 4.30435 2.86958C4.30435 3.39251 4.44727 3.88171 4.69262 4.30435H2.15218C0.965422 4.30435 0 5.26977 0 6.45653V8.36958C0 8.76562 0.321105 9.08699 0.717406 9.08699C8.06863 9.08699 13.3424 9.08699 20.8044 9.08699C21.2007 9.08699 21.5218 8.76562 21.5218 8.36958V6.45653C21.5218 5.26977 20.5563 4.30435 19.3696 4.30435ZM5.73912 2.86958C5.73912 2.0784 6.38271 1.43481 7.17389 1.43481C8.75626 1.43481 10.0435 2.72198 10.0435 4.30439C8.99551 4.30439 8.19109 4.30439 7.17389 4.30439C6.38275 4.30435 5.73912 3.66077 5.73912 2.86958ZM11.4783 7.65218H10.0435V5.73912C10.5627 5.73912 10.9591 5.73912 11.4783 5.73912V7.65218ZM14.3478 4.30435C13.3308 4.30435 12.5262 4.30435 11.4782 4.30435C11.4782 2.72198 12.7654 1.43477 14.3478 1.43477C15.139 1.43477 15.7826 2.07836 15.7826 2.86954C15.7826 3.66077 15.139 4.30435 14.3478 4.30435Z" fill="#E81C5A"/>
<path d="M19.3694 10.087H2.15198C1.75568 10.087 1.43457 10.4084 1.43457 10.8044V19.4131C1.43457 20.5999 2.39999 21.5653 3.58675 21.5653C8.55527 21.5653 10.5156 21.5653 11.2082 21.5653C11.4637 21.5653 11.5467 21.5653 11.5444 21.5653C12.1765 21.5653 13.865 21.5653 17.9346 21.5653C19.1213 21.5653 20.0867 20.5999 20.0867 19.4131V10.8044C20.0867 10.4083 19.7656 10.087 19.3694 10.087ZM11.4781 20.1305H10.0433V11.5218H11.4781V20.1305Z" fill="#E81C5A"/>
</svg>
