<svg width="25" height="25" viewBox="0 0 25 25" fill="none" xmlns="http://www.w3.org/2000/svg">
<path d="M14.4972 14.8842C13.5518 15.784 12.0189 15.784 11.0734 14.8842C10.1279 13.9843 10.1279 12.5254 11.0734 11.6255C12.0189 10.7256 13.5518 10.7256 14.4972 11.6255C15.4426 12.5254 15.4426 13.9843 14.4972 14.8842Z" stroke="#46D380" stroke-width="1.69479" stroke-miterlimit="10" stroke-linecap="round" stroke-linejoin="round"/>
<path d="M17.8052 9.23121C20.14 11.4534 20.14 15.0562 17.8052 17.2784" stroke="#46D380" stroke-opacity="0.6" stroke-width="2.8232" stroke-miterlimit="10" stroke-linecap="round" stroke-linejoin="round"/>
<path d="M20.4073 20.5094C24.6169 16.5028 24.6169 10.0068 20.4073 6.00026" stroke="#46D380" stroke-opacity="0.2" stroke-width="2.8232" stroke-miterlimit="10" stroke-linecap="round" stroke-linejoin="round"/>
<path d="M7.75967 9.23113C5.42488 11.4533 5.42488 15.0562 7.75967 17.2784" stroke="#46D380" stroke-opacity="0.6" stroke-width="2.8232" stroke-miterlimit="10" stroke-linecap="round" stroke-linejoin="round"/>
<path d="M5.15721 20.5092C0.947598 16.5026 0.947598 10.0066 5.15721 6" stroke="#46D380" stroke-opacity="0.2" stroke-width="2.8232" stroke-miterlimit="10" stroke-linecap="round" stroke-linejoin="round"/>
</svg>
