<svg width="25" height="25" viewBox="0 0 25 25" fill="none" xmlns="http://www.w3.org/2000/svg">
<path d="M14.1902 14.1845C13.2582 15.1147 11.7469 15.1147 10.8149 14.1845C9.88274 13.2542 9.88274 11.7459 10.8149 10.8156C11.7469 9.88538 13.2582 9.88538 14.1902 10.8156C15.1223 11.7459 15.1223 13.2542 14.1902 14.1845Z" stroke="#E81C5A" stroke-width="1.41805" stroke-miterlimit="10" stroke-linecap="round" stroke-linejoin="round"/>
<path d="M17.451 8.34037C19.7528 10.6377 19.7528 14.3623 17.451 16.6596" stroke="#E81C5A" stroke-opacity="0.6" stroke-width="2.3622" stroke-miterlimit="10" stroke-linecap="round" stroke-linejoin="round"/>
<path d="M20.0178 19.9999C24.1679 15.8579 24.1679 9.14233 20.0178 5.00033" stroke="#E81C5A" stroke-opacity="0.2" stroke-width="2.3622" stroke-miterlimit="10" stroke-linecap="round" stroke-linejoin="round"/>
<path d="M7.54855 8.3403C5.24677 10.6376 5.24677 14.3623 7.54855 16.6596" stroke="#E81C5A" stroke-opacity="0.6" stroke-width="2.3622" stroke-miterlimit="10" stroke-linecap="round" stroke-linejoin="round"/>
<path d="M4.9822 19.9996C0.832106 15.8576 0.832106 9.14196 4.9822 4.99996" stroke="#E81C5A" stroke-opacity="0.2" stroke-width="2.3622" stroke-miterlimit="10" stroke-linecap="round" stroke-linejoin="round"/>
</svg>
