<svg width="20" height="20" viewBox="0 0 20 20" fill="none" xmlns="http://www.w3.org/2000/svg">
<path d="M18 10C18 14.4183 14.4183 18 10 18V20C15.5228 20 20 15.5228 20 10H18ZM10 18C5.58172 18 2 14.4183 2 10H0C0 15.5228 4.47715 20 10 20V18ZM2 10C2 5.58172 5.58172 2 10 2V0C4.47715 0 0 4.47715 0 10H2ZM10 2C14.4183 2 18 5.58172 18 10H20C20 4.47715 15.5228 0 10 0V2ZM9.5 5.5C9.5 5.22386 9.72386 5 10 5V7C10.8284 7 11.5 6.32843 11.5 5.5H9.5ZM10 5C10.2761 5 10.5 5.22386 10.5 5.5H8.5C8.5 6.32843 9.17157 7 10 7V5ZM10.5 5.5C10.5 5.77614 10.2761 6 10 6V4C9.17157 4 8.5 4.67157 8.5 5.5H10.5ZM10 6C9.72386 6 9.5 5.77614 9.5 5.5H11.5C11.5 4.67157 10.8284 4 10 4V6ZM11 15V8H9V15H11Z" fill="#FFDB95"/>
</svg>
