<svg width="24" height="23" viewBox="0 0 24 23" fill="none" xmlns="http://www.w3.org/2000/svg">
<path d="M0.810526 4.5133C0.269204 4.01071 0 3.38858 0 2.64836C0 1.90814 0.270644 1.25865 0.810526 0.754616C1.35185 0.252018 2.04866 0 2.90239 0C3.75613 0 4.42559 0.252018 4.96548 0.754616C5.5068 1.25721 5.776 1.88942 5.776 2.64836C5.776 3.4073 5.50536 4.01071 4.96548 4.5133C4.42415 5.0159 3.73741 5.26792 2.90239 5.26792C2.06738 5.26792 1.35185 5.0159 0.810526 4.5133ZM5.32107 7.3964V22.8056H0.453487V7.3964H5.32107Z" fill="#FEFFFC"/>
<path d="M21.5248 8.91759C22.5858 10.0697 23.1156 11.6509 23.1156 13.6642V22.5324H18.4928V14.2892C18.4928 13.2739 18.2294 12.4847 17.7039 11.9231C17.1784 11.3615 16.4701 11.0792 15.5832 11.0792C14.6964 11.0792 13.988 11.36 13.4625 11.9231C12.9371 12.4847 12.6736 13.2739 12.6736 14.2892V22.5324H8.02344V7.35219H12.6736V9.36546C13.1444 8.69437 13.7793 8.16441 14.5769 7.77414C15.3745 7.38387 16.2714 7.18945 17.2691 7.18945C19.0457 7.18945 20.4652 7.7655 21.5248 8.91759Z" fill="#FEFFFC"/>
</svg>
