<svg width="15" height="16" viewBox="0 0 15 16" fill="none" xmlns="http://www.w3.org/2000/svg">
<path d="M9.62086 0.978348C8.35203 0.978348 7.16046 1.47077 6.26558 2.3659L5.5733 3.05837C5.40717 3.2245 5.31592 3.44519 5.31592 3.68C5.31592 3.91529 5.40736 4.13595 5.57352 4.30167C5.90601 4.63396 6.48494 4.63396 6.81701 4.30167L7.50907 3.6092C8.67338 2.44533 10.5681 2.44574 11.7324 3.6092C12.2974 4.17417 12.6084 4.92416 12.6084 5.72098C12.6084 6.51778 12.2972 7.2678 11.7322 7.83277L11.0399 8.52524C10.8738 8.6914 10.7826 8.91206 10.7826 9.1469C10.7826 9.38216 10.874 9.60282 11.0402 9.76854C11.2063 9.93467 11.427 10.0261 11.6618 10.0261C11.8966 10.0261 12.1175 9.93467 12.2837 9.76854L12.9757 9.07607C13.8728 8.17879 14.3669 6.98745 14.3669 5.72097C14.3669 4.4545 13.8728 3.26316 12.9757 2.36589C12.0811 1.47076 10.8897 0.978348 9.62086 0.978348Z" fill="#FFD0DE"/>
<path d="M5.04357 15.0409C6.31221 15.0409 7.50374 14.5481 8.39887 13.6534L9.09113 12.9609C9.25729 12.7948 9.34851 12.5741 9.34851 12.3393C9.34851 12.104 9.25706 11.8834 9.09093 11.7176C8.75842 11.3849 8.17949 11.3858 7.84742 11.7176L7.15536 12.4101C5.99193 13.5744 4.09693 13.5748 2.93179 12.4101C1.7675 11.2458 1.7675 9.35083 2.93179 8.18654L3.62426 7.49404C3.96707 7.15148 3.96707 6.59334 3.62426 6.25078C3.28166 5.90818 2.72356 5.90818 2.38097 6.25078L1.6885 6.94325C-0.160977 8.79316 -0.160977 11.8035 1.6885 13.6534C2.58318 14.5481 3.77474 15.0409 5.04357 15.0409Z" fill="#FFD0DE"/>
<path d="M4.34708 10.9951C4.51321 11.1612 4.73388 11.2527 4.96872 11.2527C5.20378 11.2527 5.42463 11.1612 5.59035 10.9951L10.3175 6.2675C10.4837 6.10136 10.5751 5.8807 10.5751 5.64586C10.5751 5.41102 10.4837 5.19036 10.3175 5.0242C9.98546 4.69191 9.40589 4.69191 9.07424 5.0242L4.34708 9.75179C4.18092 9.91795 4.08948 10.1386 4.08948 10.3735C4.08948 10.6083 4.18092 10.829 4.34708 10.9951Z" fill="#FFD0DE"/>
</svg>
