<svg width="23" height="23" viewBox="0 0 23 23" fill="none" xmlns="http://www.w3.org/2000/svg">
<g clip-path="url(#clip0_132_570)">
<path d="M12.9229 13.5676C12.372 13.9349 11.7321 14.129 11.0723 14.129C10.4125 14.129 9.77257 13.9349 9.22164 13.5676L0.147443 7.51791C0.0970986 7.48435 0.0480519 7.44936 0 7.41337V17.3264C0 18.4629 0.922328 19.3649 2.03855 19.3649H20.1059C21.2425 19.3649 22.1445 18.4426 22.1445 17.3264V7.41333C22.0963 7.4494 22.0472 7.48448 21.9967 7.51808L12.9229 13.5676Z" fill="white"/>
<path d="M0.867183 6.43848L9.94138 12.4882C10.2849 12.7172 10.6786 12.8317 11.0722 12.8317C11.4659 12.8317 11.8597 12.7171 12.2032 12.4882L21.2773 6.43848C21.8204 6.07668 22.1445 5.47117 22.1445 4.81764C22.1445 3.69394 21.2303 2.77979 20.1067 2.77979H2.03786C0.914197 2.77983 0 3.69398 0 4.81873C0 5.47117 0.32421 6.07668 0.867183 6.43848Z" fill="white"/>
</g>
<defs>
<clipPath id="clip0_132_570">
<rect width="22.1445" height="22.1445" fill="white"/>
</clipPath>
</defs>
</svg>
