<svg width="22" height="22" viewBox="0 0 22 22" fill="none" xmlns="http://www.w3.org/2000/svg">
<path fill-rule="evenodd" clip-rule="evenodd" d="M0 11C0 4.92488 4.92488 0 11 0C17.0751 0 22 4.92488 22 11C22 17.0751 17.0751 22 11 22C9.05542 22 7.22685 21.4948 5.64051 20.6081L1.89861 21.9566C1.64383 22.0484 1.35918 21.9923 1.15826 21.8107C0.957348 21.6291 0.872876 21.3515 0.938564 21.0888L1.91124 17.1981C0.705371 15.4329 0 13.2979 0 11ZM5.86667 9.53332C5.05666 9.53332 4.4 10.19 4.4 11C4.4 11.81 5.05666 12.4667 5.86667 12.4667C6.67667 12.4667 7.33333 11.81 7.33333 11C7.33333 10.19 6.67667 9.53332 5.86667 9.53332ZM11 9.53332C10.19 9.53332 9.53333 10.19 9.53333 11C9.53333 11.81 10.19 12.4667 11 12.4667C11.81 12.4667 12.4667 11.81 12.4667 11C12.4667 10.19 11.81 9.53332 11 9.53332ZM16.1333 9.53332C15.3233 9.53332 14.6667 10.19 14.6667 11C14.6667 11.81 15.3233 12.4667 16.1333 12.4667C16.9433 12.4667 17.6 11.81 17.6 11C17.6 10.19 16.9433 9.53332 16.1333 9.53332Z" fill="#300713"/>
</svg>
