<svg width="24" height="23" viewBox="0 0 24 23" fill="none" xmlns="http://www.w3.org/2000/svg">
<g clip-path="url(#clip0_4067_150)">
<path d="M21.4778 21.4666L16.6596 20.032L13.0261 22.204L10.491 22.2029L6.85532 20.032L2.03935 21.4666L0.574341 16.5212L2.03935 11.0325L0.574341 6.39195L2.03935 0.640503L9.56467 5.13654H13.9523L21.4778 0.640503L22.9428 6.39195L21.4778 11.0325L22.9428 16.5212L21.4778 21.4666Z" fill="#FF5C16"/>
<path d="M2.04016 0.640503L9.56564 5.1397L9.26641 8.22747L2.04016 0.640503ZM6.85629 16.5232L10.1674 19.0456L6.85629 20.032V16.5232ZM9.90281 12.3531L9.26641 8.22953L5.1929 11.0337L5.19069 11.0326V11.0347L5.20334 13.9211L6.85519 12.3533L9.90281 12.3531ZM21.4776 0.640503L13.9521 5.1397L14.2504 8.22747L21.4776 0.640503ZM16.6616 16.5232L13.3504 19.0456L16.6616 20.032V16.5232ZM18.326 11.0345V11.0325L18.325 11.0336L14.2515 8.22953L13.6151 12.3531H16.6615L18.3144 13.9207L18.326 11.0345Z" fill="#FF5C16"/>
<path d="M6.85532 20.032L2.03935 21.4666L0.574341 16.5232H6.85532V20.032ZM9.90184 12.3521L10.8218 18.3136L9.54681 14.9988L5.20142 13.9208L6.85422 12.3522H9.90184V12.3521ZM16.6616 20.032L21.4778 21.4666L22.9428 16.5232H16.6616V20.032ZM13.6153 12.3521L12.6953 18.3136L13.9701 14.9988L18.3157 13.9208L16.6618 12.3522H13.6153V12.3521Z" fill="#E34807"/>
<path d="M0.574341 16.5212L2.03935 11.0325H5.18972L5.20126 13.9198L9.54697 14.9978L10.8218 18.3125L10.1665 19.0424L6.85532 16.5201H0.574341V16.5212ZM22.9428 16.5212L21.4778 11.0325H18.3272L18.3157 13.9198L13.9703 14.9978L12.6953 18.3125L13.3505 19.0424L16.6618 16.5201H22.9428V16.5212ZM13.9523 5.13654H9.56467L9.26671 8.22431L10.822 18.3093H12.6953L14.2515 8.22431L13.9523 5.13654Z" fill="#FF8D5D"/>
<path d="M2.03935 0.640503L0.574341 6.39195L2.03935 11.0325H5.18972L9.26544 8.22748L2.03935 0.640503ZM8.99135 13.5494H7.56412L6.78704 14.3112L9.54792 14.9956L8.99135 13.5485V13.5494ZM21.4778 0.640503L22.9428 6.39195L21.4778 11.0325H18.3272L14.2517 8.22748L21.4778 0.640503ZM14.5278 13.5494H15.9571L16.7342 14.3121L13.9701 14.9978L14.5278 13.5483V13.5494ZM13.025 20.2367L13.3507 19.0445L12.6953 18.3145H10.8206L10.1653 19.0445L10.4908 20.2367" fill="#661800"/>
<path d="M13.025 20.2365V22.205H10.491V20.2365H13.025Z" fill="#C0C4CD"/>
<path d="M6.85645 20.0299L10.493 22.204V20.2356L10.1674 19.0435L6.85645 20.0299ZM16.6618 20.0299L13.025 22.204V20.2356L13.3507 19.0435L16.6618 20.0299Z" fill="#E7EBF6"/>
</g>
<defs>
<clipPath id="clip0_4067_150">
<rect width="22.4462" height="21.6558" fill="white" transform="translate(0.574341 0.640503)"/>
</clipPath>
</defs>
</svg>
