<svg width="25" height="25" viewBox="0 0 25 25" fill="none" xmlns="http://www.w3.org/2000/svg">
<path d="M24.3838 12.4407C24.3838 18.9539 19.1037 24.2342 12.5893 24.2342C6.07503 24.2342 0.794922 18.9539 0.794922 12.4407C0.794922 5.92749 6.07516 0.647125 12.5893 0.647125C19.1035 0.647125 24.3838 5.92699 24.3838 12.4407Z" fill="white"/>
<path d="M12.5893 0.647125C6.07733 0.647125 0.787862 5.93496 0.796152 12.4403C0.797785 13.7418 1.00535 14.9938 1.39492 16.1649H4.9237V6.24386L12.5893 13.9086L20.2546 6.24386V16.1651H23.7841C24.1742 14.994 24.3807 13.7421 24.3831 12.4405C24.3942 5.92837 19.102 0.648695 12.5893 0.648695V0.647125Z" fill="#F26822"/>
<path d="M10.8265 15.6707L7.48113 12.3255V18.5683H4.92347L2.51001 18.5688C4.58019 21.9648 8.3215 24.2365 12.5893 24.2365C16.8572 24.2365 20.5987 21.9643 22.6692 18.5683H17.6968V12.3255L14.3513 15.6707L12.589 17.4328L10.8266 15.6707H10.8265Z" fill="#4D4D4D"/>
</svg>
