<svg width="18" height="18" viewBox="0 0 18 18" fill="none" xmlns="http://www.w3.org/2000/svg">
<path d="M2.7 0C1.20883 0 0 1.20883 0 2.7V15.3C0 16.7912 1.20883 18 2.7 18H9.9L9.9 13.4446C9.89994 12.8558 9.89989 12.3269 9.95745 11.8988C10.0203 11.4313 10.1662 10.9518 10.559 10.559C10.9518 10.1662 11.4313 10.0203 11.8988 9.95745C12.3269 9.89989 12.8558 9.89994 13.4446 9.9L18 9.9V2.7C18 1.20883 16.7912 0 15.3 0H2.7Z" fill="#7E7E7E"/>
<path d="M17.7575 11.7H13.5C12.8382 11.7 12.4323 11.7019 12.1386 11.7414C11.8804 11.7761 11.8373 11.8255 11.8322 11.8313L11.8313 11.8322C11.8255 11.8373 11.7761 11.8804 11.7414 12.1386C11.7019 12.4323 11.7 12.8382 11.7 13.5V17.7575C11.9916 17.6248 12.2599 17.4401 12.4908 17.2092L17.2092 12.4908C17.4401 12.2599 17.6248 11.9916 17.7575 11.7Z" fill="#7E7E7E"/>
</svg>
