<svg width="27" height="27" viewBox="0 0 27 27" fill="none" xmlns="http://www.w3.org/2000/svg">
<g clip-path="url(#clip0_132_563)">
<path d="M5.69722 14.4781C5.03363 15.7826 5.78707 16.4061 7.50614 17.4713C8.96756 18.3742 10.9865 18.7043 12.2834 18.8364C11.7518 19.3474 14.1875 17.0048 7.17272 23.7522C5.68531 25.1779 8.07988 27.4653 9.5662 26.0699L13.59 22.189C15.1304 23.671 16.607 25.0913 17.6138 26.0753C19.1012 27.4761 21.4946 25.2082 20.0235 23.7576C19.9131 23.6526 14.5707 18.5279 14.8966 18.8418C16.2097 18.7097 18.1983 18.3601 19.6424 17.4767L19.6413 17.4757C21.3604 16.405 22.1138 15.7826 21.46 14.4781C21.0649 13.7377 19.9997 13.1185 18.5815 14.1891C18.5815 14.1891 16.6665 15.6559 13.5781 15.6559C10.4885 15.6559 8.5746 14.1891 8.5746 14.1891C7.15756 13.113 6.08802 13.7377 5.69722 14.4781Z" fill="white"/>
<path d="M13.5759 13.6783C17.3409 13.6783 20.4153 10.736 20.4153 7.11382C20.4153 3.47651 17.3409 0.53418 13.5759 0.53418C9.80975 0.53418 6.73535 3.47651 6.73535 7.11382C6.73535 10.736 9.80975 13.6783 13.5759 13.6783ZM13.5759 3.8673C15.4259 3.8673 16.935 5.31898 16.935 7.11382C16.935 8.89351 15.4259 10.3452 13.5759 10.3452C11.7258 10.3452 10.2168 8.89351 10.2168 7.11382C10.2157 5.3179 11.7247 3.8673 13.5759 3.8673Z" fill="white"/>
</g>
<defs>
<clipPath id="clip0_132_563">
<rect width="25.9808" height="25.9808" fill="white" transform="translate(0.585938 0.53418)"/>
</clipPath>
</defs>
</svg>
