<svg width="26" height="24" viewBox="0 0 26 24" fill="none" xmlns="http://www.w3.org/2000/svg">
<path fill-rule="evenodd" clip-rule="evenodd" d="M19.4737 12.3084C18.2881 12.3084 17.1753 12.5384 16.2393 12.9284C19.5153 13.8384 21.8345 16.0184 21.8969 18.5684C23.6025 18.3584 25.4433 17.7384 25.4433 16.0484C25.4433 14.0184 22.7081 12.3084 19.4737 12.3084Z" fill="#464646"/>
<path fill-rule="evenodd" clip-rule="evenodd" d="M19.4422 10.8684H19.463C21.6782 10.8684 23.4878 9.12843 23.4878 7.00843C23.4878 4.87843 21.6782 3.13843 19.463 3.13843C19.0262 3.13843 18.6102 3.20843 18.215 3.32843C18.9326 4.34843 19.3486 5.57843 19.3486 6.90843C19.359 8.25843 18.9222 9.55843 18.1006 10.6384C18.527 10.7884 18.9742 10.8684 19.4422 10.8684Z" fill="#464646"/>
<path fill-rule="evenodd" clip-rule="evenodd" d="M9.22973 12.9184C8.29373 12.5384 7.18093 12.3084 6.00573 12.3084C2.77133 12.3084 0.0361328 14.0184 0.0361328 16.0484C0.0361328 17.7384 1.86653 18.3484 3.57213 18.5684C3.62413 16.0184 5.94333 13.8384 9.22973 12.9184Z" fill="#464646"/>
<path fill-rule="evenodd" clip-rule="evenodd" d="M6.00561 10.8684H6.03681C6.50481 10.8684 6.95201 10.7884 7.37841 10.6384C6.58801 9.59843 6.12001 8.30843 6.12001 6.90843C6.12001 5.57843 6.53601 4.34843 7.25361 3.32843C6.85841 3.20843 6.44241 3.13843 6.00561 3.13843C3.79041 3.13843 1.99121 4.87843 1.99121 7.00843C1.99121 9.12843 3.79041 10.8684 6.00561 10.8684Z" fill="#464646"/>
<path fill-rule="evenodd" clip-rule="evenodd" d="M12.7341 13.9454C8.61467 13.9454 5.13379 16.1014 5.13379 18.6534C5.13379 21.9534 10.8538 21.9534 12.7341 21.9534C15.9976 21.9534 20.3365 21.6134 20.3365 18.6744C20.3365 16.1104 16.8546 13.9454 12.7341 13.9454Z" fill="#464646"/>
<path fill-rule="evenodd" clip-rule="evenodd" d="M12.7352 11.7745H12.7696C14.1164 11.7705 15.381 11.2615 16.3295 10.3425C17.279 9.42351 17.799 8.20451 17.7938 6.91151C17.7938 4.22851 15.5256 2.04651 12.7352 2.04651C9.94597 2.04651 7.67773 4.22851 7.67773 6.91151C7.67773 9.59251 9.94597 11.7745 12.7352 11.7745Z" fill="#464646"/>
</svg>
