<svg width="25" height="25" viewBox="0 0 25 25" fill="none" xmlns="http://www.w3.org/2000/svg">
<path d="M12.5894 24.2365C19.1034 24.2365 24.3841 18.9559 24.3841 12.4418C24.3841 5.9278 19.1034 0.647125 12.5894 0.647125C6.07535 0.647125 0.794678 5.9278 0.794678 12.4418C0.794678 18.9559 6.07535 24.2365 12.5894 24.2365Z" fill="url(#paint0_linear_4067_405)"/>
<path d="M21.0377 12.6064H18.953C18.953 8.38226 15.4969 4.92614 11.2728 4.92614C7.04862 4.92614 3.64735 8.27254 3.59249 12.4418C3.48277 16.7208 7.54235 20.5061 11.8762 20.5061H12.4248C16.2101 20.5061 21.3668 17.5437 22.1349 13.923C22.2446 13.2099 21.696 12.6064 21.0377 12.6064ZM8.1458 12.771C8.1458 13.3196 7.70693 13.8133 7.10348 13.8133C6.55488 13.8133 6.06115 13.3744 6.06115 12.771V11.1252C6.06115 10.5766 6.50002 10.0829 7.10348 10.0829C7.65207 10.0829 8.1458 10.5218 8.1458 11.1252V12.771ZM11.7665 12.771C11.7665 13.3196 11.3276 13.8133 10.7242 13.8133C10.1756 13.8133 9.68185 13.3744 9.68185 12.771V11.1252C9.68185 10.5766 10.1207 10.0829 10.7242 10.0829C11.2728 10.0829 11.7665 10.5218 11.7665 11.1252V12.771Z" fill="url(#paint1_linear_4067_405)"/>
<defs>
<linearGradient id="paint0_linear_4067_405" x1="12.5894" y1="0.647125" x2="12.5894" y2="24.2365" gradientUnits="userSpaceOnUse">
<stop stop-color="#534BB1"/>
<stop offset="1" stop-color="#551BF9"/>
</linearGradient>
<linearGradient id="paint1_linear_4067_405" x1="12.8403" y1="4.91329" x2="12.8403" y2="20.4723" gradientUnits="userSpaceOnUse">
<stop stop-color="white"/>
<stop offset="1" stop-color="white" stop-opacity="0.82"/>
</linearGradient>
</defs>
</svg>
