<svg width="24" height="26" viewBox="0 0 24 26" fill="none" xmlns="http://www.w3.org/2000/svg">
<path d="M21.2904 16.7343L19.7492 15.0411C19.3297 14.5793 19.1299 14.3743 18.7907 14.353C18.4458 14.3405 18 14.905 17.6251 15.361C17.4524 15.5734 17.2737 15.7931 17.0896 15.9842C15.008 18.218 11.6178 18.5487 10.1877 15.7424C9.77843 14.8995 9.73722 14.0016 10.0718 13.2142C10.1465 13.0383 10.236 12.8746 10.315 12.7302C10.4142 12.5487 10.525 12.346 10.5411 12.2241C10.5104 12.1851 10.4601 12.1296 10.4237 12.0895C10.2931 11.9456 10.1307 11.7665 10.0193 11.522C9.5233 10.4337 9.84378 9.02642 10.7986 8.09976C11.5899 7.33185 12.6256 7.01681 13.3976 6.85187C11.7496 4.96678 13.06 1.85456 15.5315 1.86369H17.4644C15.7332 0.925902 13.7033 0.434353 11.6188 0.507058C11.6137 0.508034 11.6088 0.509548 11.6037 0.510378C10.3687 0.715308 9.24924 1.56608 8.68213 2.73077C8.27038 3.58291 8.104 4.61977 7.76777 5.54539C7.41593 6.52951 6.72459 7.79547 5.4289 8.23814C5.10379 8.34927 4.78673 8.39439 4.47887 8.39439C3.29725 8.40123 2.29438 7.72819 1.20595 7.53678C0.598242 8.83584 0.199571 10.2608 0.0561163 11.7642C0.556566 11.829 1.05912 11.7829 1.72947 11.6276C2.15392 11.5292 2.85821 11.3659 3.40362 11.8849C3.64782 12.1173 3.75982 12.403 3.83712 12.6519C3.91227 12.8937 3.97115 13.1326 4.02807 13.3635C4.10082 13.6586 4.1695 13.9373 4.2642 14.1915C4.35248 14.4285 4.54839 14.8493 4.86891 15.006C4.95306 15.0471 5.06905 15.0814 5.19183 15.1177C5.40401 15.1805 5.64455 15.2517 5.88777 15.3975C6.51437 15.773 6.92402 16.5342 6.98365 17.4334C7.07502 18.8118 6.54133 19.7641 5.97628 20.7724L5.89958 20.9094C5.2726 22.0314 5.04903 22.6925 4.98776 23.1574C6.64916 24.4013 8.62882 25.2143 10.7761 25.4396C10.7853 24.9334 10.715 24.5034 10.4814 23.9746C10.4175 23.83 10.3339 23.6784 10.2455 23.5179C10.0054 23.0821 9.73338 22.5882 9.70248 21.9659C9.65405 20.9876 10.2684 20.0246 11.2312 19.5696C12.0523 19.1816 12.9355 19.2083 13.6132 19.2749C16.1703 19.5248 18.0179 20.6139 20.3061 21.4471C20.4058 21.4834 20.5745 21.5447 20.7399 21.5816C21.7095 20.5114 22.4996 19.2628 23.059 17.8865C22.38 17.6772 21.7409 17.2292 21.2904 16.7343Z" fill="#464646"/>
<path d="M4.68632 19.986C5.20805 19.0551 5.55267 18.4402 5.49308 17.5409C5.46861 17.1723 5.33125 16.8613 5.14321 16.7486C5.05958 16.6984 4.92573 16.6588 4.78401 16.6169C4.61754 16.5676 4.4288 16.5118 4.235 16.4171C3.63938 16.126 3.1679 15.5516 2.87152 14.7559C2.74457 14.4151 2.66141 14.0778 2.58101 13.7515C2.52737 13.5339 2.4767 13.3283 2.41575 13.1322C2.40975 13.113 2.40441 13.0964 2.39967 13.0823C2.30174 13.0912 2.15467 13.1253 2.05735 13.1479C1.36193 13.3091 0.713802 13.3983 0 13.3243C0.0790405 16.7642 1.48878 19.8522 3.71322 22.0581C3.92821 21.3831 4.26402 20.7415 4.60859 20.1248L4.68632 19.986Z" fill="#464646"/>
<path d="M19.4749 22.792C18.9294 22.5846 18.4132 22.3693 17.9117 22.1598C16.4674 21.5564 15.1033 20.9865 13.473 20.8263C12.9794 20.7777 12.3484 20.7524 11.8477 20.989C11.4591 21.1726 11.1783 21.5581 11.1945 21.8855C11.2069 22.1352 11.3617 22.4162 11.5409 22.7417C11.6419 22.9249 11.7463 23.1144 11.8382 23.3225C12.189 24.1164 12.2839 24.7808 12.2673 25.5C14.99 25.4382 17.489 24.4362 19.4749 22.792Z" fill="#464646"/>
<path d="M11.4378 13.8455C11.2363 14.3198 11.4032 14.7964 11.5207 15.0383C11.7873 15.5874 12.3056 16.0214 12.8411 16.1439C13.6239 16.3233 14.8742 16.0851 16.0357 14.8796C16.1752 14.7349 16.326 14.5494 16.4858 14.353C17.0738 13.63 17.8063 12.7308 18.8803 12.7975C19.8228 12.8566 20.3599 13.4477 20.8337 13.9691L22.374 15.6614C22.6866 16.0048 23.1501 16.3094 23.5542 16.4153C24.3412 13.6049 24.0728 10.243 22.8548 7.66901C22.5505 7.78395 22.2225 7.84693 21.8807 7.84693H16.3536C15.7768 8.02598 15.1965 8.12037 14.6331 8.21148C13.6003 8.3522 12.3744 8.64932 11.8164 9.24062C11.2853 9.75605 11.1888 10.4534 11.3673 10.8499C11.387 10.8841 11.4603 10.9649 11.509 11.0186C11.6909 11.2191 11.9658 11.522 12.0232 11.973C12.1037 12.6046 11.8316 13.1023 11.6129 13.5022C11.5455 13.6253 11.4819 13.7418 11.4378 13.8455Z" fill="#464646"/>
<path d="M2.96088 6.447C3.71036 6.72463 4.35778 6.96433 4.96371 6.7573C6.09461 6.29993 6.4065 4.9076 6.69449 3.92085C6.86766 3.29492 7.04679 2.64771 7.34997 2.02516C7.47359 1.7713 7.61639 1.52839 7.77579 1.29802C5.39191 2.23287 3.36902 3.93588 1.98394 6.11819C2.32724 6.21262 2.65344 6.33313 2.96088 6.447Z" fill="#464646"/>
<path d="M15.5315 3.42197C13.7079 3.50093 13.7093 6.21033 15.5315 6.2886H19.363C18.8989 5.44935 18.8987 4.26142 19.3624 3.42197H15.5315Z" fill="#464646"/>
<path d="M20.5055 4.85484C20.5812 6.75734 23.1796 6.75602 23.255 4.85508C23.2548 4.06485 22.6384 3.42197 21.8807 3.42197H21.8448C21.1031 3.44175 20.5055 4.07666 20.5055 4.85484Z" fill="#464646"/>
</svg>
