<svg width="21" height="21" viewBox="0 0 21 21" fill="none" xmlns="http://www.w3.org/2000/svg">
<g clip-path="url(#clip0_8_210)">
<path d="M0.956314 3.25134V17.7906C0.957313 18.2999 1.09211 18.8 1.34719 19.2408C1.60228 19.6815 1.9687 20.0475 2.40977 20.3021C2.85083 20.5567 3.35104 20.691 3.86031 20.6914C4.36958 20.6918 4.87002 20.5584 5.31151 20.3046L17.9293 13.034C18.3698 12.7797 18.7356 12.4139 18.99 11.9734C19.2443 11.5329 19.3782 11.0332 19.3782 10.5246C19.3782 10.0159 19.2443 9.51619 18.99 9.07569C18.7356 8.63518 18.3698 8.2694 17.9293 8.01511L5.31151 0.744562C4.87054 0.491005 4.37075 0.357617 3.86209 0.357727C3.35342 0.357838 2.8537 0.491443 2.41284 0.745191C1.97199 0.998939 1.60545 1.36394 1.34985 1.80373C1.09426 2.24351 0.958558 2.74268 0.956314 3.25134Z" fill="white"/>
</g>
<defs>
<clipPath id="clip0_8_210">
<rect width="20.3343" height="20.3343" fill="white" transform="translate(0 0.357361)"/>
</clipPath>
</defs>
</svg>
