<svg width="41" height="44" viewBox="0 0 41 44" fill="none" xmlns="http://www.w3.org/2000/svg">
<path d="M20.0724 43.3363C20.0117 43.4571 19.8841 43.608 19.7809 43.6688C19.6777 43.7292 19.4834 43.7773 19.3256 43.7773C19.0827 43.7773 18.8216 43.6446 16.8363 42.5149C15.6158 41.8202 14.5351 41.1738 14.438 41.0832C14.3348 40.9866 14.2316 40.8114 14.2073 40.6966C14.183 40.5819 14.1891 40.3885 14.2255 40.2738C14.2558 40.159 14.3408 40.002 14.4198 39.9355C14.4987 39.863 14.9177 39.6033 15.3487 39.3556C15.7859 39.1019 16.2594 38.8301 16.4112 38.7515C16.563 38.667 17.1884 38.3045 17.8077 37.9482C18.7973 37.3683 18.9673 37.2897 19.2649 37.2716C19.5259 37.2535 19.6413 37.2716 19.7991 37.3683C19.9024 37.4407 20.0359 37.5918 20.0845 37.7065C20.1634 37.8817 20.1756 38.3408 20.1756 40.5154C20.1756 42.8651 20.1634 43.1369 20.0724 43.3363Z" fill="url(#paint0_linear_248_636)"/>
<path d="M21.4591 37.6249C21.5199 37.5041 21.6474 37.3531 21.7506 37.2927C21.8538 37.2323 22.0481 37.184 22.2059 37.184C22.4488 37.184 22.7099 37.3169 24.6953 38.4464C25.9156 39.1411 26.9964 39.7874 27.0935 39.8781C27.1967 39.9747 27.3 40.1499 27.3243 40.2647C27.3485 40.3795 27.3425 40.5727 27.306 40.6875C27.2757 40.8023 27.1907 40.9593 27.1117 41.0258C27.0328 41.0983 26.6139 41.358 26.1828 41.6057C25.7456 41.8594 25.2721 42.1312 25.1203 42.2097C24.9685 42.2943 24.3431 42.6567 23.7238 43.0131C22.7342 43.5931 22.5642 43.6714 22.2667 43.6897C22.0056 43.7079 21.8902 43.6897 21.7324 43.5931C21.6292 43.5204 21.4956 43.3695 21.447 43.2547C21.3681 43.0795 21.3559 42.6205 21.3559 40.4459C21.3559 38.0961 21.3681 37.8242 21.4591 37.6249Z" fill="url(#paint1_linear_248_636)"/>
<path d="M32.6539 31.0046C32.7167 30.88 32.8485 30.7243 32.9552 30.662C33.0619 30.5997 33.2628 30.5499 33.4261 30.5499C33.6772 30.5499 33.9472 30.6869 36.0001 31.8518C37.262 32.5682 38.3795 33.2347 38.4799 33.3282C38.5866 33.4278 38.6934 33.6085 38.7185 33.7269C38.7436 33.8452 38.7373 34.0445 38.6996 34.1629C38.6682 34.2813 38.5803 34.4432 38.4987 34.5117C38.4171 34.5865 37.984 34.8544 37.5382 35.1098C37.0862 35.3714 36.5965 35.6517 36.4395 35.7327C36.2826 35.8199 35.636 36.1937 34.9956 36.5612C33.9722 37.1592 33.7965 37.2402 33.4888 37.2589C33.2189 37.2776 33.0996 37.2589 32.9364 37.1593C32.8297 37.0845 32.6915 36.9287 32.6413 36.8104C32.5597 36.6298 32.5471 36.1563 32.5471 33.9137C32.5471 31.4905 32.5597 31.2102 32.6539 31.0046Z" fill="url(#paint2_linear_248_636)"/>
<path d="M39.8083 31.2754C39.7456 31.4 39.6137 31.5558 39.507 31.618C39.4003 31.6803 39.1994 31.7302 39.0362 31.7302C38.785 31.7302 38.5151 31.5931 36.4622 30.4282C35.2002 29.7119 34.0828 29.0453 33.9823 28.9519C33.8756 28.8522 33.7689 28.6715 33.7437 28.5532C33.7187 28.4348 33.7249 28.2355 33.7626 28.1171C33.794 27.9988 33.8819 27.8368 33.9635 27.7683C34.0451 27.6935 34.4783 27.4257 34.924 27.1703C35.376 26.9086 35.8657 26.6283 36.0227 26.5473C36.1796 26.4601 36.8263 26.0864 37.4666 25.7188C38.4899 25.1208 38.6657 25.0398 38.9734 25.0211C39.2433 25.0024 39.3626 25.0211 39.5258 25.1208C39.6325 25.1955 39.7707 25.3513 39.8209 25.4696C39.9025 25.6503 39.9151 26.1237 39.9151 28.3663C39.9151 30.7895 39.9025 31.0698 39.8083 31.2754Z" fill="url(#paint3_linear_248_636)"/>
<path d="M8.9171 36.892C8.85434 37.0166 8.72248 37.1723 8.61574 37.2346C8.50905 37.2969 8.30813 37.3468 8.14493 37.3468C7.89379 37.3468 7.62385 37.2097 5.57092 36.0448C4.30902 35.3284 3.19153 34.6619 3.09108 34.5685C2.98435 34.4688 2.87763 34.2881 2.85251 34.1698C2.8274 34.0514 2.83368 33.8521 2.87135 33.7337C2.90274 33.6154 2.99063 33.4534 3.07225 33.3849C3.15386 33.3101 3.58704 33.0423 4.03279 32.7868C4.48481 32.5252 4.9745 32.2449 5.13145 32.1639C5.2884 32.0767 5.93505 31.7029 6.5754 31.3354C7.59872 30.7374 7.77451 30.6564 8.08212 30.6377C8.3521 30.619 8.47138 30.6377 8.63458 30.7374C8.74131 30.8122 8.87943 30.9679 8.92965 31.0862C9.01129 31.2669 9.02384 31.7403 9.02384 33.9829C9.02384 36.4061 9.01129 36.6865 8.9171 36.892Z" fill="url(#paint4_linear_248_636)"/>
<path d="M1.68247 25.795C1.74525 25.6704 1.87709 25.5147 1.98381 25.4524C2.09054 25.3901 2.29144 25.3403 2.45467 25.3403C2.70579 25.3403 2.97574 25.4773 5.02867 26.6422C6.29054 27.3586 7.40804 28.0252 7.50848 28.1186C7.61522 28.2183 7.72195 28.3989 7.74708 28.5173C7.77217 28.6356 7.76588 28.835 7.72824 28.9533C7.69682 29.0717 7.60892 29.2337 7.52732 29.3022C7.44572 29.3769 7.01254 29.6448 6.56677 29.9002C6.11475 30.1618 5.6251 30.4422 5.46814 30.5231C5.31119 30.6103 4.66454 30.9841 4.02418 31.3516C3.00086 31.9496 2.82507 32.0307 2.51745 32.0493C2.24749 32.068 2.12821 32.0493 1.96498 31.9496C1.85825 31.8749 1.72014 31.7192 1.66991 31.6008C1.58829 31.4201 1.57574 30.9467 1.57574 28.7042C1.57574 26.2809 1.5883 26.0006 1.68247 25.795Z" fill="url(#paint5_linear_248_636)"/>
<path d="M1.68247 12.6896C1.74525 12.565 1.87709 12.4093 1.98381 12.347C2.09054 12.2847 2.29144 12.2349 2.45467 12.2349C2.70579 12.2349 2.97574 12.372 5.02867 13.5369C6.29054 14.2532 7.40804 14.9198 7.50848 15.0132C7.61522 15.1129 7.72195 15.2935 7.74708 15.4119C7.77217 15.5303 7.76588 15.7296 7.72824 15.848C7.69682 15.9663 7.60892 16.1283 7.52732 16.1968C7.44572 16.2716 7.01254 16.5394 6.56677 16.7948C6.11475 17.0565 5.6251 17.3368 5.46814 17.4178C5.31119 17.5049 4.66454 17.8787 4.02418 18.2463C3.00086 18.8443 2.82507 18.9253 2.51745 18.944C2.24749 18.9626 2.12821 18.944 1.96498 18.8443C1.85825 18.7695 1.72014 18.6138 1.66991 18.4954C1.58829 18.3148 1.57574 17.8413 1.57574 15.5988C1.57574 13.1756 1.5883 12.8952 1.68247 12.6896Z" fill="url(#paint6_linear_248_636)"/>
<path d="M21.2591 0.64249C21.3219 0.5179 21.4537 0.362167 21.5604 0.299874C21.6672 0.23758 21.868 0.187744 22.0313 0.187744C22.2824 0.187744 22.5524 0.32479 24.6053 1.48968C25.8672 2.20606 26.9847 2.87261 27.0851 2.96605C27.1918 3.06572 27.2986 3.24637 27.3237 3.36473C27.3488 3.48309 27.3425 3.68243 27.3049 3.80079C27.2734 3.91914 27.1855 4.08111 27.1039 4.14963C27.0223 4.22438 26.5892 4.49227 26.1434 4.74766C25.6914 5.0093 25.2017 5.28962 25.0448 5.37058C24.8878 5.45779 24.2412 5.83157 23.6008 6.1991C22.5775 6.7971 22.4017 6.87811 22.0941 6.89677C21.8241 6.91548 21.7048 6.89677 21.5416 6.7971C21.4349 6.72234 21.2967 6.56662 21.2465 6.44828C21.1649 6.2676 21.1524 5.79419 21.1524 3.55161C21.1524 1.12838 21.1649 0.848059 21.2591 0.64249Z" fill="url(#paint7_linear_248_636)"/>
<path d="M19.9875 6.52988C19.9247 6.65447 19.7928 6.81019 19.6861 6.87249C19.5794 6.93479 19.3785 6.98462 19.2153 6.98462C18.9642 6.98462 18.6942 6.84757 16.6413 5.6827C15.3794 4.96631 14.2619 4.29976 14.1614 4.20632C14.0547 4.10665 13.948 3.926 13.9229 3.80764C13.8977 3.68928 13.904 3.48994 13.9417 3.37158C13.9731 3.25322 14.061 3.09126 14.1426 3.02274C14.2242 2.94798 14.6574 2.68012 15.1031 2.42472C15.5552 2.16308 16.0449 1.88276 16.2018 1.80178C16.3588 1.71457 17.0054 1.3408 17.6458 0.97327C18.6691 0.375251 18.8449 0.294267 19.1525 0.275579C19.4225 0.256891 19.5417 0.275579 19.7049 0.37525C19.8117 0.450002 19.9498 0.605737 20 0.724093C20.0817 0.904748 20.0942 1.37818 20.0942 3.62076C20.0942 6.04397 20.0817 6.32433 19.9875 6.52988Z" fill="url(#paint8_linear_248_636)"/>
<path d="M39.8885 18.2107C39.8257 18.3353 39.6939 18.4911 39.5871 18.5534C39.4804 18.6157 39.2795 18.6655 39.1163 18.6655C38.8652 18.6655 38.5952 18.5284 36.5423 17.3636C35.2804 16.6472 34.1629 15.9806 34.0625 15.8872C33.9557 15.7875 33.849 15.6069 33.8239 15.4885C33.7988 15.3702 33.8051 15.1708 33.8427 15.0525C33.8741 14.9341 33.962 14.7721 34.0436 14.7036C34.1253 14.6289 34.5584 14.361 35.0042 14.1056C35.4562 13.844 35.9459 13.5636 36.1028 13.4827C36.2598 13.3954 36.9064 13.0217 37.5468 12.6541C38.5701 12.0561 38.7459 11.9751 39.0535 11.9565C39.3235 11.9377 39.4428 11.9565 39.606 12.0561C39.7127 12.1309 39.8508 12.2866 39.901 12.405C39.9826 12.5856 39.9952 13.059 39.9952 15.3016C39.9952 17.7249 39.9827 18.0052 39.8885 18.2107Z" fill="url(#paint9_linear_248_636)"/>
<path d="M32.533 7.15446C32.5958 7.02987 32.7276 6.87415 32.8344 6.81185C32.9411 6.74956 33.142 6.69972 33.3052 6.69972C33.5564 6.69972 33.8263 6.83677 35.8792 8.00165C37.1411 8.71803 38.2586 9.38458 38.359 9.47805C38.4658 9.57768 38.5725 9.75836 38.5976 9.8767C38.6227 9.99509 38.6164 10.1944 38.5788 10.3128C38.5474 10.4311 38.4595 10.5931 38.3779 10.6616C38.2963 10.7363 37.8631 11.0042 37.4173 11.2596C36.9653 11.5213 36.4757 11.8016 36.3187 11.8826C36.1617 11.9698 35.5151 12.3435 34.8747 12.7111C33.8514 13.3091 33.6756 13.3901 33.368 13.4088C33.098 13.4275 32.9788 13.4088 32.8155 13.3091C32.7088 13.2344 32.5707 13.0786 32.5205 12.9603C32.4389 12.7796 32.4263 12.3062 32.4263 10.0636C32.4263 7.64037 32.4389 7.36006 32.533 7.15446Z" fill="url(#paint10_linear_248_636)"/>
<path d="M8.67294 13.0419C8.61017 13.1665 8.47831 13.3222 8.37158 13.3845C8.26484 13.4468 8.06397 13.4966 7.90072 13.4966C7.64962 13.4966 7.37964 13.3596 5.32671 12.1947C4.06485 11.4783 2.94736 10.8117 2.84691 10.7183C2.74018 10.6186 2.63345 10.438 2.60834 10.3196C2.58323 10.2013 2.58951 10.0019 2.62717 9.88359C2.65856 9.76521 2.74646 9.60324 2.82807 9.53473C2.90969 9.45998 3.34287 9.19213 3.78861 8.93673C4.24063 8.67509 4.73032 8.39478 4.88727 8.31377C5.04423 8.22656 5.69088 7.85282 6.33124 7.48525C7.35455 6.88725 7.53034 6.80629 7.83796 6.78758C8.10789 6.76891 8.22721 6.78758 8.39042 6.88725C8.49715 6.96201 8.63526 7.11772 8.68548 7.23611C8.76713 7.41675 8.77967 7.8902 8.77967 10.1327C8.77967 12.556 8.76713 12.8363 8.67294 13.0419Z" fill="url(#paint11_linear_248_636)"/>
<path d="M10.1735 29.7864C10.2752 29.583 10.4888 29.3287 10.6617 29.2271C10.8346 29.1253 11.16 29.044 11.4244 29.044C11.8312 29.044 12.2685 29.2677 15.594 31.1695C17.6381 32.3391 19.4484 33.4272 19.6111 33.5798C19.784 33.7425 19.9568 34.0374 19.9975 34.2307C20.0382 34.4239 20.028 34.7493 19.967 34.9425C19.9162 35.1358 19.7738 35.4002 19.6416 35.5121C19.5093 35.6341 18.8077 36.0714 18.0856 36.4884C17.3534 36.9155 16.5601 37.3732 16.3059 37.5054C16.0516 37.6478 15.0041 38.258 13.9668 38.858C12.3092 39.8343 12.0244 39.9665 11.5261 39.997C11.0888 40.0275 10.8956 39.997 10.6312 39.8343C10.4583 39.7123 10.2345 39.458 10.1532 39.2648C10.021 38.9699 10.0006 38.197 10.0006 34.5358C10.0006 30.5796 10.021 30.122 10.1735 29.7864Z" fill="url(#paint12_linear_248_636)"/>
<path d="M31.4485 39.2651C31.3468 39.4685 31.1332 39.7228 30.9603 39.8245C30.7874 39.9262 30.462 40.0075 30.1976 40.0075C29.7908 40.0075 29.3535 39.7838 26.028 37.882C23.9838 36.7125 22.1736 35.6243 22.0109 35.4717C21.838 35.309 21.6651 35.0141 21.6245 34.8209C21.5838 34.6276 21.594 34.3022 21.655 34.109C21.7058 33.9157 21.8482 33.6513 21.9804 33.5395C22.1126 33.4174 22.8143 32.9801 23.5364 32.5631C24.2686 32.136 25.0618 31.6783 25.3161 31.5461C25.5703 31.4038 26.6178 30.7936 27.6551 30.1935C29.3128 29.2172 29.5976 29.085 30.0959 29.0545C30.5332 29.024 30.7264 29.0545 30.9908 29.2172C31.1637 29.3392 31.3874 29.5935 31.4688 29.7868C31.601 30.0817 31.6214 30.8546 31.6214 34.5158C31.6214 38.4719 31.601 38.9295 31.4485 39.2651Z" fill="url(#paint13_linear_248_636)"/>
<path d="M10.5591 26.9188C10.4567 27.1219 10.2416 27.3758 10.0674 27.4774C9.89331 27.5789 9.5655 27.6602 9.29917 27.6602C8.88946 27.6602 8.44901 27.4368 5.09951 25.5376C3.04064 24.3697 1.21736 23.283 1.05347 23.1307C0.879338 22.9682 0.705205 22.6737 0.664232 22.4807C0.62326 22.2878 0.633502 21.9628 0.694961 21.7698C0.746176 21.5769 0.889581 21.3128 1.02274 21.2011C1.1559 21.0792 1.86268 20.6426 2.58994 20.2261C3.32745 19.7996 4.12641 19.3426 4.38249 19.2106C4.63857 19.0684 5.6936 18.459 6.73839 17.8598C8.40802 16.8849 8.69484 16.7529 9.19678 16.7224C9.63723 16.692 9.83182 16.7224 10.0981 16.8849C10.2723 17.0068 10.4976 17.2607 10.5796 17.4536C10.7127 17.7481 10.7332 18.52 10.7332 22.1761C10.7332 26.1267 10.7127 26.5837 10.5591 26.9188Z" fill="url(#paint14_linear_248_636)"/>
<path d="M10.0934 4.83632C10.1958 4.63319 10.4109 4.3793 10.585 4.27774C10.7592 4.17618 11.0869 4.09494 11.3533 4.09494C11.763 4.09494 12.2035 4.31836 15.553 6.21751C17.6118 7.3854 19.4351 8.47208 19.599 8.6244C19.7731 8.78692 19.9472 9.08143 19.9882 9.27436C20.0292 9.46733 20.0189 9.79234 19.9575 9.9853C19.9063 10.1782 19.7629 10.4423 19.6297 10.554C19.4965 10.6759 18.7898 11.1126 18.0625 11.529C17.325 11.9555 16.5261 12.4125 16.27 12.5446C16.0139 12.6867 14.9589 13.2961 13.914 13.8953C12.2444 14.8702 11.9576 15.0023 11.4557 15.0327C11.0152 15.0632 10.8206 15.0327 10.5543 14.8702C10.3802 14.7484 10.1548 14.4944 10.0729 14.3015C9.9397 14.007 9.91925 13.2351 9.91925 9.57904C9.91925 5.62844 9.9397 5.17144 10.0934 4.83632Z" fill="url(#paint15_linear_248_636)"/>
<path d="M31.1928 14.2611C31.0903 14.4643 30.8752 14.7182 30.7011 14.8197C30.5269 14.9213 30.1992 15.0025 29.9328 15.0025C29.5231 15.0025 29.0826 14.7791 25.7331 12.8799C23.6743 11.712 21.851 10.6254 21.6871 10.473C21.513 10.3105 21.3389 10.016 21.2979 9.82308C21.2569 9.63011 21.2672 9.30511 21.3286 9.11218C21.3798 8.91921 21.5232 8.65514 21.6564 8.54343C21.7896 8.42156 22.4963 7.98485 23.2236 7.56847C23.9611 7.14196 24.76 6.68492 25.0161 6.55289C25.2722 6.41073 26.3273 5.80138 27.3721 5.20219C29.0417 4.22723 29.3285 4.09521 29.8304 4.06474C30.2709 4.03427 30.4655 4.06474 30.7318 4.22723C30.9059 4.3491 31.1313 4.60299 31.2132 4.79596C31.3464 5.09048 31.3669 5.86231 31.3669 9.5184C31.3669 13.469 31.3464 13.926 31.1928 14.2611Z" fill="url(#paint16_linear_248_636)"/>
<path d="M30.8898 17.087C30.9922 16.8839 31.2073 16.63 31.3815 16.5284C31.5556 16.4269 31.8834 16.3456 32.1497 16.3456C32.5594 16.3456 32.9999 16.569 36.3494 18.4682C38.4082 19.6361 40.2315 20.7228 40.3954 20.8751C40.5696 21.0376 40.7437 21.3321 40.7846 21.525C40.8256 21.718 40.8154 22.043 40.7539 22.2359C40.7027 22.4289 40.5593 22.693 40.4261 22.8047C40.293 22.9266 39.5862 23.3633 38.8589 23.7796C38.1214 24.2062 37.3225 24.6632 37.0664 24.7952C36.8103 24.9374 35.7553 25.5467 34.7105 26.1459C33.0409 27.1209 32.754 27.2529 32.2521 27.2834C31.8117 27.3138 31.6171 27.2834 31.3507 27.1209C31.1766 26.999 30.9512 26.7451 30.8693 26.5521C30.7361 26.2576 30.7157 25.4858 30.7157 21.8297C30.7157 17.8791 30.7361 17.4221 30.8898 17.087Z" fill="url(#paint17_linear_248_636)"/>
<defs>
<linearGradient id="paint0_linear_248_636" x1="20.7244" y1="0.187744" x2="20.7244" y2="43.7773" gradientUnits="userSpaceOnUse">
<stop stop-color="#C27F5A"/>
<stop offset="1" stop-color="#9A5935"/>
</linearGradient>
<linearGradient id="paint1_linear_248_636" x1="20.7244" y1="0.187744" x2="20.7244" y2="43.7773" gradientUnits="userSpaceOnUse">
<stop stop-color="#C27F5A"/>
<stop offset="1" stop-color="#9A5935"/>
</linearGradient>
<linearGradient id="paint2_linear_248_636" x1="20.7244" y1="0.187744" x2="20.7244" y2="43.7773" gradientUnits="userSpaceOnUse">
<stop stop-color="#C27F5A"/>
<stop offset="1" stop-color="#9A5935"/>
</linearGradient>
<linearGradient id="paint3_linear_248_636" x1="20.7244" y1="0.187744" x2="20.7244" y2="43.7773" gradientUnits="userSpaceOnUse">
<stop stop-color="#C27F5A"/>
<stop offset="1" stop-color="#9A5935"/>
</linearGradient>
<linearGradient id="paint4_linear_248_636" x1="20.7244" y1="0.187744" x2="20.7244" y2="43.7773" gradientUnits="userSpaceOnUse">
<stop stop-color="#C27F5A"/>
<stop offset="1" stop-color="#9A5935"/>
</linearGradient>
<linearGradient id="paint5_linear_248_636" x1="20.7244" y1="0.187744" x2="20.7244" y2="43.7773" gradientUnits="userSpaceOnUse">
<stop stop-color="#C27F5A"/>
<stop offset="1" stop-color="#9A5935"/>
</linearGradient>
<linearGradient id="paint6_linear_248_636" x1="20.7244" y1="0.187744" x2="20.7244" y2="43.7773" gradientUnits="userSpaceOnUse">
<stop stop-color="#C27F5A"/>
<stop offset="1" stop-color="#9A5935"/>
</linearGradient>
<linearGradient id="paint7_linear_248_636" x1="20.7244" y1="0.187744" x2="20.7244" y2="43.7773" gradientUnits="userSpaceOnUse">
<stop stop-color="#C27F5A"/>
<stop offset="1" stop-color="#9A5935"/>
</linearGradient>
<linearGradient id="paint8_linear_248_636" x1="20.7244" y1="0.187744" x2="20.7244" y2="43.7773" gradientUnits="userSpaceOnUse">
<stop stop-color="#C27F5A"/>
<stop offset="1" stop-color="#9A5935"/>
</linearGradient>
<linearGradient id="paint9_linear_248_636" x1="20.7244" y1="0.187744" x2="20.7244" y2="43.7773" gradientUnits="userSpaceOnUse">
<stop stop-color="#C27F5A"/>
<stop offset="1" stop-color="#9A5935"/>
</linearGradient>
<linearGradient id="paint10_linear_248_636" x1="20.7244" y1="0.187744" x2="20.7244" y2="43.7773" gradientUnits="userSpaceOnUse">
<stop stop-color="#C27F5A"/>
<stop offset="1" stop-color="#9A5935"/>
</linearGradient>
<linearGradient id="paint11_linear_248_636" x1="20.7244" y1="0.187744" x2="20.7244" y2="43.7773" gradientUnits="userSpaceOnUse">
<stop stop-color="#C27F5A"/>
<stop offset="1" stop-color="#9A5935"/>
</linearGradient>
<linearGradient id="paint12_linear_248_636" x1="20.7244" y1="0.187744" x2="20.7244" y2="43.7773" gradientUnits="userSpaceOnUse">
<stop stop-color="#C27F5A"/>
<stop offset="1" stop-color="#9A5935"/>
</linearGradient>
<linearGradient id="paint13_linear_248_636" x1="20.7244" y1="0.187744" x2="20.7244" y2="43.7773" gradientUnits="userSpaceOnUse">
<stop stop-color="#C27F5A"/>
<stop offset="1" stop-color="#9A5935"/>
</linearGradient>
<linearGradient id="paint14_linear_248_636" x1="20.7244" y1="0.187744" x2="20.7244" y2="43.7773" gradientUnits="userSpaceOnUse">
<stop stop-color="#C27F5A"/>
<stop offset="1" stop-color="#9A5935"/>
</linearGradient>
<linearGradient id="paint15_linear_248_636" x1="20.7244" y1="0.187744" x2="20.7244" y2="43.7773" gradientUnits="userSpaceOnUse">
<stop stop-color="#C27F5A"/>
<stop offset="1" stop-color="#9A5935"/>
</linearGradient>
<linearGradient id="paint16_linear_248_636" x1="20.7244" y1="0.187744" x2="20.7244" y2="43.7773" gradientUnits="userSpaceOnUse">
<stop stop-color="#C27F5A"/>
<stop offset="1" stop-color="#9A5935"/>
</linearGradient>
<linearGradient id="paint17_linear_248_636" x1="20.7244" y1="0.187744" x2="20.7244" y2="43.7773" gradientUnits="userSpaceOnUse">
<stop stop-color="#C27F5A"/>
<stop offset="1" stop-color="#9A5935"/>
</linearGradient>
</defs>
</svg>
