<svg width="26" height="23" viewBox="0 0 26 23" fill="none" xmlns="http://www.w3.org/2000/svg">
<path d="M25.5672 13.0527C26.5386 10.8737 21.7079 4.75661 17.0873 2.23628C14.1732 0.267265 11.154 0.5298 10.524 1.39616C9.18503 3.28642 14.9871 4.91413 18.8726 6.77813C18.0325 7.14568 17.2449 7.80201 16.7985 8.61587C15.3546 7.04066 12.1779 5.67548 8.44993 6.77813C5.9296 7.51323 3.85558 9.27221 3.04172 11.8976C2.85794 11.8188 2.62166 11.7663 2.41163 11.7663C1.54527 11.7663 0.836426 12.4751 0.836426 13.3415C0.836426 14.2079 1.54527 14.9167 2.41163 14.9167C2.56916 14.9167 3.06797 14.8117 3.06797 14.8117L11.154 14.8642C7.92487 20.0099 5.35202 20.745 5.35202 21.6376C5.35202 22.5302 7.7936 22.2939 8.71247 21.9526C13.1231 20.3774 17.8487 15.4155 18.6625 13.9978C22.0755 14.4441 24.9371 14.4704 25.5672 13.0527Z" fill="url(#paint0_linear_4067_159)"/>
<path fill-rule="evenodd" clip-rule="evenodd" d="M18.8988 6.77813C19.0826 6.69937 19.0563 6.43683 19.0038 6.22681C18.8988 5.75424 16.9298 3.81149 15.0921 2.94512C12.5717 1.76371 10.734 1.81622 10.4715 2.36754C10.9703 3.41768 13.3593 4.38906 15.8272 5.4392C16.851 5.85926 17.9274 6.30557 18.8988 6.77813Z" fill="url(#paint1_linear_4067_159)"/>
<path fill-rule="evenodd" clip-rule="evenodd" d="M15.6959 17.332C15.1971 17.1483 14.6195 16.9645 13.9632 16.807C14.6458 15.573 14.8033 13.709 14.1469 12.5539C13.2281 10.9262 12.0729 10.0598 9.36881 10.0598C7.89861 10.0598 3.90808 10.5586 3.82932 13.8928C3.82932 14.2341 3.82932 14.5492 3.85557 14.8642H11.154C10.1827 16.4132 9.26379 17.5683 8.44993 18.4347C9.42131 18.671 10.2089 18.881 10.944 19.091C11.6266 19.2748 12.2829 19.4323 12.9393 19.6161C13.9369 18.881 14.882 18.0934 15.6959 17.332Z" fill="url(#paint2_linear_4067_159)"/>
<path d="M2.9367 14.4704C3.22549 16.9907 4.66943 17.9884 7.60982 18.2772C10.5502 18.5659 12.2304 18.3822 14.462 18.5659C16.326 18.7235 18.0062 19.6948 18.61 19.3535C19.1614 19.0648 18.8463 17.9884 18.1112 17.3058C17.1398 16.4132 15.8009 15.8093 13.4644 15.573C13.9369 14.2866 13.8056 12.4751 13.0705 11.5038C12.0204 10.0861 10.0777 9.45598 7.60982 9.71852C5.03698 10.0336 2.56916 11.32 2.9367 14.4704Z" fill="url(#paint3_linear_4067_159)"/>
<defs>
<linearGradient id="paint0_linear_4067_159" x1="8.18286" y1="11.0196" x2="25.391" y2="15.8995" gradientUnits="userSpaceOnUse">
<stop stop-color="#8797FF"/>
<stop offset="1" stop-color="#AAA8FF"/>
</linearGradient>
<linearGradient id="paint1_linear_4067_159" x1="33.8478" y1="43.0555" x2="-17.0538" y2="10.1346" gradientUnits="userSpaceOnUse">
<stop stop-color="#3B22A0"/>
<stop offset="1" stop-color="#5156D8" stop-opacity="0"/>
</linearGradient>
<linearGradient id="paint2_linear_4067_159" x1="26.4106" y1="18.1285" x2="0.562893" y2="4.30346" gradientUnits="userSpaceOnUse">
<stop stop-color="#3B1E8F"/>
<stop offset="1" stop-color="#6A6FFB" stop-opacity="0"/>
</linearGradient>
<linearGradient id="paint3_linear_4067_159" x1="7.35164" y1="12.4349" x2="15.4137" y2="22.6785" gradientUnits="userSpaceOnUse">
<stop stop-color="#8898FF"/>
<stop offset="0.9839" stop-color="#5F47F1"/>
</linearGradient>
</defs>
</svg>
