<svg width="13" height="13" viewBox="0 0 13 13" fill="none" xmlns="http://www.w3.org/2000/svg">
<path fill-rule="evenodd" clip-rule="evenodd" d="M2.17875 7.80279L1.59182 4.13507C1.55323 3.89441 1.65934 3.65327 1.86286 3.5192C2.06638 3.38513 2.32922 3.38272 2.53515 3.51245L4.37408 4.67377L6.30126 2.46494C6.41893 2.3299 6.58966 2.25226 6.76858 2.25226C6.94751 2.25226 7.11823 2.3299 7.23591 2.46494L9.16309 4.67377L11.002 3.51245C11.2079 3.38272 11.4708 3.38513 11.6743 3.5192C11.8778 3.65327 11.9839 3.89441 11.9453 4.13507L11.3584 7.80279H2.17875ZM11.2427 8.52621L11.0715 9.59541C11.0035 10.0217 10.6355 10.3352 10.2043 10.3352H3.33284C2.90168 10.3352 2.5337 10.0217 2.4657 9.59541L2.29449 8.52621H11.2427Z" fill="white"/>
</svg>
