<svg width="25" height="24" viewBox="0 0 25 24" fill="none" xmlns="http://www.w3.org/2000/svg">
<path d="M21.4811 8.8725C20.7176 8.8725 20.0457 9.19383 19.5511 9.69447C17.7329 8.41719 15.281 7.59521 12.5643 7.50758L13.9756 1.05467L18.4692 2.07811C18.4692 3.19422 19.3657 4.10585 20.4657 4.10585C21.5869 4.10585 22.4884 3.17004 22.4884 2.05292C22.4884 0.935803 21.5929 0 20.4667 0C19.682 0 19.0051 0.480493 18.6677 1.13727L13.7046 0.0211538C13.4548 -0.0463368 13.21 0.134981 13.1435 0.388827L11.5942 7.50254C8.89865 7.61637 6.47302 8.43734 4.64876 9.71563C4.15416 9.19383 3.45609 8.8725 2.69254 8.8725C-0.140056 8.8725 -1.0678 12.7295 1.52606 14.0481C1.43439 14.4561 1.39309 14.8913 1.39309 15.3254C1.39309 19.6579 6.20305 23.1684 12.109 23.1684C18.0401 23.1684 22.8501 19.6579 22.8501 15.3254C22.8501 14.8913 22.8047 14.4359 22.6929 14.027C25.2344 12.7033 24.2986 8.87451 21.4811 8.8725ZM5.64198 14.3221C5.64198 13.1848 6.53849 12.2692 7.66468 12.2692C8.76468 12.2692 9.6622 13.1788 9.6622 14.3221C9.6622 15.4392 8.76568 16.3499 7.66468 16.3499C6.54353 16.3549 5.64198 15.4392 5.64198 14.3221ZM16.5603 19.1552C14.7059 21.0369 9.47282 21.0369 7.61734 19.1552C7.41285 18.9739 7.41285 18.6536 7.61734 18.4471C7.79563 18.2658 8.11193 18.2658 8.29023 18.4471C9.70652 19.9208 14.4047 19.946 15.8824 18.4471C16.0607 18.2658 16.377 18.2658 16.5553 18.4471C16.7638 18.6546 16.7638 18.9749 16.5603 19.1552ZM16.519 16.3539C15.4191 16.3539 14.5225 15.4443 14.5225 14.3282C14.5225 13.1909 15.4191 12.2752 16.519 12.2752C17.6402 12.2752 18.5417 13.1848 18.5417 14.3282C18.5367 15.4392 17.6402 16.3539 16.519 16.3539Z" fill="white"/>
</svg>
