<svg width="24" height="23" viewBox="0 0 24 23" fill="none" xmlns="http://www.w3.org/2000/svg">
<path d="M10.6191 0.209442C9.93701 0.209442 9.28294 0.48105 8.80067 0.964513L1.22507 8.55879C0.938135 8.84643 0.794678 9.22343 0.794678 9.60042C0.794678 9.97742 0.938146 10.3544 1.22507 10.642L6.18961 15.6188V6.8082C6.18961 6.15068 6.71715 5.61766 7.37306 5.61766C10.1441 5.61766 16.8894 5.61766 17.8094 5.61766L23.2044 0.209519L10.6191 0.209442Z" fill="#4A21EF"/>
<path d="M6.1898 17.2659H16.6221C17.278 17.2659 17.8096 16.7329 17.8096 16.0754V7.26484L22.7742 12.2415C23.0611 12.5292 23.2046 12.9062 23.2046 13.2832C23.2046 13.6602 23.0611 14.0371 22.7742 14.3248L15.1985 21.9191C14.7163 22.4025 14.0622 22.6742 13.3802 22.6742L0.794883 22.6741L6.1898 17.2659Z" fill="#4A21EF"/>
</svg>
