<svg width="13" height="13" viewBox="0 0 13 13" fill="none" xmlns="http://www.w3.org/2000/svg">
<path fill-rule="evenodd" clip-rule="evenodd" d="M6.0919 0.31778L1.84186 1.40896C1.59114 1.47334 1.41573 1.69991 1.41573 1.96003V6.56703C1.41573 8.78109 3.0624 11.4234 6.19985 12.4902C6.41031 12.5617 6.63868 12.5617 6.84915 12.4902C9.9866 11.4234 11.6333 8.78109 11.6333 6.56703V1.96047C11.6333 1.70036 11.4579 1.47334 11.2071 1.40896L6.9571 0.31778C6.67327 0.244903 6.37573 0.244903 6.0919 0.31778ZM4.83514 6.0182C4.57614 5.75923 4.15626 5.75923 3.89729 6.0182C3.63831 6.2772 3.63831 6.69708 3.89729 6.95606L5.52983 8.5886C5.78881 8.84758 6.20869 8.84758 6.46769 8.5886L9.59384 5.46245C9.85281 5.20348 9.85281 4.78358 9.59384 4.5246C9.33486 4.26562 8.91496 4.26562 8.65599 4.5246L5.99876 7.18185L4.83514 6.0182Z" fill="#5A5A5A"/>
</svg>
