<svg width="13" height="13" viewBox="0 0 13 13" fill="none" xmlns="http://www.w3.org/2000/svg">
<g clip-path="url(#clip0_132_1676)">
<path d="M12.0159 5.3332L11.054 5.21093C10.9747 4.96676 10.8769 4.7314 10.7629 4.50785L11.3569 3.74283C11.5974 3.43327 11.5693 2.99628 11.2945 2.73018L10.4885 1.92423C10.2199 1.64689 9.78292 1.61925 9.47289 1.8593L8.7089 2.45332C8.48526 2.33929 8.2499 2.24147 8.00526 2.16221L7.88299 1.20175C7.83698 0.816477 7.50999 0.526306 7.12266 0.526306H5.9764C5.58907 0.526306 5.26208 0.816477 5.21607 1.20025L5.0938 2.16221C4.84917 2.24147 4.61381 2.33873 4.39016 2.45332L3.62571 1.8593C3.31661 1.61925 2.87962 1.64689 2.61306 1.9217L1.8071 2.72709C1.52976 2.99628 1.50166 3.43327 1.74217 3.7433L2.33619 4.50785C2.2216 4.7314 2.12435 4.96676 2.04508 5.21093L1.08462 5.3332C0.699351 5.3792 0.40918 5.7062 0.40918 6.09353V7.23979C0.40918 7.62712 0.699351 7.95411 1.08312 8.00011L2.04508 8.12239C2.12435 8.36655 2.22216 8.60191 2.33619 8.82547L1.74217 9.59048C1.50166 9.90005 1.52976 10.337 1.80457 10.6031L2.61053 11.4091C2.87962 11.6859 3.31614 11.7135 3.62617 11.4735L4.39072 10.8794C4.61427 10.994 4.84963 11.0918 5.0938 11.1706L5.21607 12.1305C5.26208 12.5168 5.58907 12.807 5.9764 12.807H7.12266C7.50999 12.807 7.83698 12.5168 7.88299 12.1331L8.00526 11.1711C8.24943 11.0918 8.48479 10.994 8.70834 10.88L9.47336 11.474C9.78292 11.7145 10.2199 11.6864 10.486 11.4116L11.292 10.6057C11.5693 10.3366 11.5974 9.90005 11.3569 9.59001L10.7629 8.82547C10.8775 8.60191 10.9752 8.36655 11.054 8.12239L12.014 8.00011C12.3992 7.95411 12.6894 7.62712 12.6894 7.23979V6.09353C12.6899 5.7062 12.3997 5.3792 12.0159 5.3332ZM6.54953 9.22517C5.13878 9.22517 3.99102 8.07741 3.99102 6.66666C3.99102 5.2559 5.13878 4.10815 6.54953 4.10815C7.96029 4.10815 9.10804 5.2559 9.10804 6.66666C9.10804 8.07741 7.96029 9.22517 6.54953 9.22517Z" fill="#5A5A5A"/>
</g>
<defs>
<clipPath id="clip0_132_1676">
<rect width="12.2807" height="12.2807" fill="white" transform="translate(0.385742 0.526306)"/>
</clipPath>
</defs>
</svg>
