<svg width="39" height="38" viewBox="0 0 39 38" fill="none" xmlns="http://www.w3.org/2000/svg">
<path d="M15.1051 7.85876C16.6285 4.06108 17.3902 2.16224 18.6276 1.89907C18.953 1.82987 19.2893 1.82987 19.6147 1.89907C20.8521 2.16224 21.6138 4.06108 23.1372 7.85876C24.0035 10.0184 24.4366 11.0983 25.2471 11.8327C25.4744 12.0387 25.7212 12.2222 25.9839 12.3806C26.9207 12.9452 28.0901 13.0499 30.4289 13.2594C34.3881 13.6139 36.3677 13.7912 36.9722 14.9199C37.0974 15.1537 37.1826 15.4068 37.2241 15.6687C37.4245 16.9334 35.9692 18.2574 33.0586 20.9054L32.2503 21.6407C30.8896 22.8787 30.2092 23.4977 29.8157 24.2703C29.5796 24.7337 29.4213 25.2327 29.3471 25.7475C29.2235 26.6056 29.4227 27.5036 29.8212 29.2995L29.9636 29.9412C30.6782 33.162 31.0355 34.7724 30.5895 35.564C30.1888 36.275 29.4508 36.7302 28.6356 36.7691C27.7281 36.8125 26.4493 35.7704 23.8918 33.6864C22.2068 32.3134 21.3643 31.6269 20.429 31.3587C19.5743 31.1136 18.668 31.1136 17.8133 31.3587C16.878 31.6269 16.0355 32.3134 14.3505 33.6864C11.793 35.7704 10.5142 36.8125 9.60666 36.7691C8.79146 36.7302 8.05349 36.275 7.65285 35.564C7.20683 34.7724 7.56413 33.162 8.27873 29.9412L8.4211 29.2995C8.81957 27.5036 9.01881 26.6056 8.89517 25.7475C8.821 25.2327 8.66272 24.7337 8.42665 24.2703C8.03311 23.4977 7.35273 22.8787 5.99198 21.6407L5.18372 20.9054C2.27312 18.2574 0.817823 16.9334 1.01824 15.6687C1.05975 15.4068 1.14487 15.1537 1.27007 14.9199C1.87459 13.7912 3.85419 13.6139 7.81338 13.2594C10.1522 13.0499 11.3216 12.9452 12.2584 12.3806C12.5211 12.2222 12.7679 12.0387 12.9952 11.8327C13.8057 11.0983 14.2389 10.0184 15.1051 7.85876Z" fill="#E9A443" stroke="#E9A443" stroke-width="1.89803"/>
</svg>
