<svg width="22" height="22" viewBox="0 0 22 22" fill="none" xmlns="http://www.w3.org/2000/svg">
<path d="M5.17725 10.0625H2.04183C1.80433 10.0628 1.57665 10.1573 1.40872 10.3252C1.24078 10.4932 1.1463 10.7208 1.146 10.9583V15.4375C1.14647 15.9125 1.33538 16.368 1.67128 16.7039C2.00719 17.0398 2.46263 17.2287 2.93767 17.2292H5.17725C5.77101 17.2285 6.34025 16.9923 6.7601 16.5724C7.17995 16.1526 7.41613 15.5833 7.41683 14.9896V12.3021C7.41613 11.7083 7.17995 11.1391 6.7601 10.7192C6.34025 10.2994 5.77101 10.0632 5.17725 10.0625Z" fill="#300713"/>
<path d="M19.9585 10.0625H16.8231C16.2293 10.0631 15.66 10.2993 15.2401 10.7191C14.8203 11.139 14.5841 11.7083 14.5835 12.3021V14.9896C14.5841 15.5834 14.8203 16.1526 15.2401 16.5725C15.66 16.9924 16.2293 17.2285 16.8231 17.2292H19.0627C19.5377 17.2286 19.9931 17.0397 20.329 16.7038C20.6648 16.3679 20.8538 15.9125 20.8543 15.4375V10.9583C20.8541 10.7208 20.7596 10.4931 20.5917 10.3251C20.4237 10.1572 20.196 10.0627 19.9585 10.0625Z" fill="#300713"/>
<path d="M19.9585 11.8541C19.721 11.8539 19.4933 11.7594 19.3253 11.5915C19.1574 11.4235 19.0629 11.1958 19.0627 10.9583C19.0627 8.81999 18.2132 6.76926 16.7012 5.25725C15.1892 3.74524 13.1385 2.8958 11.0002 2.8958C8.86186 2.8958 6.81113 3.74524 5.29912 5.25725C3.78711 6.76926 2.93767 8.81999 2.93767 10.9583C2.93691 11.1954 2.84219 11.4225 2.67427 11.5899C2.50635 11.7573 2.27893 11.8513 2.04183 11.8513C1.80474 11.8513 1.57731 11.7573 1.40939 11.5899C1.24147 11.4225 1.14675 11.1954 1.146 10.9583C1.146 8.34481 2.1842 5.83836 4.03221 3.99034C5.88023 2.14233 8.38668 1.10413 11.0002 1.10413C13.6137 1.10413 16.1201 2.14233 17.9681 3.99034C19.8161 5.83836 20.8543 8.34481 20.8543 10.9583C20.8541 11.1958 20.7596 11.4235 20.5917 11.5915C20.4237 11.7594 20.196 11.8539 19.9585 11.8541Z" fill="#300713"/>
<path d="M12.9044 17.3262C12.7126 17.1754 12.4887 17.0706 12.25 17.02C12.0113 16.9694 11.7641 16.9743 11.5276 17.0344L9.69426 17.4927C9.34707 17.5792 9.03884 17.7795 8.81868 18.0615C8.59852 18.3436 8.47912 18.6912 8.47949 19.049V20.1666C8.47954 20.349 8.55199 20.5238 8.68091 20.6527C8.80983 20.7816 8.98467 20.8541 9.16699 20.8541H12.8337C13.016 20.8541 13.1908 20.7816 13.3197 20.6527C13.4487 20.5238 13.5211 20.349 13.5212 20.1666V18.5907C13.5219 18.3468 13.4667 18.106 13.3598 17.8867C13.2529 17.6675 13.0971 17.4758 12.9044 17.3262Z" fill="#300713"/>
<path d="M17.4168 20.8541H12.8335C12.6512 20.8541 12.4763 20.7817 12.3474 20.6527C12.2184 20.5238 12.146 20.3489 12.146 20.1666C12.146 19.9842 12.2184 19.8094 12.3474 19.6804C12.4763 19.5515 12.6512 19.4791 12.8335 19.4791H17.4168C17.9636 19.4784 18.4878 19.2609 18.8745 18.8742C19.2611 18.4876 19.4787 17.9634 19.4793 17.4166V15.5833C19.4793 15.4009 19.5518 15.226 19.6807 15.0971C19.8096 14.9682 19.9845 14.8958 20.1668 14.8958C20.3492 14.8958 20.524 14.9682 20.653 15.0971C20.7819 15.226 20.8543 15.4009 20.8543 15.5833V17.4166C20.8533 18.3279 20.4907 19.2017 19.8463 19.8461C19.2019 20.4905 18.3282 20.853 17.4168 20.8541Z" fill="#300713"/>
</svg>
