<svg width="14" height="16" viewBox="0 0 14 16" fill="none" xmlns="http://www.w3.org/2000/svg">
<path d="M6.85714 0C3.08571 0 0 3.02857 0 6.8V8.8C0 8.85714 0 8.85714 0 8.91429C0 8.97143 0 9.08571 0 9.14286C0 10.7429 1.25714 12 2.85714 12C3.2 12 3.42857 11.7714 3.42857 11.4286V6.85714C3.42857 6.51429 3.2 6.28571 2.85714 6.28571C2.22857 6.28571 1.6 6.51429 1.14286 6.85714V6.74286C1.14286 3.65714 3.71429 1.14286 6.85714 1.14286C10 1.14286 12.5714 3.65714 12.5714 6.8V6.85714C12.1143 6.51429 11.4857 6.28571 10.8571 6.28571C10.5143 6.28571 10.2857 6.51429 10.2857 6.85714V11.4286C10.2857 11.7714 10.5143 12 10.8571 12C11.2571 12 11.6571 11.8857 12 11.7714C11.4286 12.9714 10.4 13.8857 9.14286 14.4C9.14286 14.3429 9.14286 14.3429 9.14286 14.2857C9.14286 13.9429 8.91429 13.7143 8.57143 13.7143H6.85714C6.51429 13.7143 6.28571 13.9429 6.28571 14.2857V15.4286C6.28571 15.7714 6.51429 16 6.85714 16C10.6286 16 13.7143 13.0286 13.7143 9.37143V6.8C13.7143 3.02857 10.6286 0 6.85714 0Z" fill="white" style="mix-blend-mode:overlay"/>
<path d="M6.85714 0C3.08571 0 0 3.02857 0 6.8V8.8C0 8.85714 0 8.85714 0 8.91429C0 8.97143 0 9.08571 0 9.14286C0 10.7429 1.25714 12 2.85714 12C3.2 12 3.42857 11.7714 3.42857 11.4286V6.85714C3.42857 6.51429 3.2 6.28571 2.85714 6.28571C2.22857 6.28571 1.6 6.51429 1.14286 6.85714V6.74286C1.14286 3.65714 3.71429 1.14286 6.85714 1.14286C10 1.14286 12.5714 3.65714 12.5714 6.8V6.85714C12.1143 6.51429 11.4857 6.28571 10.8571 6.28571C10.5143 6.28571 10.2857 6.51429 10.2857 6.85714V11.4286C10.2857 11.7714 10.5143 12 10.8571 12C11.2571 12 11.6571 11.8857 12 11.7714C11.4286 12.9714 10.4 13.8857 9.14286 14.4C9.14286 14.3429 9.14286 14.3429 9.14286 14.2857C9.14286 13.9429 8.91429 13.7143 8.57143 13.7143H6.85714C6.51429 13.7143 6.28571 13.9429 6.28571 14.2857V15.4286C6.28571 15.7714 6.51429 16 6.85714 16C10.6286 16 13.7143 13.0286 13.7143 9.37143V6.8C13.7143 3.02857 10.6286 0 6.85714 0Z" fill="black" fill-opacity="0.2"/>
</svg>
