<svg width="16" height="14" viewBox="0 0 16 14" fill="none" xmlns="http://www.w3.org/2000/svg">
<path d="M0.352812 6.58621L4.03306 7.83611L12.7704 2.49452C12.897 2.41705 13.0268 2.58907 12.9176 2.68962L6.30276 8.77824L6.05678 12.1869C6.03804 12.4462 6.3504 12.5906 6.53578 12.4083L8.57247 10.4056L12.2957 13.2241C12.6971 13.528 13.2782 13.3138 13.3864 12.8222L15.979 1.05081C16.1268 0.379283 15.4688 -0.187368 14.8267 0.0585521L0.334086 5.60815C-0.120542 5.78225 -0.108159 6.42968 0.352812 6.58621Z" fill="white" style="mix-blend-mode:overlay"/>
<path d="M0.352812 6.58621L4.03306 7.83611L12.7704 2.49452C12.897 2.41705 13.0268 2.58907 12.9176 2.68962L6.30276 8.77824L6.05678 12.1869C6.03804 12.4462 6.3504 12.5906 6.53578 12.4083L8.57247 10.4056L12.2957 13.2241C12.6971 13.528 13.2782 13.3138 13.3864 12.8222L15.979 1.05081C16.1268 0.379283 15.4688 -0.187368 14.8267 0.0585521L0.334086 5.60815C-0.120542 5.78225 -0.108159 6.42968 0.352812 6.58621Z" fill="black" fill-opacity="0.2"/>
</svg>
