<svg width="13" height="12" viewBox="0 0 13 12" fill="none" xmlns="http://www.w3.org/2000/svg">
<g clip-path="url(#clip0_4018_41)">
<path d="M10.3847 1.03981H3.15055C2.86276 1.03981 2.58676 1.15414 2.38326 1.35764C2.17976 1.56114 2.06543 1.83714 2.06543 2.12493V10.8059C2.06532 10.8747 2.08483 10.9421 2.12166 11.0002C2.1585 11.0583 2.21114 11.1047 2.27341 11.1339C2.33568 11.1632 2.405 11.174 2.47323 11.1653C2.54146 11.1565 2.60577 11.1285 2.65863 11.0844L4.59739 9.46761L6.32273 10.8927C6.45272 11.001 6.61655 11.0603 6.78572 11.0603C6.95489 11.0603 7.11872 11.001 7.24871 10.8927L8.93788 9.46761L10.8766 11.0844C10.9417 11.1384 11.0236 11.1678 11.1081 11.1676C11.1605 11.1679 11.2124 11.1568 11.26 11.1351C11.3228 11.106 11.376 11.0596 11.4132 11.0012C11.4503 10.9429 11.47 10.8751 11.4698 10.8059V2.12493C11.4698 1.83714 11.3555 1.56114 11.152 1.35764C10.9485 1.15414 10.6725 1.03981 10.3847 1.03981ZM9.29959 7.18885H4.23568C4.13975 7.18885 4.04775 7.15074 3.97991 7.08291C3.91208 7.01507 3.87397 6.92307 3.87397 6.82714C3.87397 6.73121 3.91208 6.63921 3.97991 6.57137C4.04775 6.50354 4.13975 6.46543 4.23568 6.46543H9.29959C9.39552 6.46543 9.48752 6.50354 9.55536 6.57137C9.62319 6.63921 9.6613 6.73121 9.6613 6.82714C9.6613 6.92307 9.62319 7.01507 9.55536 7.08291C9.48752 7.15074 9.39552 7.18885 9.29959 7.18885ZM9.29959 5.38031H4.23568C4.13975 5.38031 4.04775 5.3422 3.97991 5.27436C3.91208 5.20653 3.87397 5.11453 3.87397 5.0186C3.87397 4.92267 3.91208 4.83067 3.97991 4.76283C4.04775 4.695 4.13975 4.65689 4.23568 4.65689H9.29959C9.39552 4.65689 9.48752 4.695 9.55536 4.76283C9.62319 4.83067 9.6613 4.92267 9.6613 5.0186C9.6613 5.11453 9.62319 5.20653 9.55536 5.27436C9.48752 5.3422 9.39552 5.38031 9.29959 5.38031ZM9.29959 3.57177H4.23568C4.13975 3.57177 4.04775 3.53366 3.97991 3.46582C3.91208 3.39799 3.87397 3.30599 3.87397 3.21006C3.87397 3.11413 3.91208 3.02213 3.97991 2.95429C4.04775 2.88646 4.13975 2.84835 4.23568 2.84835H9.29959C9.39552 2.84835 9.48752 2.88646 9.55536 2.95429C9.62319 3.02213 9.6613 3.11413 9.6613 3.21006C9.6613 3.30599 9.62319 3.39799 9.55536 3.46582C9.48752 3.53366 9.39552 3.57177 9.29959 3.57177Z" fill="white"/>
</g>
<defs>
<clipPath id="clip0_4018_41">
<rect width="11.5747" height="11.5747" fill="white" transform="translate(0.981445 0.316376)"/>
</clipPath>
</defs>
</svg>
