<svg width="11" height="10" viewBox="0 0 11 10" fill="none" xmlns="http://www.w3.org/2000/svg">
<g clip-path="url(#clip0_70_1610)">
<path d="M2.451 2.72068C2.451 2.54879 2.49293 2.38661 2.56665 2.24332H0.927246V3.19805H2.451V2.72068Z" fill="white"/>
<path d="M2.451 7.29179V6.81442H0.927246V7.76916H2.56665C2.49293 7.62587 2.451 7.46368 2.451 7.29179Z" fill="white"/>
<path d="M9.59217 0.150665H1.97363C1.39661 0.150665 0.927246 0.620031 0.927246 1.19705V1.67434H8.06841C8.64536 1.67434 9.11473 2.14378 9.11473 2.72073V7.29183C9.11473 7.86878 8.64536 8.33822 8.06841 8.33822H0.927246V8.81551C0.927246 9.39253 1.39661 9.8619 1.97363 9.8619H9.59217C10.1691 9.8619 10.6385 9.39253 10.6385 8.81551V1.19705C10.6385 0.620031 10.1691 0.150665 9.59217 0.150665Z" fill="white"/>
<path d="M0.927246 3.76709H2.451V6.24543H0.927246V3.76709Z" fill="white"/>
<path d="M8.06842 7.76916C8.33166 7.76916 8.54571 7.55503 8.54571 7.29179V2.72068C8.54571 2.45744 8.33166 2.24332 8.06842 2.24332H3.49731C3.23407 2.24332 3.02002 2.45744 3.02002 2.72068V7.29179C3.02002 7.55503 3.23407 7.76916 3.49731 7.76916H8.06842ZM4.28882 3.5122C4.39989 3.40106 4.58008 3.40106 4.69114 3.5122L4.94053 3.76159C5.18095 3.59829 5.47094 3.50279 5.78287 3.50279C6.09479 3.50279 6.38478 3.59829 6.6252 3.76151L6.87459 3.5122C6.98573 3.40106 7.16584 3.40106 7.27698 3.5122C7.38804 3.62333 7.38804 3.80345 7.27698 3.91458L7.02759 4.1639C7.19081 4.4044 7.28639 4.69431 7.28639 5.00624C7.28639 5.31816 7.19081 5.60815 7.02759 5.84857L7.27691 6.09796C7.38804 6.20903 7.38804 6.38914 7.27691 6.50028C7.22141 6.55585 7.14858 6.58363 7.07575 6.58363C7.00292 6.58363 6.93016 6.55585 6.87459 6.50028L6.6252 6.25089C6.38478 6.41418 6.09479 6.50969 5.78287 6.50969C5.47102 6.50969 5.18103 6.41418 4.9406 6.25089L4.69121 6.50035C4.63564 6.55585 4.56281 6.58363 4.49006 6.58363C4.41722 6.58363 4.34439 6.55585 4.28882 6.50035C4.17776 6.38922 4.17776 6.20903 4.28882 6.09796L4.53821 5.84857C4.37499 5.60815 4.27949 5.31816 4.27949 5.00624C4.27949 4.69431 4.37499 4.40432 4.53821 4.1639L4.2889 3.91451C4.17769 3.80345 4.17769 3.62326 4.28882 3.5122Z" fill="white"/>
<path d="M5.78307 5.94067C6.29829 5.94067 6.71757 5.52147 6.71757 5.00624C6.71757 4.49101 6.29829 4.07181 5.78307 4.07181C5.26784 4.07181 4.84863 4.49101 4.84863 5.00624C4.84863 5.52147 5.26784 5.94067 5.78307 5.94067Z" fill="white"/>
</g>
<defs>
<clipPath id="clip0_70_1610">
<rect width="9.71123" height="9.71123" fill="white" transform="translate(0.927246 0.150665)"/>
</clipPath>
</defs>
</svg>
