<svg width="30" height="28" viewBox="0 0 30 28" fill="none" xmlns="http://www.w3.org/2000/svg">
<path d="M29.0938 20.418C29.0167 20.2889 28.5395 19.252 26.2434 17.121C23.8397 14.8894 24.1626 15.2518 27.0578 11.3933C28.8211 9.04335 29.5261 7.60828 29.3055 6.99479C29.0956 6.41 27.7987 6.56427 27.7987 6.56427L23.4863 6.58938C23.4863 6.58938 23.167 6.54633 22.9284 6.68804C22.697 6.82796 22.5481 7.15085 22.5481 7.15085C22.5481 7.15085 21.8647 8.9698 20.9534 10.5161C19.0322 13.7791 18.2626 13.9513 17.9487 13.7486C17.2186 13.2768 17.4016 11.8507 17.4016 10.839C17.4016 7.67644 17.8806 6.35798 16.467 6.01715C15.997 5.90414 15.6526 5.8288 14.4525 5.81624C12.9134 5.8001 11.6093 5.82162 10.8721 6.18218C10.3805 6.42256 10.002 6.95891 10.2334 6.98941C10.5187 7.02708 11.1644 7.16341 11.5071 7.6298C11.9501 8.23074 11.934 9.58329 11.934 9.58329C11.934 9.58329 12.1887 13.3055 11.3402 13.7683C10.7572 14.0858 9.95899 13.4382 8.24588 10.4766C7.36869 8.96083 6.70498 7.2836 6.70498 7.2836C6.70498 7.2836 6.57762 6.97147 6.3498 6.80464C6.07355 6.60194 5.68608 6.53736 5.68608 6.53736L1.58538 6.56247C1.58538 6.56247 0.970093 6.58041 0.74407 6.84769C0.543161 7.08627 0.727926 7.57778 0.727926 7.57778C0.727926 7.57778 3.93889 15.0886 7.57319 18.8753C10.9079 22.3464 14.6929 22.1186 14.6929 22.1186H16.4078C16.4078 22.1186 16.9262 22.0612 17.1899 21.776C17.4339 21.5141 17.4249 21.0226 17.4249 21.0226C17.4249 21.0226 17.3908 18.7211 18.46 18.382C19.5129 18.0484 20.8655 20.6064 22.2988 21.5912C23.3822 22.3356 24.2056 22.1724 24.2056 22.1724L28.039 22.1186C28.039 22.1186 30.0445 21.9948 29.0938 20.418Z" fill="white"/>
</svg>
