<svg width="32" height="19" viewBox="0 0 32 19" fill="none" xmlns="http://www.w3.org/2000/svg">
<path d="M7.10408 3.75561C12.1063 -1.13419 20.2372 -1.13419 25.2582 3.75561L25.8577 4.33639C26.1013 4.57995 26.1013 4.97338 25.8577 5.21693L23.7969 7.22157C23.6657 7.35271 23.4596 7.35271 23.3472 7.22157L22.5229 6.41597C19.0195 3.00622 13.3615 3.00622 9.85811 6.41597L8.97757 7.27777C8.84642 7.40891 8.64034 7.40891 8.52793 7.27777L6.46709 5.27314C6.22354 5.02958 6.22354 4.63615 6.46709 4.3926L7.12282 3.75561H7.10408ZM29.511 7.91476L31.347 9.71331C31.5906 9.95686 31.5906 10.3503 31.347 10.5938L23.0662 18.6686C22.8226 18.9121 22.4105 18.9121 22.1669 18.6686L16.2842 12.9357C16.228 12.8795 16.1156 12.8795 16.0594 12.9357L10.1766 18.6686C9.93305 18.9121 9.52088 18.9121 9.27733 18.6686L0.996508 10.5938C0.752954 10.3503 0.752954 9.95686 0.996508 9.71331L2.83253 7.91476C3.07608 7.6712 3.48825 7.6712 3.7318 7.91476L9.61456 13.6476C9.67076 13.7038 9.78317 13.7038 9.83937 13.6476L15.7221 7.91476C15.9657 7.6712 16.3778 7.6712 16.6214 7.91476L22.5042 13.6476C22.5604 13.7038 22.6728 13.7038 22.729 13.6476L28.6117 7.91476C28.8553 7.6712 29.2674 7.6712 29.511 7.91476Z" fill="#1578F9"/>
</svg>
