<svg width="14" height="14" viewBox="0 0 14 14" fill="none" xmlns="http://www.w3.org/2000/svg">
<path d="M2.50001 1C1.12366 1 0 2.12366 0 3.50001V10.5C0 11.8763 1.12366 13 2.50001 13H11.5C12.8763 13 14 11.8763 14 10.5V9.50001H9C7.62366 9.50001 6.49999 8.37635 6.49999 7C6.49999 5.62366 7.62366 4.49999 9 4.49999H14V3.50001C14 2.12366 12.8763 1 11.5 1H2.50001ZM9 5.50001C8.16036 5.50001 7.50001 6.16036 7.50001 7C7.50001 7.83964 8.16036 8.49999 9 8.49999H14V5.50001H9ZM9 6.49999C9.27615 6.49999 9.50001 6.72386 9.50001 7C9.50001 7.27614 9.27615 7.50001 9 7.50001C8.72386 7.50001 8.5 7.27614 8.5 7C8.5 6.72386 8.72386 6.49999 9 6.49999Z" fill="#E81C5A"/>
</svg>
