<svg width="11" height="10" viewBox="0 0 11 10" fill="none" xmlns="http://www.w3.org/2000/svg">
<path fill-rule="evenodd" clip-rule="evenodd" d="M8.69525 -0.00482178C9.76776 -0.00482178 10.6372 0.864641 10.6372 1.93718V5.33568C10.6372 5.60382 10.4199 5.82118 10.1517 5.82118H8.69525C7.62273 5.82118 6.75325 6.69066 6.75325 7.76318V8.24868C6.75325 8.51682 6.53589 8.73418 6.26775 8.73418H2.86925C1.79671 8.73418 0.927246 7.8647 0.927246 6.79218V6.06393H2.86925C3.80772 6.06393 4.5685 5.30315 4.5685 4.36468C4.5685 3.42621 3.80772 2.66543 2.86925 2.66543H0.927246V1.93718C0.927246 0.864641 1.79671 -0.00482178 2.86925 -0.00482178H8.69525ZM3.84025 4.36468C3.84025 3.82841 3.40551 3.39368 2.86925 3.39368H0.927246V5.33568H2.86925C3.40551 5.33568 3.84025 4.90096 3.84025 4.36468ZM8.46721 8.19231L8.81662 8.54173V6.79218C8.81662 6.59108 8.97965 6.42805 9.18075 6.42805C9.38184 6.42805 9.54487 6.59108 9.54487 6.79218V8.54173L9.89428 8.19231C10.0365 8.05011 10.267 8.05011 10.4092 8.19231C10.5514 8.33451 10.5514 8.56503 10.4092 8.70723L9.7815 9.33494C9.44971 9.66678 8.91178 9.66678 8.57999 9.33494L7.95229 8.70723C7.81008 8.56503 7.81008 8.33451 7.95229 8.19231C8.09449 8.05011 8.325 8.05011 8.46721 8.19231Z" fill="white"/>
</svg>
