<svg width="16" height="15" viewBox="0 0 16 15" fill="none" xmlns="http://www.w3.org/2000/svg">
<path d="M12.6 0H15.0547L9.69333 6.126L16 14.4633H11.0633L7.194 9.408L2.77133 14.4633H0.312667L6.046 7.90933L0 0H5.062L8.556 4.62067L12.6 0ZM11.738 12.996H13.0973L4.32133 1.39067H2.86133L11.738 12.996Z" fill="white" style="mix-blend-mode:overlay"/>
<path d="M12.6 0H15.0547L9.69333 6.126L16 14.4633H11.0633L7.194 9.408L2.77133 14.4633H0.312667L6.046 7.90933L0 0H5.062L8.556 4.62067L12.6 0ZM11.738 12.996H13.0973L4.32133 1.39067H2.86133L11.738 12.996Z" fill="black" fill-opacity="0.2"/>
</svg>
