<svg width="86" height="18" viewBox="0 0 86 18" fill="none" xmlns="http://www.w3.org/2000/svg">
<g clip-path="url(#clip0_30_88)">
<path d="M17.5428 11.0542C16.3596 15.8257 11.5323 18.7343 6.76062 17.5511C1.98919 16.368 -0.919457 11.5405 0.263788 6.76906C1.44703 1.99743 6.27434 -0.911413 11.0458 0.271831C11.0538 0.273834 11.062 0.275837 11.07 0.27804C15.8288 1.4723 18.7241 6.292 17.5428 11.0542Z" fill="#353535"/>
<path d="M10.9226 7.61619C10.6444 8.72894 8.94765 8.15855 8.39688 8.02236L8.88356 6.07525C9.42591 6.20884 11.2008 6.46459 10.9142 7.61619H10.9226ZM10.6194 10.7626C10.319 11.9751 8.27731 11.3189 7.61519 11.1545L8.15194 9.00432C8.81406 9.17115 10.9336 9.49661 10.6194 10.7626ZM12.8447 7.63302C13.0199 6.44797 12.1187 5.81108 10.8976 5.3883L11.2981 3.78326L10.3107 3.53852L9.9214 5.1019C9.66544 5.03801 9.40128 4.97672 9.13971 4.91824L9.52905 3.33825L8.5527 3.09351L8.15214 4.69854L7.52907 4.55954L6.18 4.22288L5.92124 5.26613C5.92124 5.26613 6.64444 5.43296 6.63062 5.44417C6.90681 5.47762 7.10829 5.72296 7.08686 6.00055L6.63062 7.82809C6.66487 7.8359 6.69852 7.84691 6.73076 7.86153L6.62782 7.8337L5.99073 10.3957C5.93105 10.5831 5.73077 10.6863 5.54311 10.6266H5.54291C5.54291 10.6404 4.83072 10.4513 4.83072 10.4513L4.34665 11.5641L5.61782 11.8785L6.31318 12.0594L5.90982 13.681L6.88618 13.9258L7.28674 12.3207C7.5499 12.393 7.80886 12.4597 8.06282 12.521L7.66787 14.1316L8.64422 14.3736L9.04759 12.7547C10.7165 13.0694 11.9654 12.9438 12.494 11.4363C12.9196 10.2234 12.4717 9.52525 11.5955 9.06901C12.2352 8.92161 12.7083 8.51264 12.8445 7.63362L12.8447 7.63302Z" fill="#0E0E0E"/>
<path d="M23.1757 15.0209C23.6956 15.0225 24.2072 14.8901 24.6612 14.637C25.1284 14.3878 25.5394 14.0448 25.8685 13.63C26.2113 13.1914 26.4809 12.7001 26.6668 12.1752C26.8628 11.6328 26.9624 11.0606 26.9616 10.484C26.9928 9.899 26.8679 9.31619 26.5999 8.79547C26.3607 8.39211 25.9155 8.18642 25.2702 8.18642C24.989 8.19604 24.7095 8.23429 24.4357 8.30038C24.0958 8.37629 23.7814 8.53931 23.5232 8.77324L22.049 14.9374L22.2855 14.9819C22.3558 14.9991 22.4277 15.0103 22.4996 15.0153C22.5919 15.0267 22.6848 15.0313 22.7778 15.0291L23.1755 15.0207L23.1757 15.0209ZM26.1048 5.38533C26.7487 5.37051 27.388 5.50189 27.974 5.76926C28.4827 6.0118 28.9297 6.36649 29.2814 6.80691C29.6415 7.26234 29.9063 7.78527 30.0603 8.34505C30.2289 8.9623 30.312 9.59959 30.3078 10.2395C30.307 12.2302 29.5354 14.1431 28.1548 15.5775C27.4855 16.2641 26.6892 16.8136 25.81 17.1964C24.8881 17.6021 23.8909 17.809 22.8837 17.8028H22.1715C21.7844 17.7902 21.3978 17.7569 21.0143 17.7027C20.5459 17.6348 20.0816 17.542 19.6236 17.4245C19.1433 17.3105 18.6771 17.1445 18.2328 16.9294L22.1411 0.556618L25.6321 0.000244141L24.2414 5.81112C24.531 5.68014 24.8316 5.57499 25.1399 5.49689C25.4575 5.41958 25.7837 5.38112 26.1106 5.38293L26.105 5.38573L26.1048 5.38533Z" fill="#353535"/>
<path d="M35.5373 4.19184C35.0822 4.19625 34.6386 4.05044 34.2743 3.77746C33.8882 3.47204 33.6795 2.99437 33.7179 2.50349C33.7163 2.19727 33.7816 1.89425 33.9098 1.61606C34.0326 1.34508 34.205 1.09974 34.4189 0.892853C34.6326 0.689771 34.8802 0.525943 35.1505 0.40878C35.4317 0.288012 35.7347 0.226527 36.0406 0.227929C36.4924 0.226527 36.9318 0.373131 37.2923 0.645109C37.6776 0.951134 37.8861 1.4284 37.8487 1.91908C37.8511 2.22611 37.7866 2.52993 37.6596 2.80912C37.5368 3.07869 37.3652 3.32283 37.1533 3.52952C36.9402 3.7334 36.6927 3.89723 36.4217 4.01359C36.1405 4.13436 35.8375 4.19504 35.5317 4.19164H35.5373V4.19184ZM33.9156 17.4855H30.5776L33.3981 5.63545H36.7556L33.9154 17.4855H33.9156Z" fill="#353535"/>
<path d="M39.6765 2.68433L43.1673 2.14478L42.2995 5.63583H46.0383L45.3648 8.38405H41.6568L40.6666 12.5176C40.5809 12.834 40.5278 13.1585 40.508 13.4859C40.4876 13.7507 40.5268 14.0167 40.622 14.2644C40.7151 14.4867 40.8875 14.6664 41.106 14.7679C41.4205 14.9069 41.7638 14.9702 42.1074 14.9516C42.4595 14.9528 42.8108 14.9181 43.1561 14.8486C43.5036 14.7807 43.8459 14.6878 44.1797 14.5704L44.4301 17.1406C43.9508 17.3129 43.4611 17.4553 42.964 17.5662C42.3498 17.6966 41.7227 17.7573 41.0948 17.7471C40.0572 17.7471 39.2561 17.5912 38.6831 17.2852C38.1471 17.0126 37.7177 16.568 37.4648 16.0223C37.2178 15.4433 37.1101 14.8144 37.1505 14.1863C37.188 13.4495 37.2931 12.7177 37.4648 11.9999L39.6763 2.67311V2.68433H39.6765Z" fill="#353535"/>
<path d="M45.9158 12.7537C45.9088 11.7707 46.0762 10.7938 46.4109 9.86929C46.7247 8.99507 47.2068 8.19095 47.8294 7.5022C48.4573 6.81905 49.2208 6.27529 50.0714 5.90518C50.9991 5.50462 52.001 5.30454 53.0114 5.31856C53.6215 5.31135 54.2303 5.37564 54.8252 5.51023C55.3253 5.62879 55.8117 5.79843 56.2772 6.01653L55.1174 8.62295C54.817 8.50058 54.5053 8.39524 54.1827 8.2975C53.7979 8.19035 53.3996 8.14068 53.0004 8.1501C51.9918 8.11365 51.0217 8.54004 50.3662 9.30731C49.7153 10.073 49.3886 11.1022 49.387 12.395C49.3564 13.0507 49.5294 13.6996 49.8821 14.2534C50.212 14.7262 50.8206 14.9624 51.7068 14.9624C52.1316 14.9628 52.555 14.9171 52.9698 14.8262C53.3397 14.7473 53.7022 14.6347 54.0519 14.4895L54.2994 17.1712C53.8444 17.3435 53.3802 17.4903 52.9087 17.6104C52.3101 17.7454 51.6976 17.8091 51.084 17.7999C50.2694 17.8235 49.4587 17.6864 48.6973 17.3964C48.092 17.1524 47.5471 16.7795 47.1006 16.3034C46.677 15.842 46.364 15.29 46.1856 14.6898C45.9967 14.0581 45.903 13.4018 45.9074 12.7427L45.9158 12.7539V12.7537Z" fill="#353535"/>
<path d="M62.3856 8.16131C61.9149 8.1547 61.4549 8.30431 61.0782 8.5869C60.6962 8.88251 60.3758 9.25042 60.1353 9.66901C59.8707 10.1146 59.672 10.5965 59.5456 11.0992C59.4233 11.5811 59.3596 12.0758 59.3566 12.573C59.3265 13.1801 59.4501 13.7845 59.7155 14.3311C59.9576 14.7511 60.3914 14.9626 61.0229 14.9626C61.4943 14.9706 61.955 14.8198 62.3303 14.5342C62.713 14.2386 63.0341 13.8706 63.276 13.4525C63.5368 13.0062 63.7307 12.5246 63.852 12.0223C63.973 11.5394 64.0367 11.0435 64.0409 10.5452C64.0721 9.93858 63.9482 9.33354 63.682 8.78718C63.4401 8.37 63.0032 8.15851 62.3746 8.15851L62.3858 8.16131H62.3856ZM60.7167 17.8025C60.0079 17.8189 59.3031 17.696 58.6416 17.4408C58.085 17.2213 57.5879 16.8748 57.1896 16.4282C56.7978 15.9784 56.5028 15.453 56.3218 14.8845C56.1251 14.247 56.031 13.582 56.0436 12.9151C56.0458 11.9966 56.193 11.084 56.4806 10.2114C56.7596 9.33314 57.1952 8.5126 57.7654 7.78859C58.3382 7.06479 59.0506 6.46315 59.8599 6.01953C60.7311 5.55108 61.708 5.31435 62.6972 5.33238C63.4018 5.31956 64.1028 5.44253 64.7613 5.69408C65.3185 5.90998 65.8184 6.25186 66.2215 6.69267C66.6109 7.1437 66.9053 7.66883 67.0867 8.23642C67.2848 8.8745 67.3787 9.54043 67.3649 10.2086C67.3621 11.1262 67.2185 12.0383 66.9393 12.9123C66.6651 13.7917 66.2375 14.6155 65.6764 15.3463C65.112 16.0731 64.4024 16.6747 63.5929 17.1128C62.7082 17.5836 61.7187 17.8211 60.7167 17.8025Z" fill="#353535"/>
<path d="M72.636 4.1919C72.1818 4.1967 71.7386 4.0509 71.3761 3.77752C70.9898 3.47209 70.7811 2.99443 70.8197 2.50355C70.8181 2.19732 70.8834 1.8943 71.0114 1.61611C71.1307 1.34654 71.2984 1.1016 71.5065 0.892909C71.7216 0.690428 71.9699 0.5266 72.2409 0.408836C72.5213 0.288269 72.8233 0.226783 73.1285 0.227985C73.5836 0.223979 74.028 0.370984 74.3915 0.645165C74.7768 0.95119 74.9851 1.42845 74.9479 1.91914C74.9485 2.22656 74.882 2.53039 74.7528 2.80917C74.6322 3.07895 74.4612 3.32349 74.2495 3.52957C74.0364 3.73346 73.7888 3.89729 73.5179 4.01365C73.2391 4.13321 72.9391 4.1939 72.6358 4.19169L72.636 4.1919ZM71.0174 17.4856H67.6794L70.4945 5.6355H73.8547L71.0174 17.4856Z" fill="#353535"/>
<path d="M76.258 6.17523C76.5111 6.10293 76.7921 6.01381 77.0925 5.91667C77.393 5.81934 77.7435 5.73021 78.1298 5.63848C78.5538 5.54856 78.9818 5.48087 79.4124 5.4354C79.9473 5.37892 80.4851 5.35189 81.023 5.35469C82.7811 5.35469 83.9937 5.8654 84.6615 6.88742C85.0612 7.49947 85.2635 8.24611 85.2683 9.12753V9.19102C85.2653 9.76422 85.1798 10.3937 85.012 11.0792L83.4792 17.4769H80.1302L81.6182 11.2124C81.7072 10.8233 81.7797 10.445 81.8325 10.0751C81.8904 9.75481 81.8904 9.42695 81.8325 9.10711C81.7773 8.83974 81.6295 8.6006 81.4154 8.43117C81.1185 8.2365 80.7652 8.14557 80.4112 8.17241C79.9653 8.17321 79.5207 8.21887 79.0843 8.3088L76.8979 17.4882H73.529L76.258 6.17523Z" fill="#353535"/>
</g>
<defs>
<clipPath id="clip0_30_88">
<rect width="85.2677" height="17.815" fill="white"/>
</clipPath>
</defs>
</svg>
