<svg width="86" height="22" viewBox="0 0 86 22" fill="none" xmlns="http://www.w3.org/2000/svg">
<g clip-path="url(#clip0_30_112)">
<path d="M24.2428 12.2926C24.2416 12.3669 24.211 12.4377 24.1577 12.4894C24.1044 12.5412 24.0329 12.5698 23.9586 12.569H18.7241C18.8583 13.8638 19.8294 15.0481 21.2032 15.0481C22.1427 15.0481 22.8375 14.6928 23.3585 13.9427C23.3828 13.9033 23.4164 13.8705 23.4563 13.8471C23.4962 13.8237 23.5413 13.8104 23.5875 13.8085C23.622 13.8075 23.6563 13.8136 23.6884 13.8263C23.7204 13.8391 23.7495 13.8582 23.7739 13.8826C23.7983 13.907 23.8175 13.9361 23.8302 13.9682C23.843 14.0003 23.849 14.0346 23.848 14.0691C23.8482 14.1167 23.8345 14.1633 23.8086 14.2033C23.2796 15.1191 22.2295 15.5691 21.2032 15.5691C19.4425 15.5691 18.1793 13.9901 18.1793 12.3084C18.1793 10.6268 19.4347 9.04773 21.2032 9.04773C22.9717 9.04773 24.2349 10.611 24.2428 12.2926ZM23.6822 12.0479C23.5717 10.7531 22.5769 9.56881 21.2032 9.56881C19.8294 9.56881 18.8583 10.7531 18.7241 12.0479H23.6822Z" fill="#353535"/>
<path d="M30.6062 9.17417C30.6747 9.17615 30.7398 9.20424 30.7883 9.25268C30.8367 9.30112 30.8648 9.36624 30.8668 9.43471C30.8677 9.46919 30.8617 9.50351 30.8489 9.53556C30.8362 9.56762 30.817 9.59673 30.7926 9.62112C30.7682 9.64551 30.7391 9.66467 30.7071 9.67742C30.675 9.69016 30.6407 9.69623 30.6062 9.69525H29.2009V15.214C29.2003 15.2829 29.1726 15.3488 29.1239 15.3975C29.0752 15.4462 29.0093 15.4739 28.9403 15.4745C28.8719 15.4725 28.8068 15.4444 28.7583 15.396C28.7099 15.3476 28.6818 15.2824 28.6798 15.214V9.69525H27.3297C27.2953 9.69623 27.2609 9.69016 27.2289 9.67742C27.1968 9.66467 27.1677 9.64551 27.1433 9.62112C27.1189 9.59673 27.0998 9.56762 27.087 9.53556C27.0743 9.50351 27.0682 9.46919 27.0692 9.43471C27.0698 9.3658 27.0975 9.29989 27.1462 9.25116C27.1949 9.20243 27.2608 9.17479 27.3297 9.17417H28.6798V7.1609C28.6799 7.09419 28.7039 7.02971 28.7473 6.97906C28.7907 6.92841 28.8508 6.89491 28.9167 6.88457C28.9535 6.87968 28.991 6.8828 29.0265 6.89371C29.062 6.90463 29.0948 6.92309 29.1225 6.94782C29.1502 6.97256 29.1723 7.00299 29.1872 7.03704C29.2021 7.07109 29.2094 7.10795 29.2088 7.14511V9.17417H30.6062Z" fill="#353535"/>
<path d="M39.1726 11.8427V15.1823C39.1706 15.2508 39.1425 15.3159 39.0941 15.3644C39.0456 15.4128 38.9805 15.4409 38.912 15.4429C38.8775 15.4438 38.8432 15.4378 38.8112 15.425C38.7791 15.4123 38.75 15.3931 38.7256 15.3687C38.7012 15.3443 38.6821 15.3152 38.6693 15.2832C38.6566 15.2511 38.6505 15.2168 38.6515 15.1823V11.8427C38.6515 10.7137 38.012 9.59255 36.7566 9.59255C35.146 9.59255 34.4513 10.9979 34.546 12.4427C34.546 12.4822 34.5618 12.648 34.5618 12.6717V15.1744C34.5617 15.2411 34.5377 15.3056 34.4943 15.3563C34.4509 15.4069 34.3908 15.4404 34.3249 15.4508C34.2881 15.4557 34.2506 15.4525 34.2151 15.4416C34.1796 15.4307 34.1468 15.4122 34.1191 15.3875C34.0914 15.3628 34.0693 15.3323 34.0544 15.2983C34.0395 15.2642 34.0322 15.2274 34.0328 15.1902V4.20805C34.0334 4.13914 34.0611 4.07323 34.1098 4.0245C34.1585 3.97578 34.2244 3.94813 34.2934 3.94751C34.3618 3.9495 34.427 3.97758 34.4754 4.02602C34.5238 4.07446 34.5519 4.13958 34.5539 4.20805V10.4136C35.0039 9.60834 35.8092 9.06357 36.7488 9.06357C38.2962 9.06357 39.1726 10.4136 39.1726 11.8427Z" fill="#353535"/>
<path d="M48.5757 12.2926C48.5744 12.3669 48.5438 12.4377 48.4906 12.4894C48.4373 12.5412 48.3657 12.5698 48.2915 12.569H43.057C43.1912 13.8638 44.1623 15.0481 45.5361 15.0481C46.4756 15.0481 47.1704 14.6928 47.6914 13.9427C47.7157 13.9033 47.7493 13.8705 47.7892 13.8471C47.8291 13.8237 47.8742 13.8104 47.9204 13.8085C47.9549 13.8075 47.9892 13.8136 48.0212 13.8263C48.0533 13.8391 48.0824 13.8582 48.1068 13.8826C48.1312 13.907 48.1504 13.9361 48.1631 13.9682C48.1758 14.0003 48.1819 14.0346 48.1809 14.0691C48.1811 14.1167 48.1674 14.1633 48.1415 14.2033C47.6125 15.1191 46.5624 15.5691 45.5361 15.5691C43.7754 15.5691 42.5122 13.9901 42.5122 12.3084C42.5122 10.6268 43.7675 9.04773 45.5361 9.04773C47.2888 9.04773 48.5678 10.611 48.5757 12.2926ZM48.0072 12.0479C47.8967 10.7531 46.9019 9.56881 45.5282 9.56881C44.1544 9.56881 43.1833 10.7531 43.0491 12.0479H48.0072Z" fill="#353535"/>
<path d="M55.0102 9.41882C55.0152 9.48892 54.9923 9.55815 54.9465 9.6114C54.9006 9.66465 54.8355 9.6976 54.7655 9.70305C53.2259 9.93201 52.5312 11.1873 52.5312 12.6479V15.1507C52.531 15.2174 52.5071 15.2819 52.4637 15.3325C52.4203 15.3832 52.3602 15.4167 52.2943 15.427C52.2575 15.4319 52.22 15.4288 52.1845 15.4179C52.1489 15.407 52.1162 15.3885 52.0885 15.3638C52.0607 15.3391 52.0387 15.3086 52.0238 15.2746C52.0089 15.2405 52.0015 15.2037 52.0022 15.1665V9.4583C52.0023 9.39159 52.0262 9.32711 52.0697 9.27646C52.1131 9.22581 52.1731 9.1923 52.239 9.18197C52.2759 9.17708 52.3133 9.18019 52.3489 9.19111C52.3844 9.20203 52.4171 9.22048 52.4449 9.24522C52.4726 9.26996 52.4947 9.30039 52.5096 9.33444C52.5245 9.36849 52.5318 9.40535 52.5312 9.44251V10.6031C52.9654 9.86885 53.826 9.17407 54.726 9.17407C54.8602 9.17407 55.0102 9.26881 55.0102 9.41882Z" fill="#353535"/>
<path d="M63.616 12.2926C63.6147 12.3669 63.5841 12.4377 63.5309 12.4894C63.4776 12.5412 63.406 12.5698 63.3317 12.569H58.0973C58.2315 13.8638 59.2026 15.0481 60.5763 15.0481C61.5159 15.0481 62.2106 14.6928 62.7317 13.9427C62.756 13.9033 62.7895 13.8705 62.8295 13.8471C62.8694 13.8237 62.9144 13.8104 62.9607 13.8085C62.9952 13.8075 63.0295 13.8136 63.0615 13.8263C63.0936 13.8391 63.1227 13.8582 63.1471 13.8826C63.1715 13.907 63.1906 13.9361 63.2034 13.9682C63.2161 14.0003 63.2222 14.0346 63.2212 14.0691C63.2214 14.1167 63.2077 14.1633 63.1817 14.2033C62.6528 15.1191 61.6027 15.5691 60.5763 15.5691C58.8157 15.5691 57.5525 13.9901 57.5525 12.3084C57.5525 10.6268 58.8078 9.04773 60.5763 9.04773C62.3449 9.04773 63.6081 10.611 63.616 12.2926ZM63.0554 12.0479C62.9449 10.7531 61.9501 9.56881 60.5763 9.56881C59.2026 9.56881 58.2315 10.7531 58.0973 12.0479H63.0554Z" fill="#353535"/>
<path d="M72.0796 9.48207V15.214C72.0776 15.2824 72.0495 15.3475 72.0011 15.396C71.9526 15.4444 71.8875 15.4725 71.819 15.4745C71.7845 15.4755 71.7502 15.4694 71.7182 15.4567C71.6861 15.4439 71.657 15.4248 71.6326 15.4004C71.6082 15.376 71.5891 15.3469 71.5763 15.3148C71.5636 15.2828 71.5575 15.2484 71.5585 15.214V14.1244C71.1243 14.985 70.3584 15.6087 69.3794 15.6087C67.8241 15.6087 66.9635 14.2586 66.9635 12.8296V9.47417C66.9641 9.40526 66.9918 9.33935 67.0405 9.29062C67.0892 9.2419 67.1551 9.21425 67.224 9.21363C67.2925 9.21562 67.3576 9.2437 67.4061 9.29214C67.4545 9.34058 67.4826 9.4057 67.4846 9.47417V12.8296C67.4846 13.9586 68.1241 15.0797 69.3794 15.0797C71.14 15.0797 71.5585 13.4296 71.5585 11.6059V9.46628C71.5591 9.42404 71.5698 9.38255 71.5897 9.3453C71.6096 9.30804 71.6381 9.27609 71.6729 9.25212C71.7077 9.22816 71.7477 9.21288 71.7896 9.20755C71.8315 9.20223 71.8741 9.20702 71.9138 9.22153C71.9634 9.24459 72.0054 9.28138 72.0348 9.32755C72.0641 9.37372 72.0797 9.42734 72.0796 9.48207Z" fill="#353535"/>
<path d="M85.3355 11.819V15.1745C85.3336 15.2429 85.3055 15.308 85.257 15.3565C85.2086 15.4049 85.1435 15.433 85.075 15.435C85.0405 15.436 85.0062 15.4299 84.9741 15.4172C84.9421 15.4044 84.913 15.3853 84.8886 15.3609C84.8642 15.3365 84.845 15.3074 84.8323 15.2753C84.8195 15.2433 84.8135 15.2089 84.8145 15.1745V11.819C84.8145 10.69 84.175 9.58468 82.9196 9.58468C81.3406 9.58468 80.7406 11.2742 80.7406 12.5848V15.1745C80.7386 15.2429 80.7105 15.308 80.662 15.3565C80.6136 15.4049 80.5485 15.433 80.48 15.435C80.4455 15.436 80.4112 15.4299 80.3792 15.4172C80.3471 15.4044 80.318 15.3853 80.2936 15.3609C80.2692 15.3365 80.2501 15.3074 80.2373 15.2753C80.2246 15.2433 80.2185 15.2089 80.2195 15.1745V11.819C80.2195 10.69 79.58 9.58468 78.3246 9.58468C76.7298 9.58468 76.0745 10.84 76.1298 12.5138C76.1298 12.5533 76.1456 12.6243 76.1298 12.648V15.1666C76.1297 15.2333 76.1057 15.2977 76.0623 15.3484C76.0189 15.399 75.9588 15.4326 75.8929 15.4429C75.8561 15.4478 75.8186 15.4447 75.7831 15.4337C75.7476 15.4228 75.7148 15.4044 75.6871 15.3796C75.6594 15.3549 75.6373 15.3245 75.6224 15.2904C75.6075 15.2564 75.6001 15.2195 75.6008 15.1823V9.45836C75.6009 9.39165 75.6249 9.32717 75.6683 9.27652C75.7117 9.22587 75.7718 9.19236 75.8377 9.18203C75.8745 9.17713 75.912 9.18025 75.9475 9.19117C75.983 9.20208 76.0158 9.22054 76.0435 9.24528C76.0712 9.27001 76.0933 9.30045 76.1082 9.3345C76.1231 9.36855 76.1305 9.40541 76.1298 9.44257V10.3979C76.5798 9.59257 77.3851 9.0636 78.3246 9.0636C79.3905 9.0636 80.2195 9.74258 80.559 10.7295C80.9932 9.75048 81.838 9.0636 82.9196 9.0636C84.4592 9.0636 85.3355 10.3979 85.3355 11.819Z" fill="#353535"/>
<path opacity="0.6" d="M6.62076 7.90295L0.0677795 10.8794L6.62076 14.756L13.1816 10.8794L6.62076 7.90295Z" fill="#353535"/>
<path opacity="0.45" d="M0.067749 10.8795L6.62073 14.7561V0L0.067749 10.8795Z" fill="#353535"/>
<path opacity="0.8" d="M6.62076 0V14.7561L13.1816 10.8795L6.62076 0Z" fill="#353535"/>
<path opacity="0.45" d="M0.0677795 12.127L6.62076 21.3643V15.9956L0.0677795 12.127Z" fill="#353535"/>
<path opacity="0.8" d="M6.62076 15.9956V21.3643L13.1816 12.127L6.62076 15.9956Z" fill="#353535"/>
</g>
<defs>
<clipPath id="clip0_30_112">
<rect width="85.2677" height="21.3643" fill="white" transform="translate(0.067749)"/>
</clipPath>
</defs>
</svg>
