<svg width="74" height="21" viewBox="0 0 74 21" fill="none" xmlns="http://www.w3.org/2000/svg">
<g clip-path="url(#clip0_30_100)">
<path d="M10.5573 0.0587158C4.90387 0.0587158 0.320007 4.64258 0.320007 10.296C0.320007 15.9494 4.90387 20.5333 10.5573 20.5333C16.2107 20.5333 20.7946 15.9494 20.7946 10.296C20.7828 4.64258 16.2107 0.0587158 10.5573 0.0587158ZM10.7101 10.6251L9.65228 14.2217H15.341C15.5408 14.2217 15.6701 14.4097 15.6231 14.5978L15.1294 16.302C15.0824 16.4666 14.9296 16.5841 14.7533 16.5841H6.05571L7.5249 11.6124L5.90292 12.1178L6.25552 10.9425L7.88926 10.4371L9.95787 3.45548C10.0049 3.29093 10.1577 3.17339 10.334 3.17339H12.5319C12.7317 3.17339 12.861 3.36145 12.814 3.5495L11.0627 9.44976L12.6847 8.94436L12.3321 10.1315L10.7101 10.6251Z" fill="#353535"/>
<path d="M26.7067 3.16174H26.072C25.9545 3.16174 25.8722 3.23226 25.8487 3.3498L24.2032 16.3844C24.1915 16.5137 24.2267 16.5725 24.356 16.5725H24.9907C25.12 16.5725 25.1905 16.5137 25.214 16.3844L26.8713 3.3498C26.9065 3.22051 26.836 3.16174 26.7067 3.16174Z" fill="#353535"/>
<path d="M30.0329 6.92285H29.3982C29.2807 6.92285 29.1984 6.98162 29.1749 7.11091L27.9996 16.3962C27.9878 16.5255 28.0583 16.5842 28.1759 16.5842H28.8106C28.9281 16.5842 29.0104 16.5255 29.0339 16.3962L30.1975 7.12266C30.2092 6.99337 30.1622 6.92285 30.0329 6.92285Z" fill="#353535"/>
<path d="M57.8417 6.7699C56.9602 6.7699 56.1962 7.01672 55.5497 7.52212C54.9033 8.02752 54.4802 8.68572 54.2686 9.50846C54.0923 10.1784 53.9395 11.1187 53.869 11.7534C53.775 12.6114 53.6927 13.3166 53.6927 13.9983C53.7044 14.8328 53.9748 15.491 54.4802 15.9964C54.9973 16.49 55.7025 16.7486 56.5958 16.7486C57.4656 16.7486 58.2295 16.5018 58.876 15.9964C59.5224 15.5027 59.9455 14.8328 60.1571 13.9983C60.2982 13.4459 60.4392 12.7054 60.5567 11.7534C60.6743 10.7661 60.733 10.0139 60.733 9.49671C60.733 8.67396 60.4745 8.01577 59.9573 7.52212C59.4284 7.01672 58.7232 6.7699 57.8417 6.7699ZM59.6282 10.8484C59.5694 11.3185 59.5342 11.6241 59.5224 11.7534C59.4049 12.7172 59.2991 13.3989 59.2051 13.8102C59.064 14.4214 58.7584 14.9151 58.3001 15.2912C57.8417 15.6673 57.301 15.8436 56.7016 15.8436C56.0904 15.8436 55.6085 15.6555 55.2441 15.2912C54.8798 14.9268 54.7035 14.4449 54.7035 13.8455C54.7035 13.5282 54.7387 13.1285 54.7975 12.6584C54.8563 12.1883 54.8915 11.8827 54.9033 11.7534C55.0208 10.8366 55.1266 10.1549 55.2206 9.69652C55.3617 9.08534 55.6673 8.59169 56.1257 8.21558C56.584 7.83947 57.1247 7.66316 57.7241 7.66316C58.3353 7.66316 58.8172 7.85122 59.1816 8.20382C59.5459 8.56818 59.7222 9.05008 59.7222 9.6495C59.7222 9.99036 59.687 10.3782 59.6282 10.8484Z" fill="#353535"/>
<path d="M64.3532 6.92285H63.7303C63.6128 6.92285 63.5305 6.99337 63.507 7.11091L62.3199 16.3962C62.3081 16.5255 62.3786 16.5842 62.4962 16.5842H63.1309C63.2484 16.5842 63.3307 16.5255 63.3542 16.3962L64.5178 7.12266C64.5295 6.99337 64.4825 6.92285 64.3532 6.92285Z" fill="#353535"/>
<path d="M72.369 7.47516C71.9341 7.01677 71.3229 6.79346 70.5237 6.79346C70.0065 6.79346 69.5364 6.88748 69.1015 7.08729C68.6666 7.2871 68.3023 7.58094 67.9967 7.98056C67.9379 8.02757 67.9144 8.01582 67.9144 7.9453L68.0084 7.12255C68.0202 7.00502 67.9732 6.9345 67.8556 6.9345H67.2209C67.1034 6.9345 67.0211 7.00502 66.9976 7.12255L65.834 16.3961C65.8223 16.5136 65.8575 16.5841 65.9868 16.5841H66.6215C66.739 16.5841 66.8213 16.5136 66.8331 16.3961L67.6793 9.74358C67.8204 9.12065 68.1142 8.61525 68.5491 8.25089C68.984 7.88653 69.5011 7.69848 70.1123 7.69848C70.6765 7.69848 71.1231 7.87478 71.4522 8.22738C71.7813 8.57999 71.9458 9.05013 71.9458 9.64956C71.9458 9.82586 71.9341 9.9669 71.9223 10.0727L71.1113 16.3961C71.1113 16.4548 71.1113 16.4901 71.1349 16.5254C71.1701 16.5606 71.2171 16.5841 71.2876 16.5841H71.9223C72.0399 16.5841 72.1221 16.5254 72.1339 16.3961L72.9449 9.91989C72.9684 9.66131 72.9802 9.47325 72.9802 9.34397C73.0154 8.54473 72.8038 7.92179 72.369 7.47516Z" fill="#353535"/>
<path d="M30.4441 3.17338C30.068 2.97357 29.5861 3.11461 29.3981 3.50248C29.1983 3.87859 29.3511 4.36048 29.7272 4.56029C30.1033 4.7601 30.5734 4.60731 30.7732 4.23119C30.9731 3.84333 30.832 3.37319 30.4441 3.17338Z" fill="#353535"/>
<path d="M64.8115 3.17338C64.4354 2.97357 63.9535 3.11461 63.7654 3.50248C63.5656 3.87859 63.7184 4.36048 64.0945 4.56029C64.4706 4.7601 64.9525 4.60731 65.1523 4.23119C65.3404 3.84333 65.1876 3.37319 64.8115 3.17338Z" fill="#353535"/>
<path d="M49.5672 6.7699C48.6857 6.7699 47.9217 7.02847 47.2753 7.52212C46.6289 8.02752 46.2057 8.68572 45.9942 9.50846C45.8179 10.1784 45.6533 11.2362 45.5945 11.7534C45.5123 12.5056 45.4182 13.3166 45.4182 13.9983C45.43 14.8328 45.7003 15.491 46.2057 15.9964C46.7229 16.49 47.4281 16.7486 48.3214 16.7486C49.1911 16.7486 49.9551 16.5018 50.6015 15.9964C51.248 15.5027 51.6711 14.8328 51.8827 13.9983C51.8944 13.9278 51.9179 13.8573 51.9297 13.7867C51.9414 13.728 51.8944 13.681 51.8474 13.681H51.0599C51.0129 13.681 50.9541 13.7045 50.9424 13.775C50.9424 13.7867 50.9306 13.8102 50.9306 13.8102C50.7896 14.4214 50.484 14.9151 50.0256 15.2912C49.5672 15.6673 49.0266 15.8436 48.4271 15.8436C47.816 15.8436 47.3341 15.6555 46.9697 15.2912C46.6053 14.9268 46.429 14.4449 46.429 13.8455C46.429 13.5282 46.4643 13.1285 46.5231 12.6584C46.5701 12.2588 46.6171 11.8827 46.6289 11.7534C46.7464 10.8366 46.8522 10.1549 46.9462 9.69652C47.0872 9.08534 47.3928 8.59169 47.8512 8.21558C48.3096 7.83947 48.8503 7.66316 49.4497 7.66316C50.0491 7.66316 50.5428 7.83947 50.9071 8.20382C51.2715 8.56818 51.4478 9.05008 51.4478 9.6495V9.66126C51.4478 9.74353 51.5183 9.81405 51.6006 9.81405H52.3411C52.3998 9.81405 52.4586 9.76704 52.4586 9.69652C52.4586 9.61424 52.4586 9.54372 52.4586 9.4732C52.4586 8.65046 52.2 7.99226 51.6829 7.49861C51.1539 7.01672 50.4605 6.7699 49.5672 6.7699Z" fill="#353535"/>
<path d="M43.1851 7.52212C42.6679 7.02847 41.9627 6.7699 41.0812 6.7699C40.1997 6.7699 39.4357 7.01672 38.7892 7.52212C38.1428 8.02752 37.7197 8.68572 37.5081 9.50846C37.3318 10.1784 37.2495 10.7778 37.1085 11.7534C36.9792 12.7172 36.9322 13.3166 36.9322 13.9983C36.9439 14.8328 37.2143 15.491 37.7197 15.9964C38.2368 16.49 38.942 16.7486 39.8353 16.7486C40.7051 16.7486 41.469 16.5018 42.1155 15.9964C42.7619 15.5027 43.185 14.8328 43.3966 13.9983C43.4084 13.9278 43.4319 13.8573 43.4436 13.7867C43.4554 13.728 43.4201 13.681 43.3614 13.681H42.5739C42.5269 13.681 42.4681 13.7045 42.4563 13.775C42.4563 13.7867 42.4446 13.8102 42.4446 13.8102C42.3035 14.4214 41.9979 14.9151 41.5396 15.2912C41.0812 15.6673 40.5405 15.8436 39.9411 15.8436C39.3299 15.8436 38.848 15.6555 38.4837 15.2912C38.1193 14.9268 37.943 14.4449 37.943 13.8455C37.943 13.5634 37.9665 13.2108 38.0135 12.8112L43.7257 11.0364C43.8432 11.0012 43.8903 10.9424 43.9138 10.8013C43.949 10.5075 43.9725 10.0021 43.9725 9.48495C43.9608 8.74448 43.7022 8.01577 43.1851 7.52212ZM42.9617 10.1902C42.9617 10.2489 42.9265 10.2959 42.8677 10.3077L38.131 11.7769C38.131 11.7651 38.131 11.7651 38.131 11.7534C38.2486 10.8366 38.3544 10.1549 38.4484 9.69652C38.5894 9.08534 38.895 8.59169 39.3534 8.21558C39.8118 7.83947 40.3525 7.66316 40.9519 7.66316C41.5631 7.66316 42.045 7.85122 42.4093 8.20382C42.9852 8.80325 42.997 9.41443 42.9617 10.1902Z" fill="#353535"/>
<path d="M34.7579 15.5615C34.8754 15.5028 35.0047 15.585 34.9812 15.7143L34.8989 16.349C34.8871 16.4313 34.8284 16.5018 34.7579 16.5371C34.1937 16.7486 33.4062 16.8427 32.7715 16.5606C32.0428 16.2315 31.8547 15.5145 31.9605 14.6213L32.795 7.81599L32.9126 6.84045L33.1946 4.6778C33.2064 4.54851 33.2887 4.48975 33.418 4.48975H34.0291C34.1702 4.48975 34.2054 4.57202 34.1819 4.6778L33.8176 7.75722H35.8039C35.9214 7.75722 35.9685 7.82774 35.9685 7.94527L35.9097 8.39191C35.8979 8.46243 35.8862 8.49769 35.8509 8.5447C35.8157 8.57996 35.7451 8.59172 35.6981 8.59172H33.7235L33.0301 14.1746C32.9596 14.7741 32.8773 15.3147 33.1829 15.6086C33.5825 15.9377 34.3582 15.7496 34.7579 15.5615Z" fill="#353535"/>
</g>
<defs>
<clipPath id="clip0_30_100">
<rect width="72.8129" height="20.5804" fill="white" transform="translate(0.261353)"/>
</clipPath>
</defs>
</svg>
