<svg width="86" height="23" viewBox="0 0 86 23" fill="none" xmlns="http://www.w3.org/2000/svg">
<g clip-path="url(#clip0_30_161)">
<path d="M11.2783 0.106812C5.11699 0.106812 0.120056 5.10314 0.120056 11.2648C0.120056 12.4966 0.319619 13.6813 0.688508 14.7895H4.02544V5.40127L11.2783 12.6542L18.5312 5.40127V14.7895H21.8685C22.2374 13.6813 22.4369 12.4966 22.4369 11.2648C22.4369 5.10314 17.44 0.106812 11.2783 0.106812Z" fill="#353535"/>
<path d="M6.44541 11.1564V17.0637H1.74359C3.70233 20.2773 7.24003 22.4235 11.2782 22.4235C15.3163 22.4235 18.8543 20.2773 20.8127 17.0637H16.1112V11.1564L11.2782 15.9894L6.44541 11.1564Z" fill="#353535"/>
<path d="M82.4583 14.4415C81.8684 15.0489 81.153 15.3516 80.3118 15.3516C79.5686 15.3516 78.9115 15.1182 78.3364 14.6489C77.5971 14.0505 77.2279 13.2356 77.2279 12.2046C77.2279 11.2814 77.5218 10.5186 78.1096 9.91987C78.6953 9.31906 79.4192 9.02063 80.2818 9.02063C81.1336 9.02063 81.8578 9.32783 82.4519 9.94134C83.0485 10.5551 83.3466 11.3056 83.3466 12.1937C83.3466 13.0841 83.0509 13.8319 82.4583 14.4415ZM83.6971 8.71554C82.7501 7.76278 81.6177 7.28503 80.2991 7.28503C79.4301 7.28503 78.6176 7.50365 77.8656 7.93996C77.1109 8.37658 76.5186 8.96862 76.0886 9.71668C75.6583 10.4644 75.4424 11.2838 75.4424 12.174C75.4424 13.5035 75.9048 14.651 76.8303 15.6177C77.755 16.5859 78.916 17.0678 80.3118 17.0678C81.6455 17.0678 82.7806 16.5989 83.7164 15.6564C84.6523 14.716 85.1191 13.5643 85.1191 12.2046C85.1191 10.8339 84.6456 9.67132 83.6971 8.71554Z" fill="#353535"/>
<path d="M72.0563 10.8765C71.8316 11.0331 71.7255 11.1102 71.131 11.1102H68.7919V9.10912H71.0585C71.5129 9.10912 71.5934 9.14329 71.7796 9.21344C71.9653 9.28147 72.1128 9.39516 72.2241 9.55148C72.3354 9.70811 72.3898 9.89407 72.3898 10.1072C72.3898 10.4658 72.2785 10.7223 72.0563 10.8765ZM72.3375 12.7188C72.957 12.4962 73.4221 12.1697 73.7305 11.7388C74.0392 11.3055 74.1913 10.7697 74.1913 10.1257C74.1913 9.5152 74.0531 8.98424 73.7737 8.53734C73.4947 8.09044 73.1249 7.77054 72.6668 7.57763C72.2084 7.38472 71.4392 7.28735 70.357 7.28735H66.9315V17.0659H68.7919V12.9253H70.4156L72.6169 17.0659H74.6518L72.3375 12.7188Z" fill="#353535"/>
<path d="M58.5915 7.28503H64.9315V9.1068H60.4408V11.1082H64.9315V12.8982H60.4408V15.2349H64.9315V17.0639H58.5915V7.28503Z" fill="#353535"/>
<path d="M48.768 7.28503H50.5493L54.7443 13.7194V7.28503H56.6048V17.0636H54.8169L50.6285 10.6498V17.0636H48.768V7.28503Z" fill="#353535"/>
<path d="M44.6446 14.4415C44.0546 15.0489 43.3392 15.3516 42.4981 15.3516C41.7548 15.3516 41.0978 15.1182 40.5227 14.6489C39.7834 14.0505 39.4142 13.2356 39.4142 12.2046C39.4142 11.2814 39.7081 10.5186 40.2959 9.91987C40.8816 9.31906 41.6055 9.02063 42.4681 9.02063C43.3199 9.02063 44.0441 9.32783 44.6382 9.94134C45.2348 10.5551 45.5329 11.3056 45.5329 12.1937C45.5329 13.0841 45.2372 13.8319 44.6446 14.4415ZM45.8834 8.71554C44.9363 7.76278 43.804 7.28503 42.4854 7.28503C41.6163 7.28503 40.8039 7.50365 40.0519 7.93996C39.2972 8.37658 38.7048 8.96862 38.2749 9.71668C37.8446 10.4644 37.6287 11.2838 37.6287 12.174C37.6287 13.5035 38.091 14.651 39.0166 15.6177C39.9412 16.5859 41.1023 17.0678 42.4981 17.0678C43.8318 17.0678 44.9669 16.5989 45.9027 15.6564C46.8385 14.716 47.3054 13.5643 47.3054 12.2046C47.3054 10.8339 46.8319 9.67132 45.8834 8.71554Z" fill="#353535"/>
<path d="M27.1188 7.28479H28.9406L31.2002 14.1053L33.4943 7.28479H35.2888L36.9364 17.0637H35.1416L34.0911 10.8878L32.0106 17.0637H30.3699L28.3168 10.8878L27.2458 17.0637H25.4307L27.1188 7.28479Z" fill="#353535"/>
</g>
<defs>
<clipPath id="clip0_30_161">
<rect width="85.2677" height="22.6776" fill="white"/>
</clipPath>
</defs>
</svg>
