<svg width="86" height="23" viewBox="0 0 86 23" fill="none" xmlns="http://www.w3.org/2000/svg">
<g clip-path="url(#clip0_30_150)">
<path d="M27.3433 12.2192H30.2996C30.7153 12.2192 31.0521 12.5597 31.0521 12.9753C31.0521 13.3946 30.7153 13.7314 30.2996 13.7314H26.7342C26.6768 13.7314 26.6231 13.7529 26.5837 13.7888L25.5086 14.7169C25.3438 14.8602 25.4441 15.1289 25.6591 15.1289H30.1205C30.1205 15.1289 30.124 15.1289 30.124 15.1254C30.124 15.1218 30.1276 15.1218 30.1276 15.1218C30.185 15.1254 30.2387 15.1289 30.2961 15.1289C31.4786 15.1289 32.4389 14.165 32.4389 12.9753C32.4389 11.8466 31.5753 10.9185 30.4716 10.8289C30.4716 10.8289 30.4681 10.8289 30.4681 10.8253C30.4681 10.8217 30.4681 10.8217 30.4645 10.8217H27.2824C26.8667 10.8217 26.5299 10.4813 26.5299 10.0656C26.5299 9.64635 26.8667 9.30951 27.2824 9.30951H30.8407C30.8981 9.30951 30.9554 9.28801 30.9984 9.24859L31.9982 8.32049C32.1558 8.17358 32.0519 7.91199 31.8405 7.91199H27.3433C27.3254 7.91199 27.3039 7.91199 27.286 7.91199C26.1035 7.91199 25.1431 8.87592 25.1431 10.0656C25.1431 11.2553 26.1035 12.2192 27.286 12.2192C27.3039 12.2192 27.3218 12.2192 27.3433 12.2192Z" fill="#353535"/>
<path d="M44.5508 7.90837C44.4218 7.90837 44.3179 8.01229 44.3179 8.14487V14.896C44.3179 15.025 44.4218 15.1325 44.5508 15.1325H49.9617C50.0262 15.1325 50.0871 15.1038 50.1337 15.0572L50.811 14.3298C50.9507 14.1793 50.8468 13.9321 50.639 13.9321H45.9161C45.7871 13.9321 45.6831 13.8281 45.6831 13.6956V8.14129C45.6831 8.01229 45.5792 7.90479 45.4502 7.90479H44.5508V7.90837Z" fill="#353535"/>
<path fill-rule="evenodd" clip-rule="evenodd" d="M35.8861 7.90857C35.8861 7.91215 35.8861 7.91215 35.8861 7.90857C35.1945 7.94082 34.6391 8.49625 34.6068 9.18784V13.728C34.6068 13.7459 34.6068 13.7674 34.6068 13.7853C34.6068 14.5056 35.173 15.0933 35.8861 15.1219H40.7953C41.5048 15.0897 42.0746 14.502 42.0746 13.7853C42.0746 13.7674 42.0746 13.7459 42.0746 13.728V9.19143C42.0459 8.49983 41.4905 7.94082 40.7989 7.91215H35.8861V7.90857ZM36.8034 9.19143C36.7998 9.19143 36.7998 9.19143 36.8034 9.19143C36.3698 9.20934 36.0223 9.56051 36.0043 9.99769V12.8537C36.0043 12.8644 36.0043 12.8787 36.0043 12.8895C36.0043 13.341 36.3591 13.7137 36.8034 13.7316H39.8816C40.3259 13.7137 40.6807 13.341 40.6807 12.8895C40.6807 12.8787 40.6807 12.8644 40.6807 12.8537V9.99769C40.6628 9.56051 40.3152 9.21293 39.8816 9.19143H36.8034Z" fill="#353535"/>
<path fill-rule="evenodd" clip-rule="evenodd" d="M58.6765 14.8961C58.6765 15.0251 58.7804 15.1326 58.9094 15.1326H59.8268C59.9558 15.1326 60.0597 15.0287 60.0597 14.8961V9.30959C60.0597 9.29167 60.0597 9.27017 60.0597 9.25226C60.0597 8.53199 59.4971 7.94432 58.7948 7.91565H54.0826C54.0647 7.91565 54.0432 7.91565 54.0253 7.91565C53.2943 7.91565 52.703 8.51408 52.703 9.25584C52.703 9.27376 52.703 9.29526 52.703 9.31317V14.8997C52.703 15.0287 52.8069 15.1362 52.9359 15.1362H53.8533C53.9823 15.1362 54.0862 15.0323 54.0862 14.8997V12.5741C54.0862 12.4451 54.1901 12.3376 54.3191 12.3376H58.4544C58.5834 12.3376 58.6873 12.4415 58.6873 12.5741V14.8961H58.6765ZM54.079 11.0511V9.8901C54.079 9.43859 54.4409 9.07309 54.8853 9.07309H57.8738C58.3182 9.07309 58.6801 9.43859 58.6801 9.8901V11.0511C58.6801 11.1801 58.5762 11.2876 58.4472 11.2876H54.3119C54.1829 11.2876 54.079 11.1837 54.079 11.0511Z" fill="#353535"/>
<path fill-rule="evenodd" clip-rule="evenodd" d="M78.0447 15.1325C77.9157 15.1325 77.8118 15.0286 77.8118 14.896V12.5704C77.8118 12.4414 77.7078 12.3339 77.5788 12.3339H73.397C73.268 12.3339 73.1641 12.4378 73.1641 12.5704V14.896C73.1641 15.025 73.0602 15.1325 72.9312 15.1325H72.0067C71.8777 15.1325 71.7737 15.0286 71.7737 14.896V9.30951C71.7737 9.29159 71.7737 9.27009 71.7737 9.25218C71.7737 8.514 72.3722 7.91199 73.1104 7.91199C73.1283 7.91199 73.1498 7.91199 73.1677 7.91199H77.93C78.6395 7.94424 79.2093 8.53192 79.2093 9.24859C79.2093 9.26651 79.2093 9.28801 79.2093 9.30593V14.8924C79.2093 15.0214 79.1054 15.1289 78.9764 15.1289H78.0447V15.1325ZM73.1641 9.89002V11.051C73.1641 11.18 73.268 11.2875 73.397 11.2875H77.5788C77.7078 11.2875 77.8118 11.1836 77.8118 11.051V9.89002C77.8118 9.43851 77.4463 9.07301 76.9983 9.07301H73.9775C73.526 9.07301 73.1641 9.43851 73.1641 9.89002Z" fill="#353535"/>
<path d="M63.5142 7.90857C63.5822 7.90857 63.6467 7.93724 63.6897 7.99099L67.8035 12.8967C67.9432 13.0615 68.212 12.9612 68.212 12.7426V8.14507C68.212 8.01607 68.3159 7.90857 68.4449 7.90857H69.3623C69.4913 7.90857 69.5952 8.01249 69.5952 8.14507V14.8962C69.5952 15.0252 69.4913 15.1327 69.3623 15.1327H68.2227C68.2192 15.1327 68.2156 15.1291 68.2156 15.1255C68.2156 15.1219 68.2156 15.1219 68.212 15.1184L64.0266 10.2485C63.8868 10.0837 63.6181 10.1876 63.6181 10.4026V14.8998C63.6181 15.0288 63.5142 15.1363 63.3852 15.1363H62.4606C62.3316 15.1363 62.2277 15.0324 62.2277 14.8998V8.14507C62.2277 8.01607 62.3316 7.90857 62.4606 7.90857H63.5142Z" fill="#353535"/>
<path d="M3.81116 15.3799C3.92583 15.2652 4.07991 15.2007 4.24117 15.2007H19.166C19.4383 15.2007 19.5745 15.5304 19.381 15.7203L16.4319 18.6694C16.3172 18.7841 16.1631 18.8486 16.0019 18.8486H1.07703C0.804689 18.8486 0.66852 18.5189 0.862023 18.329L3.81116 15.3799Z" fill="#353535"/>
<path d="M3.81116 4.37167C3.92583 4.25701 4.07991 4.1925 4.24117 4.1925H19.166C19.4383 4.1925 19.5745 4.52218 19.381 4.7121L16.4319 7.65765C16.3172 7.77232 16.1631 7.83682 16.0019 7.83682H1.07703C0.804689 7.83682 0.66852 7.50715 0.862023 7.31723L3.81116 4.37167Z" fill="#353535"/>
<path d="M16.4319 9.83994C16.3172 9.72527 16.1631 9.66077 16.0019 9.66077H1.07703C0.804689 9.66077 0.66852 9.99044 0.862023 10.1804L3.81116 13.1259C3.92583 13.2406 4.07991 13.3051 4.24117 13.3051H19.166C19.4383 13.3051 19.5745 12.9754 19.381 12.7855L16.4319 9.83994Z" fill="#353535"/>
</g>
<defs>
<clipPath id="clip0_30_150">
<rect width="85.2677" height="22.7943" fill="white" transform="translate(0.7323)"/>
</clipPath>
</defs>
</svg>
