<svg width="86" height="19" viewBox="0 0 86 19" fill="none" xmlns="http://www.w3.org/2000/svg">
<g clip-path="url(#clip0_30_142)">
<path fill-rule="evenodd" clip-rule="evenodd" d="M11.7177 9.08858C14.4791 9.08858 16.787 8.62154 17.3495 7.99768C16.8723 7.46928 15.137 7.05336 12.9382 6.93746V8.25336C12.5427 8.27382 12.1336 8.28404 11.7143 8.28404C11.295 8.28404 10.8859 8.28404 10.4905 8.25336V6.93746C8.29161 7.05336 6.55981 7.46928 6.07913 7.99768C6.64845 8.62154 8.95638 9.08858 11.7177 9.08858ZM16.6234 2.88749V4.71474H12.9416V5.97269C15.5291 6.10565 17.4688 6.65451 17.4825 7.33632V8.69995C17.4825 9.36131 15.5257 9.91358 12.9416 10.0636V13.1522H10.4973V10.0636C7.9098 9.93063 5.97004 9.38177 5.9564 8.69995V7.33632C5.9564 6.67496 7.91321 6.12269 10.4973 5.97269V4.71474H6.81549V2.90111L16.6234 2.88749ZM5.37345 2.58962e-07H18.3041C18.4548 -0.000116318 18.603 0.0391283 18.734 0.113868C18.8649 0.188608 18.9741 0.296254 19.0507 0.426134L22.8177 6.90337C22.9106 7.06535 22.9473 7.25352 22.922 7.43854C22.8967 7.62355 22.8109 7.79499 22.6779 7.9261L12.3075 18.0476C12.1452 18.2059 11.9274 18.2945 11.7007 18.2945C11.474 18.2945 11.2562 18.2059 11.0939 18.0476L0.737112 7.93972C0.599301 7.80555 0.511361 7.62839 0.487809 7.4375C0.464257 7.2466 0.5065 7.05338 0.607565 6.88973L4.63368 0.412495C4.71012 0.288094 4.81678 0.185041 4.94373 0.112922C5.07068 0.0408019 5.21382 0.0019602 5.35981 2.58962e-07H5.37345Z" fill="#353535"/>
<path d="M27.8561 3.5079L30.8459 3.16699V6.03061H33.4402V8.52265H30.8322V12.3851C30.8322 13.2942 31.2197 13.7488 31.9947 13.7488C32.4232 13.7631 32.8491 13.678 33.2391 13.4999L33.9209 15.9919C33.2303 16.2576 32.5019 16.4118 31.7629 16.4487C30.5584 16.5033 29.6038 16.2192 28.8993 15.5965C28.1948 14.9737 27.8538 13.901 27.8766 12.3783V8.53288H26.0493V6.04085H27.8766L27.8561 3.5079Z" fill="#353535"/>
<path d="M37.0912 9.90325H41.9491C41.9414 9.65475 41.8683 9.41268 41.7372 9.20142C41.6062 8.99015 41.4217 8.81716 41.2025 8.69986C40.6868 8.39684 40.0959 8.24559 39.498 8.2635C38.953 8.24873 38.4165 8.40099 37.9605 8.69986C37.5369 8.98491 37.2287 9.41154 37.0912 9.90325ZM44.6252 12.0817H37.0912C37.1351 12.3469 37.2336 12.6001 37.3802 12.8254C37.5269 13.0507 37.7187 13.2432 37.9434 13.3907C38.5214 13.7483 39.1942 13.9218 39.873 13.8885C41.0207 13.8885 41.9059 13.6191 42.5286 13.0805L44.2093 14.9487C43.1843 15.9601 41.7173 16.4657 39.8082 16.4657C37.99 16.4657 36.5719 15.9748 35.5537 14.993C34.5355 14.0112 34.0378 12.6828 34.0605 11.0078C34.0299 10.3043 34.1448 9.60199 34.3983 8.94497C34.6517 8.28795 35.0381 7.69036 35.5332 7.18964C36.515 6.20783 37.8366 5.71692 39.498 5.71692C41.3162 5.71692 42.7002 6.27032 43.6502 7.37714C44.6002 8.48395 44.9252 10.0521 44.6252 12.0817Z" fill="#353535"/>
<path d="M47.1172 3.5079L50.107 3.16699V6.03061H52.7013V8.52265H50.0865V12.3851C50.0865 13.2942 50.474 13.7488 51.249 13.7488C51.6774 13.7631 52.1034 13.678 52.4933 13.4999L53.1751 15.9919C52.4846 16.2576 51.7562 16.4118 51.0172 16.4487C49.8127 16.5033 48.8581 16.2192 48.1536 15.5965C47.449 14.9737 47.1081 13.901 47.1308 12.3783V8.53288H45.3036V6.04085H47.1308L47.1172 3.5079Z" fill="#353535"/>
<path d="M54.3003 1.70459H57.3105V7.24774C57.6752 6.77555 58.1488 6.39869 58.6908 6.14935C59.2328 5.90001 59.8271 5.78561 60.423 5.81593C63.1502 5.81593 64.5138 7.45568 64.5138 10.7352V16.2375H61.5139V10.7557C61.5521 10.1601 61.3591 9.57279 60.9752 9.11591C60.7969 8.92166 60.578 8.76904 60.3341 8.66888C60.0902 8.56872 59.8273 8.52348 59.5639 8.53636C59.2597 8.5294 58.9572 8.58479 58.6752 8.69912C58.3932 8.81345 58.1376 8.98428 57.9241 9.20113C57.7 9.45131 57.5277 9.74342 57.4171 10.0606C57.3065 10.3777 57.2599 10.7136 57.2798 11.0489V16.2375H54.29L54.3003 1.70459Z" fill="#353535"/>
<path d="M68.7002 9.90335H73.5581C73.5504 9.65485 73.4773 9.41278 73.3462 9.20152C73.2152 8.99025 73.0307 8.81726 72.8115 8.69996C72.2957 8.39694 71.7049 8.24569 71.107 8.2636C70.562 8.24883 70.0255 8.40109 69.5695 8.69996C69.1459 8.98501 68.8377 9.41164 68.7002 9.90335ZM76.2342 12.0818H68.7002C68.7441 12.347 68.8425 12.6002 68.9892 12.8255C69.1359 13.0508 69.3277 13.2433 69.5524 13.3908C70.1304 13.7482 70.8032 13.9217 71.482 13.8886C72.6297 13.8886 73.5149 13.6192 74.1376 13.0806L75.8319 14.942C74.807 15.9533 73.3399 16.459 71.4308 16.459C69.6127 16.459 68.1945 15.9681 67.1763 14.9863C66.1581 14.0045 65.6604 12.6761 65.6831 11.0011C65.6525 10.2976 65.7675 9.59527 66.0209 8.93825C66.2743 8.28124 66.6607 7.68364 67.1559 7.18292C68.1377 6.2011 69.4593 5.71021 71.1206 5.71021C72.9388 5.71021 74.3229 6.26361 75.2729 7.37042C76.2228 8.47723 76.5444 10.0477 76.2376 12.0818H76.2342Z" fill="#353535"/>
<path d="M77.475 5.99995H80.2637L80.4921 7.12153C80.7954 6.68333 81.2043 6.32868 81.681 6.09033C82.1577 5.85199 82.6867 5.73766 83.2193 5.7579C84.1446 5.7415 85.0419 6.07511 85.7318 6.69199L84.4875 9.05788C84.0103 8.71437 83.4356 8.53278 82.8477 8.53971C82.2167 8.52055 81.6038 8.75223 81.1432 9.18402C80.9117 9.40455 80.7309 9.6727 80.6132 9.96993C80.4955 10.2672 80.4437 10.5864 80.4614 10.9056V16.2408H77.4716L77.475 5.99995Z" fill="#353535"/>
</g>
<defs>
<clipPath id="clip0_30_142">
<rect width="85.2677" height="18.2931" fill="white" transform="translate(0.470947)"/>
</clipPath>
</defs>
</svg>
