<svg width="35" height="21" viewBox="0 0 35 21" fill="none" xmlns="http://www.w3.org/2000/svg">
<g clip-path="url(#clip0_30_188)">
<path d="M19.8398 3.45407C19.8417 3.45217 19.8455 3.45597 19.8455 3.45977L19.8398 3.45407ZM18.9806 3.53772C18.9825 3.45217 19.1954 2.64234 19.2239 2.53399C19.2676 2.36099 19.3076 2.19561 19.3475 2.03592C19.3741 1.92947 19.4672 1.62531 19.4691 1.53406C19.4121 1.57588 19.2524 1.92757 19.2087 1.9979C18.9939 2.35529 18.4635 3.60995 18.3361 4.0738C18.2221 4.48822 17.9084 5.54898 17.9388 5.89686L18.2373 6.11548L18.2981 6.14209L18.2886 6.1573C18.397 6.1554 18.3114 6.1516 18.3456 6.18201V19.4909L18.3647 19.4852C18.3342 19.4244 18.3514 9.55059 18.3514 7.83208C18.3514 7.296 18.3266 6.69528 18.3533 6.1668L18.4768 6.21053C18.5338 6.18962 18.8513 6.25045 18.9426 6.25995C19.4939 5.4064 19.8988 4.86652 20.4843 4.11752L20.9025 3.60995C20.931 3.57193 20.9462 3.56433 20.9747 3.53011L22.2313 2.15759L23.4137 1.03219C23.4631 0.996074 23.4746 1.00178 23.4898 0.940944L22.9404 1.15005C22.6058 1.28313 22.353 1.39719 22.045 1.57018C21.5051 1.87244 21.0451 2.16329 20.5945 2.61383C20.3759 2.83244 20.2333 2.96361 20.0413 3.20694C20.0014 3.25827 19.9045 3.38944 19.8665 3.41795C19.8855 3.33241 20.0585 3.03965 20.1136 2.9408C20.3284 2.5549 20.5831 2.20321 20.8341 1.84012C21.009 1.58729 21.2751 1.25461 21.4671 1.00748C21.5184 0.940944 21.5736 0.866805 21.6325 0.802171C21.661 0.769854 22.2807 0.045572 22.294 -0.00195312C22.2104 0.053176 22.1324 0.110206 22.0488 0.172939L20.8797 1.14055C20.8093 1.20899 20.7409 1.29073 20.6687 1.34966C20.4919 1.49033 20.0166 2.03402 19.8455 2.24503C19.4501 2.73359 19.3228 2.96932 19.0319 3.46928C19.0167 3.49399 19.0338 3.46928 19.0129 3.4997C18.9996 3.5168 18.9901 3.52631 18.9806 3.53772Z" fill="#353535"/>
<path d="M19.4691 1.53272H19.4867L19.473 1.51318L19.4691 1.53272Z" fill="#353535"/>
<path d="M18.3667 19.4872C18.7088 18.8313 18.7982 17.7383 18.8039 16.9151C18.8134 15.7973 18.418 14.7575 18.4484 14.2708C18.6708 15.2175 19.0282 15.9532 19.0605 17.033C19.0738 17.4911 19.0016 18.1527 18.9351 18.607C18.8571 19.1355 18.6442 19.4492 18.3933 19.7419L18.3914 19.7609C18.5263 19.6849 18.6613 19.5537 18.7526 19.453C19.1004 19.069 19.2924 18.6241 19.4084 18.088C19.5491 17.4284 19.7012 16.3106 19.6308 15.6224C19.5947 15.267 19.4844 14.8468 19.3913 14.5199C19.0662 13.3945 18.7031 13.4268 18.5682 12.6474C18.5054 12.2805 18.5206 11.7425 18.532 11.3585C18.5796 11.7254 18.6024 12.1455 18.6689 12.5105C18.7373 12.8869 18.9274 13.1055 19.0852 13.3926C19.8513 14.7993 20.0148 16.0388 19.7316 17.6546C19.6688 18.0177 19.5928 18.3637 19.4711 18.6888C19.2639 19.2363 19.1993 19.2077 19.0282 19.5271C19.2392 19.3446 19.5434 18.7686 19.6707 18.4169C19.9065 17.7687 20.1574 16.168 20.203 15.4514C20.2429 14.8259 20.184 14.4191 20.0795 13.8336C19.8875 12.7728 19.5472 12.117 19.1233 11.2825C18.878 10.7996 18.7335 10.6608 18.6366 10.0164C18.5663 9.54494 18.4978 8.86438 18.5073 8.38532C18.5282 8.42905 18.5244 8.43285 18.5282 8.49368L18.5967 9.14953C18.6252 9.38905 18.6575 9.63428 18.6993 9.86811C18.8153 10.5106 18.8894 10.5087 19.1727 11.0467C19.5244 11.7159 19.9863 12.5124 20.184 13.3374C20.4026 14.2518 20.4844 15.4019 20.3456 16.3619C20.2753 16.8448 19.9635 18.1812 19.7601 18.6755C19.7221 18.7686 19.6631 18.8694 19.6346 18.9568C19.7468 18.8637 19.935 18.5424 20.0205 18.3808C20.1498 18.1413 20.203 17.9816 20.2696 17.685C20.6288 16.0616 20.7676 14.1511 20.5376 12.5086C20.1289 9.57915 18.8343 9.44038 18.7411 7.70286C18.724 7.3949 18.7697 6.89684 18.7602 6.78468L18.7564 6.35125L18.4769 6.21438L18.3533 6.17065C18.3248 6.69913 18.3514 7.29985 18.3514 7.83593C18.3552 9.55254 18.3362 19.4264 18.3667 19.4872ZM18.2868 14.5313C18.1975 14.7176 18.2393 14.8278 18.0226 15.1643C17.6519 15.7403 17.2565 16.1148 17.2146 17.014C17.188 17.59 17.3515 17.9949 17.5454 18.4492C17.7051 18.8218 17.9865 19.3218 18.2887 19.4682L18.2868 14.5313Z" fill="#353535"/>
<path d="M26.7139 12.079V19.6944C26.7139 19.9739 27.0371 20.2172 27.3546 20.2172H31.1794C31.417 20.2172 31.5748 20.1145 31.6889 19.9853C31.8352 19.8218 31.82 19.6545 31.82 19.3579V13.3603C31.82 13.0447 31.8276 12.942 31.9189 12.7177C31.9816 12.5618 32.1128 12.3812 32.242 12.2824C32.6926 11.9345 33.1374 11.8889 33.7077 11.8794C33.9396 11.8756 34.1069 11.771 34.1126 11.5258C34.1145 11.3927 34.1297 11.3034 34.1297 11.1551V7.51468C34.1297 7.15729 34.0195 6.89115 33.7324 6.75048C33.645 6.70865 33.529 6.67254 33.4055 6.67254C32.1071 6.67254 31.2839 6.62501 30.1034 7.14398C29.3145 7.48997 28.8374 7.86446 28.2709 8.42906C27.9325 8.76744 27.4705 9.41188 27.2728 9.85672C27.0865 10.2768 27.0333 10.4118 26.9002 10.8661C26.809 11.1608 26.7139 11.7007 26.7139 12.079ZM18.7639 6.78279C18.802 7.00141 18.7582 7.21812 18.8685 7.7447C18.9997 8.36823 19.1879 8.74843 19.5319 9.23889C19.6783 9.4461 19.8114 9.67802 19.9445 9.90614C20.2106 10.3624 20.4368 10.8452 20.5889 11.4174C20.7372 11.9687 20.8912 12.6075 20.9729 13.1892C21.1535 14.4743 21.1383 15.9342 20.8836 17.187C20.6916 18.1375 20.4729 18.7363 19.9102 19.4473C19.6593 19.7647 19.4388 19.8978 19.3647 19.9853C20.0243 19.9301 21.1421 19.5309 21.6611 19.261C22.0242 19.0728 22.3055 18.9226 22.6021 18.7021C22.6781 18.647 22.7484 18.5899 22.8188 18.531L23.2009 18.1736C23.2579 18.1204 23.3092 18.05 23.3739 17.9759C24.4327 16.7897 24.8262 14.94 24.4327 13.347C23.9328 11.3243 22.5964 10.3586 20.9482 9.31873C20.7923 9.21988 20.6421 9.13433 20.4729 9.03548C20.049 8.78645 19.6365 8.33401 19.4141 7.85306C19.2107 7.41013 19.1726 7.12497 19.2601 6.6022L18.7601 6.34937L18.7639 6.78279Z" fill="#353535"/>
<path d="M0.516113 2.72983V6.43679C0.516113 6.73715 0.778452 7.0318 0.987562 7.12685C1.2461 7.24662 1.73466 7.2105 2.06543 7.2105H3.81816C4.10331 7.2105 4.474 7.18769 4.63179 7.55838C4.71353 7.74848 4.67741 9.00314 4.67741 9.26548V18.6146C4.67741 18.9074 4.64319 19.5214 4.70402 19.7495C4.78006 20.0271 5.0386 20.2495 5.38458 20.2495H9.41091C9.7664 20.2495 10.023 20.0461 10.1162 19.7932C10.1922 19.586 10.1523 18.9416 10.1523 18.6488V8.12108C10.1523 7.91957 10.1561 7.72947 10.2169 7.5964C10.4317 7.11925 11.0667 7.2124 11.5838 7.2124H13.3536C13.5589 7.2124 13.7015 7.18388 13.8345 7.10404C13.9163 7.05652 13.9315 7.04131 13.9999 6.98428C14.1634 6.8455 14.2794 6.60598 14.2794 6.37025V2.81348C14.2794 2.34013 13.8973 1.95422 13.4543 1.95422H1.32404C0.898215 1.95422 0.516113 2.34963 0.516113 2.72983Z" fill="#353535"/>
<path d="M18.2905 6.1573L18.3 6.14209L18.2392 6.11547L17.0815 5.64783C17.2127 5.89306 17.4579 6.39682 17.5282 6.68958C17.6195 7.05837 17.6404 7.65909 17.4845 7.98986C17.2069 8.57917 16.5036 9.10385 15.9599 9.43082C15.3345 9.80532 15.1767 9.93269 14.6596 10.3547L13.8612 11.0353C13.6084 11.2881 13.5551 11.3147 13.3194 11.6075C13.2662 11.6721 13.2129 11.7405 13.1597 11.8185C13.0723 11.9401 12.9525 12.1245 12.8784 12.2785C12.1731 13.7404 12.1598 15.6756 13.0228 17.0767C13.5608 17.9511 14.3764 18.8199 15.3002 19.2476C15.5664 19.3712 16.0663 19.6164 16.3724 19.662C16.1139 19.4339 15.9162 19.6069 15.0911 18.5975C14.7604 18.1945 14.4505 17.7154 14.1691 17.1945C13.8878 16.6717 13.6787 16.149 13.5361 15.5026C13.3669 14.7365 13.5703 14.2366 13.8536 13.6244C14.1463 12.9933 14.422 12.7253 14.8421 12.2709C15.1139 11.9782 16.1614 11.2501 16.5226 11.0372C17.3172 10.5657 17.4351 10.3927 17.7639 9.3795L18.032 8.48412C17.8989 9.17609 17.821 9.82813 17.5016 10.4136C17.3191 10.7463 17.1518 10.8281 16.8724 11.0315C16.0017 11.6664 15.1558 12.0865 14.4733 12.9971C14.2072 13.3526 13.9847 13.7708 13.8327 14.2099C13.6958 14.6035 13.6312 14.8126 13.6977 15.2707C13.8745 16.4874 14.6235 17.6888 15.363 18.5937L15.8781 19.1735C16.0473 19.3598 16.4884 19.5632 16.7944 19.6544C17.0397 19.7286 17.5263 19.8844 17.762 19.9054C17.6366 19.8844 17.2507 19.7058 17.1214 19.6468C16.5397 19.3826 15.9941 18.932 15.612 18.4454C15.1311 17.8333 14.709 16.6698 14.9334 15.649C15.1406 14.7042 15.8724 13.9989 16.5245 13.6168C16.7298 13.4971 16.9161 13.4058 17.091 13.2747C17.6385 12.864 17.8799 12.2633 18.0966 11.5923C18.089 11.7653 17.9693 12.1474 17.9122 12.3108C17.5301 13.3963 16.8876 13.4172 16.1025 14.1244C15.6823 14.5027 15.2033 15.2137 15.0854 15.8182C14.9086 16.7212 15.5303 17.7914 16.0188 18.4416C16.5606 19.164 17.0663 19.4681 17.9445 19.7C18.0054 19.7153 18.2297 19.7913 18.2867 19.7609C18.2601 19.7134 18.2734 19.7343 18.2107 19.7019C17.8134 19.489 17.5491 19.0613 17.3761 18.6488C17.1271 18.0557 16.9959 17.7382 17.053 16.9987C17.1746 15.4266 17.8837 15.419 18.2183 14.6244C18.2962 14.4381 18.2848 14.4248 18.2848 14.2023C18.2848 12.8602 18.2848 11.5181 18.2848 10.176C18.2905 8.84531 18.2601 7.4842 18.2905 6.1573Z" fill="#353535"/>
<path d="M18.9406 19.6261C18.9692 19.5785 18.9482 19.5899 19.011 19.5519L18.9406 19.6261ZM18.914 20.3351H18.5757C18.2886 20.3313 18.0015 20.3218 17.7848 20.318L17.0168 20.242C16.764 20.2059 16.5435 20.1621 16.3116 20.1051C15.5835 19.9226 14.8896 19.6109 14.2889 19.1964C14.0227 19.012 13.5893 18.6603 13.3726 18.4265C12.9582 17.9779 12.7909 17.7346 12.4924 17.2175C11.8119 16.0427 11.6921 14.2994 12.0419 13.0258C12.2909 12.1133 12.6388 11.6571 13.1578 10.9917C13.268 10.851 13.5437 10.5849 13.6692 10.4575C14.0189 10.1077 14.6824 9.64389 15.0911 9.37014C15.2641 9.25418 15.4238 9.14773 15.5968 9.03367C15.6842 8.97474 15.7603 8.92341 15.8496 8.86448C16.2203 8.61735 16.7982 8.31509 17.0035 7.92918C17.5928 6.8247 16.6994 5.51111 16.6556 5.32291C16.6784 5.29059 16.7089 5.27348 16.7469 5.24687C16.7906 5.21455 16.8039 5.19744 16.84 5.17273C16.9351 5.22216 17.0225 5.28869 17.1157 5.35142L17.6613 5.71452C17.7544 5.77725 17.8438 5.84188 17.9388 5.89701L18.2373 6.11563L17.0796 5.64798C17.2107 5.89321 17.456 6.39698 17.5263 6.68973C17.6175 7.05852 17.6385 7.65924 17.4826 7.99002C17.205 8.57933 16.5017 9.104 15.958 9.43098C15.3325 9.80548 15.1748 9.93284 14.6577 10.3549L13.8612 11.0354C13.6083 11.2883 13.5551 11.3149 13.3194 11.6076C13.2661 11.6723 13.2129 11.7407 13.1597 11.8186C13.0722 11.9403 12.9525 12.1247 12.8783 12.2787C12.1731 13.7406 12.1598 15.6758 13.0228 17.0768C13.5608 17.9513 14.3763 18.82 15.3002 19.2478C15.5664 19.3713 16.0663 19.6166 16.3724 19.6622C16.1139 19.4341 15.9161 19.607 15.0911 18.5976C14.7603 18.1946 14.4505 17.7156 14.1691 17.1947C13.8878 16.6719 13.6787 16.1491 13.5361 15.5028C13.3669 14.7367 13.5703 14.2367 13.8536 13.6246C14.1463 12.9935 14.422 12.7254 14.8421 12.2711C15.1139 11.9783 16.1614 11.2502 16.5226 11.0373C17.3172 10.5659 17.435 10.3929 17.7639 9.37965L18.032 8.48428C17.8989 9.17624 17.821 9.82829 17.5016 10.4138C17.3191 10.7465 17.1518 10.8282 16.8724 11.0316C16.0017 11.6666 15.1557 12.0867 14.4733 12.9973C14.2071 13.3527 13.9847 13.771 13.8326 14.2101C13.6958 14.6036 13.6311 14.8127 13.6977 15.2709C13.8745 16.4875 14.6235 17.6889 15.363 18.5938L15.8781 19.1736C16.0473 19.3599 16.4883 19.5633 16.7944 19.6546C17.0396 19.7287 17.5263 19.8846 17.762 19.9055C17.6366 19.8846 17.2507 19.7059 17.1214 19.647C16.5397 19.3827 15.9941 18.9322 15.612 18.4455C15.131 17.8334 14.709 16.67 14.9333 15.6492C15.1405 14.7044 15.8724 13.9991 16.5245 13.617C16.7298 13.4972 16.9161 13.406 17.091 13.2748C17.6385 12.8642 17.8799 12.2635 18.0966 11.5924C18.089 11.7654 17.9692 12.1475 17.9122 12.311C17.5301 13.3965 16.8876 13.4174 16.1024 14.1246C15.6823 14.5029 15.2033 15.2138 15.0854 15.8183C14.9086 16.7213 15.5302 17.7916 16.0188 18.4417C16.5606 19.1641 17.0663 19.4683 17.9445 19.7002C18.0053 19.7154 18.2297 19.7914 18.2867 19.761C18.2601 19.7135 18.2734 19.7344 18.2107 19.7021C17.8133 19.4892 17.5491 19.0615 17.3761 18.6489C17.1271 18.0558 16.9959 17.7384 17.0529 16.9989C17.1746 15.4267 17.8837 15.4191 18.2183 14.6245C18.2962 14.4382 18.2848 14.4249 18.2848 14.2025C18.2848 12.8604 18.2848 11.5183 18.2848 10.1762C18.2848 8.84547 18.2563 7.48435 18.2867 6.15935C18.3951 6.15745 18.3095 6.15365 18.3437 6.18406V19.493L18.3627 19.4873C18.7049 18.8314 18.7943 17.7384 18.8 16.9152C18.8095 15.7974 18.4141 14.7576 18.4445 14.2709C18.6669 15.2176 19.0243 15.9533 19.0566 17.0331C19.0699 17.4912 18.9977 18.1528 18.9311 18.6071C18.8532 19.1356 18.6403 19.4493 18.3894 19.742C18.3475 19.7629 18.3551 19.7458 18.338 19.7933C18.3894 19.7781 18.3741 19.7743 18.3875 19.761C18.5224 19.685 18.6574 19.5538 18.7486 19.4531C19.0965 19.0691 19.2885 18.6242 19.4045 18.0881C19.5452 17.4285 19.6972 16.3107 19.6269 15.6225C19.5908 15.2671 19.4805 14.8469 19.3874 14.52C19.0623 13.3946 18.6992 13.4269 18.5642 12.6475C18.5015 12.2806 18.5167 11.7426 18.5281 11.3586C18.5757 11.7255 18.5985 12.1456 18.665 12.5106C18.7334 12.887 18.9235 13.1056 19.0813 13.3927C19.8474 14.7994 20.0109 16.0389 19.7277 17.6547C19.6649 18.0178 19.5889 18.3638 19.4672 18.6889C19.26 19.2364 19.1954 19.2078 19.0243 19.5272C19.2353 19.3447 19.5395 18.7687 19.6668 18.417C19.9026 17.7688 20.1535 16.1681 20.1991 15.4515C20.239 14.826 20.1801 14.4192 20.0755 13.8337C19.8835 12.7729 19.5433 12.1171 19.1193 11.2826C18.8741 10.7997 18.7296 10.6609 18.6327 10.0165C18.5623 9.54504 18.4939 8.86448 18.5034 8.38543C18.5243 8.42915 18.5205 8.43295 18.5243 8.49378L18.5928 9.14963C18.6213 9.38915 18.6536 9.63438 18.6954 9.86821C18.8114 10.5107 18.8855 10.5088 19.1688 11.0468C19.5204 11.716 19.9824 12.5125 20.1801 13.3375C20.3987 14.2519 20.4805 15.402 20.3417 16.362C20.2713 16.8449 19.9596 18.1813 19.7562 18.6756C19.7182 18.7687 19.6592 18.8695 19.6307 18.9569C19.7429 18.8638 19.9311 18.5425 20.0166 18.3809C20.1459 18.1414 20.1991 17.9817 20.2656 17.6851C20.6249 16.0617 20.7637 14.1512 20.5337 12.5087C20.125 9.57926 18.8304 9.44048 18.7372 7.70297C18.7201 7.395 18.7658 6.89694 18.7562 6.78478C18.7943 7.0034 18.7505 7.22011 18.8608 7.74669C18.992 8.37022 19.1802 8.75042 19.5243 9.24088C19.6706 9.44809 19.8037 9.68001 19.9368 9.90813C20.2029 10.3644 20.4291 10.8472 20.5812 11.4194C20.7295 11.9707 20.8835 12.6095 20.9652 13.1912C21.1458 14.4762 21.1306 15.9362 20.8759 17.189C20.6839 18.1395 20.4652 18.7383 19.9026 19.4493C19.6516 19.7667 19.4311 19.8998 19.357 19.9873C20.0166 19.9321 21.1344 19.5329 21.6534 19.263C22.0165 19.0748 22.2978 18.9246 22.5944 18.7041C22.6704 18.6489 22.7407 18.5919 22.8111 18.533L23.1932 18.1756C23.2502 18.1224 23.3015 18.052 23.3662 17.9779C24.425 16.7917 24.8185 14.942 24.425 13.3489C23.9251 11.3263 22.5887 10.3606 20.9405 9.32072C20.7846 9.22187 20.6344 9.13632 20.4652 9.03747C20.0413 8.78844 19.6288 8.336 19.4064 7.85505C19.203 7.41211 19.165 7.12696 19.2524 6.60418L18.76 6.34945L18.4806 6.21258C18.5376 6.19167 18.8551 6.2525 18.9463 6.262L19.7714 6.36846C19.7714 6.4483 19.7524 6.49012 19.7391 6.55476C19.6079 7.17068 19.8683 7.84364 20.2808 8.25045C20.6953 8.66107 20.7276 8.66868 21.2428 8.95763C21.8872 9.31692 22.3111 9.59636 22.8966 10.0336L23.4498 10.526C23.5278 10.6039 23.5753 10.6685 23.6513 10.7446C23.6989 10.7902 23.7103 10.8149 23.7521 10.8624C24.2578 11.4308 24.6265 12.1589 24.8661 12.8813C25.1816 13.8299 25.2102 14.8964 25.001 15.8431C24.9478 16.0807 24.887 16.2936 24.8109 16.4951C24.7349 16.7004 24.6627 16.8867 24.5676 17.0768C24.4897 17.2308 24.2806 17.611 24.1779 17.7498C23.9384 18.0786 23.8053 18.263 23.5145 18.552C23.292 18.7744 23.2977 18.7573 23.0848 18.9474C22.5525 19.4246 21.5127 19.896 20.8454 20.0595C20.471 20.1526 20.1725 20.223 19.7866 20.2648L19.4045 20.3028C19.2695 20.3237 19.0984 20.3313 18.914 20.3351ZM18.2867 14.5314L18.2905 19.4683C17.9882 19.3219 17.705 18.8219 17.5472 18.4493C17.3533 17.9969 17.1898 17.5901 17.2164 17.0141C17.2583 16.113 17.6537 15.7404 18.0244 15.1644C18.2392 14.8279 18.1974 14.7177 18.2867 14.5314Z" fill="#0E0E0E"/>
<path d="M18.3932 19.7591L18.3951 19.7401C18.3533 19.761 18.3609 19.7439 18.3438 19.7915C18.3932 19.7781 18.3799 19.7743 18.3932 19.7591Z" fill="#69685A"/>
<path d="M19.011 19.5518C18.9483 19.5898 18.9692 19.5784 18.9407 19.6259L19.011 19.5518Z" fill="#8C8A78"/>
</g>
<defs>
<clipPath id="clip0_30_188">
<rect width="33.6097" height="20.335" fill="white" transform="translate(0.516113)"/>
</clipPath>
</defs>
</svg>
