<svg width="81" height="33" viewBox="0 0 81 33" fill="none" xmlns="http://www.w3.org/2000/svg">
<g clip-path="url(#clip0_30_128)">
<path d="M35.258 14.1089H33.9986V22.3319H35.258V14.1089Z" fill="#353535"/>
<path d="M40.8999 10.6256H30.6345V11.885H40.8999V10.6256Z" fill="#353535"/>
<path d="M37.533 14.1089H36.2736V22.3319H37.533V14.1089Z" fill="#353535"/>
<path d="M72.3256 22.3405H73.5963V17.3879L72.3256 15.9753V22.3405Z" fill="#353535"/>
<path d="M79.0169 10.6257V19.8075L70.028 9.81726V22.3405H71.2959V13.1558L80.2905 23.1489V10.6257H79.0169Z" fill="#353535"/>
<path d="M61.7993 10.62C58.5685 10.62 55.9419 13.2466 55.9419 16.4774C55.9419 19.7082 58.5685 22.3348 61.7993 22.3348C65.0301 22.3348 67.6567 19.7082 67.6567 16.4774C67.6567 13.2494 65.0301 10.62 61.7993 10.62ZM61.7993 21.0726C59.2663 21.0726 57.2041 19.0132 57.2041 16.4774C57.2041 13.9416 59.2635 11.8822 61.7993 11.8822C64.3323 11.8822 66.3944 13.9416 66.3944 16.4774C66.3944 19.0104 64.3323 21.0726 61.7993 21.0726Z" fill="#353535"/>
<path d="M61.7992 15.6349C61.334 15.6349 60.9568 16.0121 60.9568 16.4773C60.9568 16.9425 61.334 17.3198 61.7992 17.3198C62.2644 17.3198 62.6417 16.9425 62.6417 16.4773C62.6417 16.0121 62.2644 15.6349 61.7992 15.6349Z" fill="#353535"/>
<path d="M53.738 14.2194C53.738 12.2396 52.1382 10.6284 50.1725 10.6284H43.4727V22.3432H44.7236V11.8992H50.1725C51.4348 11.8992 52.4616 12.9402 52.4616 14.2194C52.4616 15.493 51.4489 16.5284 50.198 16.5426L45.7532 16.5397V22.3432H47.0041V17.8105H49.9342L52.3283 22.3404H53.7834L51.2844 17.6318C52.7282 17.1524 53.738 15.7568 53.738 14.2194Z" fill="#353535"/>
<path d="M21.9745 8.3053L4.90436 5.16528L13.8876 27.7666L26.4023 12.5175L21.9745 8.3053ZM21.7022 9.68952L24.3146 12.1715L17.1723 13.4649L21.7022 9.68952ZM15.6207 13.2068L8.0926 6.96363L20.3946 9.22717L15.6207 13.2068ZM15.0818 14.313L13.8564 24.4593L7.23881 7.80324L15.0818 14.313ZM16.2164 14.8491L24.1246 13.4167L15.0562 24.4678L16.2164 14.8491Z" fill="#353535"/>
</g>
<defs>
<clipPath id="clip0_30_128">
<rect width="80.4774" height="32.5742" fill="white"/>
</clipPath>
</defs>
</svg>
