<svg width="109" height="13" viewBox="0 0 109 13" fill="none" xmlns="http://www.w3.org/2000/svg">
<g clip-path="url(#clip0_30_170)">
<path d="M4.59186 2.4467C7.97394 -0.848771 13.4087 -0.848771 16.7907 2.4467L17.1935 2.84943C17.371 3.02698 17.371 3.29547 17.1935 3.42971L15.8121 4.76349C15.7211 4.85443 15.5912 4.85443 15.5003 4.76349L14.92 4.23085C12.5599 1.91406 8.77507 1.91406 6.41498 4.23085L5.83903 4.8068C5.74809 4.89774 5.61818 4.89774 5.52724 4.8068L4.14582 3.47302C3.96827 3.29547 3.96827 3.02698 4.14582 2.89274L4.59186 2.4467ZM19.6402 5.25284L20.8873 6.4567C21.0649 6.63425 21.0649 6.90274 20.8873 7.03698L15.3227 12.4674C15.1452 12.6449 14.8767 12.6449 14.6991 12.4674L10.7368 8.59161C10.6935 8.54831 10.6458 8.54831 10.6025 8.59161L6.64016 12.4674C6.46261 12.6449 6.19413 12.6449 6.01658 12.4674L0.451948 7.03698C0.274399 6.85943 0.274399 6.59094 0.451948 6.4567L1.69912 5.25284C1.87667 5.07529 2.14515 5.07529 2.3227 5.25284L6.28507 9.12859C6.32837 9.17189 6.376 9.17189 6.41931 9.12859L10.3817 5.25284C10.5592 5.07529 10.8277 5.07529 11.0053 5.25284L14.9676 9.12859C15.0109 9.17189 15.0586 9.17189 15.1019 9.12859L19.0642 5.25284C19.2418 5.07529 19.5103 5.07529 19.6878 5.25284H19.6402Z" fill="#353535"/>
<path d="M28.4137 10.7742L29.8818 4.80683C29.9727 4.49504 30.0593 4.13994 30.1502 3.55966C30.2412 4.09231 30.3278 4.45174 30.3711 4.80683L31.6616 10.7742H34.3335L36.5593 1.9574H34.511L33.2638 7.38778C33.1296 7.92043 33.043 8.32316 32.952 8.94675C32.8611 8.36647 32.7312 7.92476 32.6403 7.38778L31.4407 1.9574H28.7688L27.4784 7.38778C27.3441 7.92043 27.2575 8.32316 27.1666 8.94675C27.0756 8.32316 26.989 7.92476 26.8548 7.38778L25.6509 1.9574H23.516L25.7418 10.7742H28.3228H28.4137Z" fill="#353535"/>
<path d="M38.1181 10.9994C39.1401 10.9994 39.7637 10.5967 40.0755 9.97744C40.0322 10.155 40.0322 10.3802 40.0322 10.5577V10.7786H41.7254V7.128C41.7254 5.39149 40.9242 4.36951 39.0102 4.36951C37.317 4.36951 36.2517 5.30488 36.1174 6.59536H37.9882C38.0315 6.01508 38.4342 5.70329 39.0578 5.70329C39.6381 5.70329 39.9499 6.01508 39.9499 6.41781C39.9499 6.6863 39.7723 6.86385 39.283 6.90715L38.3909 6.99809C37.1004 7.17564 35.9442 7.62168 35.9442 9.04639C35.9442 10.2936 37.0138 11.0038 38.0835 11.0038H38.1181V10.9994ZM38.6984 9.70462C38.209 9.70462 37.8539 9.43614 37.8539 8.94679C37.8539 8.50076 38.2567 8.23227 38.9236 8.14566L39.3696 8.05472C39.7247 7.96378 39.9499 7.92048 40.0841 7.78623V8.36651C40.0841 9.16765 39.5038 9.65699 38.7937 9.65699L38.6984 9.70462Z" fill="#353535"/>
<path d="M42.6133 1.91406V10.7742H44.4407V1.91406H42.6133Z" fill="#353535"/>
<path d="M45.4669 1.91406V10.7742H47.3333V1.91406H45.4669Z" fill="#353535"/>
<path d="M51.2958 10.9994C53.0324 10.9994 54.1453 10.0207 54.2795 8.73027H52.4521C52.3611 9.31055 51.8718 9.62234 51.2958 9.62234C50.4947 9.62234 49.9621 8.99876 49.9144 8.10669H54.3228V7.75159C54.3228 5.70329 53.2099 4.36951 51.2525 4.36951C49.3818 4.36951 48.0913 5.65998 48.0913 7.66498C48.0913 9.79556 49.4294 10.9994 51.2958 10.9994ZM49.9188 6.90282C50.0097 6.1883 50.499 5.69896 51.2525 5.69896C51.9671 5.69896 52.4564 6.1883 52.4564 6.90282H49.9188Z" fill="#353535"/>
<path d="M58.1984 10.8651C58.6011 10.8651 58.9995 10.8218 59.1771 10.7309V9.34949C59.0428 9.39279 58.8653 9.39279 58.731 9.39279C58.0641 9.39279 57.839 8.99006 57.839 8.41411V6.01071H59.307V4.58599H57.839V2.40344H56.0115V4.58599H54.6777V6.01071H56.0115V8.6826C56.0115 10.1506 56.726 10.9084 58.1941 10.9084V10.8651H58.1984Z" fill="#353535"/>
<path d="M64.3867 10.9994C66.881 10.9994 68.3923 9.53138 68.5699 7.43545H66.6125C66.4783 8.59168 65.6338 9.3495 64.4733 9.3495C63.0919 9.3495 62.0699 8.19327 62.0699 6.27922C62.0699 4.40846 63.0919 3.33884 64.4733 3.33884C65.6771 3.33884 66.344 4.05336 66.4783 5.16629H68.5266C68.3057 2.98374 66.6991 1.73657 64.4733 1.73657C61.9356 1.73657 59.9783 3.47308 59.9783 6.32252C59.9783 9.3062 61.6715 10.9994 64.3434 10.9994H64.3867Z" fill="#353535"/>
<path d="M72.5366 10.9992C74.4507 10.9992 75.7888 9.79538 75.7888 7.70377C75.7888 5.65546 74.455 4.36499 72.5366 4.36499C70.6658 4.36499 69.2844 5.65546 69.2844 7.70377C69.2844 9.79538 70.6225 10.9992 72.5366 10.9992ZM72.5366 9.57452C71.6922 9.57452 71.1552 8.86 71.1552 7.70377C71.1552 6.4999 71.7355 5.78971 72.5366 5.78971C73.381 5.78971 73.918 6.4566 73.918 7.70377C73.918 8.9033 73.381 9.57452 72.5366 9.57452Z" fill="#353535"/>
<path d="M78.3696 10.7741V7.16685C78.3696 6.40902 78.859 5.83307 79.5259 5.83307C80.1494 5.83307 80.5478 6.32241 80.5478 7.12355V10.7741H82.3753V6.85506C82.3753 5.38703 81.5742 4.36072 80.1927 4.36072C79.2141 4.36072 78.6338 4.80675 78.322 5.3827C78.3653 5.16185 78.3653 4.97997 78.3653 4.80242V4.58157H76.5378V10.7698H78.3696V10.7741Z" fill="#353535"/>
<path d="M85.2681 10.7741V7.16685C85.2681 6.40902 85.7574 5.83307 86.4243 5.83307C87.0479 5.83307 87.4463 6.32241 87.4463 7.12355V10.7741H89.2737V6.85506C89.2737 5.38703 88.4726 4.36072 87.0912 4.36072C86.1125 4.36072 85.5322 4.80675 85.2204 5.3827C85.2637 5.16185 85.2637 4.97997 85.2637 4.80242V4.58157H83.4363V10.7698H85.2681V10.7741Z" fill="#353535"/>
<path d="M93.2404 10.9994C94.9769 10.9994 96.0899 10.0207 96.2241 8.73027H94.3967C94.3057 9.31055 93.8164 9.62234 93.2404 9.62234C92.4393 9.62234 91.9066 8.99876 91.859 8.10669H96.2674V7.75159C96.2674 5.70329 95.1545 4.36951 93.1971 4.36951C91.3264 4.36951 90.0359 5.65998 90.0359 7.66498C90.0316 9.79556 91.3697 10.9994 93.2404 10.9994ZM91.859 6.90282C91.95 6.1883 92.4393 5.69896 93.1928 5.69896C93.9073 5.69896 94.3967 6.1883 94.3967 6.90282H91.859Z" fill="#353535"/>
<path d="M100.186 10.9992C102.101 10.9992 103.17 9.92962 103.348 8.32735H101.52C101.477 8.99424 101.074 9.57452 100.23 9.57452C99.3853 9.57452 98.8484 8.81669 98.8484 7.66046C98.8484 6.41329 99.5153 5.78971 100.273 5.78971C101.031 5.78971 101.429 6.32235 101.477 6.99357H103.304C103.17 5.47792 102.148 4.36499 100.277 4.36499C98.45 4.36499 96.9819 5.56886 96.9819 7.66046C96.9776 9.70444 98.1815 10.9992 100.186 10.9992Z" fill="#353535"/>
<path d="M107.31 10.8651C107.713 10.8651 108.111 10.8218 108.289 10.7309V9.34949C108.155 9.39279 107.977 9.39279 107.843 9.39279C107.176 9.39279 106.951 8.99006 106.951 8.41411V6.01071H108.419V4.58599H106.951V2.40344H105.123V4.58599H103.79V6.01071H105.123V8.6826C105.123 10.1506 105.838 10.9084 107.306 10.9084V10.8651H107.31Z" fill="#353535"/>
</g>
<defs>
<clipPath id="clip0_30_170">
<rect width="108.261" height="12.6449" fill="white" transform="translate(0.261353)"/>
</clipPath>
</defs>
</svg>
