<svg width="100" height="99" viewBox="0 0 100 99" fill="none" xmlns="http://www.w3.org/2000/svg">
<g clip-path="url(#clip0_132_1608)">
<rect x="0.805664" y="0.210526" width="98.2456" height="98.2456" rx="27.0175" fill="#2C2C2C"/>
<path d="M74.865 83.5C69.3017 81.5089 59.5291 80.0023 59.5291 59.2477H50.8178H40.6157C40.6157 80.0023 30.8431 81.5089 25.2798 83.5C25.2798 97.617 45.7936 98.0509 49.327 99.3667V99.8247C49.327 99.8247 49.6018 99.7687 50.0724 99.6221C50.543 99.7687 50.8178 99.8247 50.8178 99.8247V99.3667C54.3512 98.0509 74.865 97.617 74.865 83.5Z" fill="#171717"/>
<path d="M59.5291 59.2477H50.8178H49.9732V99.6522C50.0059 99.6423 50.0375 99.6331 50.0724 99.6221C50.543 99.7687 50.8178 99.8247 50.8178 99.8247L50.8178 99.3664C54.3512 98.0509 74.865 97.6167 74.865 83.5C69.3017 81.5089 59.5291 80.0023 59.5291 59.2477Z" fill="#171717"/>
<path d="M71.2391 47.2373C72.2414 44.592 71.8002 41.9725 70.2536 41.3866C68.7071 40.8006 66.6409 42.4701 65.6386 45.1154C64.6363 47.7607 65.0775 50.3801 66.6241 50.9661C68.1706 51.5521 70.2368 49.8826 71.2391 47.2373Z" fill="#171717"/>
<path d="M28.5805 47.2368C29.5828 49.8822 31.649 51.5516 33.1956 50.9656C34.7421 50.3797 35.1833 47.7602 34.181 45.1149C33.1787 42.4696 31.1125 40.8001 29.566 41.3861C28.0194 41.9721 27.5782 44.5915 28.5805 47.2368Z" fill="#171717"/>
<path d="M50.073 66.3548C41.8909 66.3548 35.6458 59.4647 32.8473 54.2977C30.0488 49.1308 28.1122 30.6209 34.1407 22.4395C40.0441 14.4276 50.073 18.3154 50.073 18.3154C50.073 18.3154 60.1013 14.4276 66.0049 22.4395C72.0329 30.6209 70.0957 49.1308 67.2969 54.2977C64.4978 59.4647 58.2536 66.3548 50.073 66.3548Z" fill="#171717"/>
<path d="M66.005 22.4398C60.101 14.4276 50.073 18.3157 50.073 18.3157C50.073 18.3157 50.0378 18.3023 49.9732 18.279V66.3524C50.0065 66.3527 50.0393 66.355 50.073 66.355C58.2536 66.355 64.4978 59.465 67.2972 54.298C70.0957 49.1311 72.0332 30.6212 66.005 22.4398Z" fill="#171717"/>
<path d="M85.8303 99.8533V111.977H14.3145V99.8533C14.3145 90.7841 19.4933 82.8768 26.4159 78.7193C28.2168 77.6342 32.284 76.505 34.4161 75.9787C36.1903 75.5352 50.3421 82.7525 50.3421 82.7525C50.3421 82.7525 64.8483 75.8329 66.6225 76.2767C68.7546 76.803 71.928 77.6339 73.7286 78.7193C80.6515 82.8768 85.8303 90.7838 85.8303 99.8533Z" fill="#171717"/>
<path d="M73.7289 78.719C71.928 77.6339 68.7549 76.803 66.6228 76.2764C64.8486 75.8329 50.3424 82.7522 50.3424 82.7522C50.3424 82.7522 50.2107 82.6852 49.9732 82.5654V111.977H85.8304V99.8531C85.8304 90.7841 80.6515 82.8768 73.7289 78.719Z" fill="#171717"/>
<path d="M56.5298 84.1288L50.0724 82.0921L43.615 84.1288L47.881 87.4047L45.2047 111.977H54.9401L52.2638 87.4047L56.5298 84.1288Z" fill="#171717"/>
<path d="M56.5298 84.1288L50.0724 82.0921L49.9732 82.1234V111.977H54.9401L52.2638 87.4047L56.5298 84.1288Z" fill="#171717"/>
<path d="M64.4275 74.8527L50.0724 81.8388L35.7173 74.8527C32.29 76.4919 38.8156 86.3077 40.1379 85.83C43.4052 84.6498 50.0724 82.7516 50.0724 82.7516C50.0724 82.7516 56.7396 84.6498 60.0069 85.83C61.3292 86.3077 67.8548 76.4919 64.4275 74.8527Z" fill="#171717"/>
<path d="M64.4275 74.8527L50.0724 81.8388L49.9732 81.7905V82.7803C50.036 82.7621 50.0724 82.7519 50.0724 82.7519C50.0724 82.7519 56.7396 84.6501 60.0069 85.8303C61.3292 86.3077 67.8548 76.4919 64.4275 74.8527Z" fill="#171717"/>
<path d="M54.8906 60.4121L49.9875 59.2477L45.2545 60.4121L45.9346 66.5339C47.2158 67.056 48.6007 67.3657 50.073 67.3657C51.5447 67.3657 52.9296 67.056 54.2105 66.5339L54.8906 60.4121Z" fill="#171717"/>
<path d="M49.9875 59.2477L49.9732 59.2513V67.3633C50.0065 67.3636 50.0393 67.366 50.0727 67.366C51.5444 67.366 52.9293 67.0563 54.2102 66.5342L54.8903 60.4121L49.9875 59.2477Z" fill="#171717"/>
<path d="M66.9595 20.0377C66.3161 20.0615 63.2992 10.7085 55.2524 12.7947C49.7279 14.227 49.0305 15.0058 46.8719 15.615C38.1069 12.9285 29.7237 19.928 30.0348 26.4894C30.559 37.5373 28.6108 37.3689 29.9469 41.228C31.283 45.0872 32.47 48.204 32.47 48.204C32.47 48.204 32.7668 49.2664 33.3605 43.181C33.9542 37.0956 31.9583 33.8292 36.6796 33.8292C52.3118 33.8292 30.8091 39.9006 40.8377 39.9006C50.7892 39.9006 58.4818 31.7403 63.1659 31.147C67.8497 30.5533 65.8914 37.0956 66.4851 43.181C67.0787 49.2664 67.3756 48.204 67.3756 48.204C67.3756 48.204 70.034 45.3095 69.8987 41.228C69.7467 36.6223 71.7971 19.8583 66.9595 20.0377Z" fill="#171717"/>
<path d="M66.9595 20.038C66.3161 20.0618 63.2992 10.7088 55.2524 12.795C52.6274 13.4757 51.0931 14.0083 49.9732 14.4458V37.776C55.5639 35.3146 60.0373 31.5433 63.1662 31.147C67.85 30.5533 65.8917 37.0956 66.4854 43.181C67.079 49.2664 67.3759 48.204 67.3759 48.204C67.3759 48.204 70.0343 45.3095 69.899 41.228C69.7467 36.6223 71.7971 19.8583 66.9595 20.038Z" fill="#171717"/>
<path d="M71.2391 47.2373C72.2414 44.592 71.8002 41.9725 70.2536 41.3866C68.7071 40.8006 66.6409 42.4701 65.6386 45.1154C64.6363 47.7607 65.0775 50.3801 66.6241 50.9661C68.1706 51.5521 70.2368 49.8826 71.2391 47.2373Z" fill="#171717"/>
<path d="M28.5805 47.2368C29.5828 49.8822 31.649 51.5516 33.1956 50.9656C34.7421 50.3797 35.1833 47.7602 34.181 45.1149C33.1787 42.4696 31.1125 40.8001 29.566 41.3861C28.0194 41.9721 27.5782 44.5915 28.5805 47.2368Z" fill="#171717"/>
</g>
<defs>
<clipPath id="clip0_132_1608">
<rect x="0.805664" y="0.210526" width="98.2456" height="98.2456" rx="27.0175" fill="white"/>
</clipPath>
</defs>
</svg>
